<?xml version="1.0" encoding="utf-8"?>
<!-- Generator: Adobe Illustrator 23.0.3, SVG Export Plug-In . SVG Version: 6.00 Build 0)  -->
<svg version="1.1" id="Layer_1" xmlns="http://www.w3.org/2000/svg" xmlns:xlink="http://www.w3.org/1999/xlink" x="0px" y="0px"
	 viewBox="0 0 200 200" style="enable-background:new 0 0 200 200;" xml:space="preserve">
<style type="text/css">
	.st0{opacity:0.71;}
	.st1{fill:url(#SVGID_1_);}
</style>
<g class="st0">
	
		<linearGradient id="SVGID_1_" gradientUnits="userSpaceOnUse" x1="524.8359" y1="459.1168" x2="373.6393" y2="546.4102" gradientTransform="matrix(0.9788 0.2049 -0.2049 0.9788 -233.4212 -482.6075)">
		<stop  offset="0" style="stop-color:#ED1E79"/>
		<stop  offset="0.4933" style="stop-color:#7E196E"/>
		<stop  offset="0.8398" style="stop-color:#371567"/>
		<stop  offset="1" style="stop-color:#1B1464"/>
	</linearGradient>
	<path class="st1" d="M117.21,120.78c1.05,0.48,1.95,0.86,2.82,1.3c0.56,0.28,1.09,0.61,1.61,0.96c0.28,0.19,0.54,0.45,0.75,0.73
		c0.38,0.51,0.25,1.09-0.31,1.4c-0.3,0.17-0.64,0.3-0.98,0.36c-0.59,0.11-1.19,0.16-1.78,0.24c-0.11,0.02-0.22,0.05-0.48,0.11
		c0.42,0.19,0.7,0.33,0.98,0.46c0.82,0.37,1.64,0.76,2.39,1.26c0.31,0.21,0.61,0.44,0.89,0.69c0.17,0.15,0.31,0.33,0.42,0.52
		c0.27,0.48,0.18,0.95-0.26,1.26c-0.24,0.17-0.52,0.31-0.81,0.38c-0.46,0.13-0.93,0.2-1.4,0.28c-0.22,0.04-0.43,0.06-0.77,0.1
		c0.21,0.14,0.32,0.23,0.45,0.3c0.79,0.42,1.61,0.82,2.38,1.27c0.43,0.25,0.83,0.57,1.17,0.93c0.74,0.77,0.58,1.54-0.39,1.97
		c-0.38,0.17-0.81,0.26-1.22,0.36c-0.31,0.08-0.64,0.11-1.06,0.18c0.23,0.15,0.38,0.25,0.54,0.34c0.64,0.35,1.28,0.68,1.91,1.05
		c0.34,0.2,0.66,0.46,0.97,0.71c0.17,0.14,0.33,0.31,0.46,0.49c0.52,0.71,0.38,1.41-0.42,1.81c-0.4,0.2-0.85,0.3-1.28,0.43
		c-0.23,0.07-0.48,0.1-0.72,0.15c-0.02,0.22,0.14,0.21,0.23,0.26c0.65,0.38,1.31,0.74,1.94,1.13c0.34,0.21,0.66,0.46,0.94,0.74
		c1.04,1,0.86,1.94-0.48,2.46c-0.28,0.11-0.57,0.17-0.86,0.25c-0.16,0.05-0.33,0.08-0.57,0.14c0.11,0.11,0.17,0.2,0.24,0.24
		c0.52,0.3,1.05,0.59,1.56,0.91c0.32,0.2,0.62,0.43,0.91,0.67c0.19,0.16,0.37,0.34,0.53,0.53c0.67,0.84,0.52,1.61-0.42,2.1
		c-0.31,0.16-0.65,0.25-0.98,0.37c-0.18,0.06-0.38,0.11-0.63,0.19c0.2,0.13,0.34,0.23,0.49,0.32c0.59,0.38,1.2,0.73,1.76,1.15
		c0.34,0.25,0.65,0.56,0.91,0.89c0.59,0.77,0.43,1.55-0.41,2.02c-0.34,0.19-0.74,0.3-1.11,0.45c-0.11,0.04-0.23,0.08-0.42,0.16
		c0.23,0.15,0.38,0.25,0.54,0.35c0.48,0.31,0.98,0.61,1.44,0.95c0.28,0.2,0.55,0.44,0.78,0.7c0.97,1.06,0.75,2.01-0.58,2.59
		c-0.16,0.07-0.33,0.12-0.49,0.18c-0.12,0.04-0.23,0.09-0.33,0.13c-0.05,0.2,0.09,0.23,0.19,0.3c0.52,0.35,1.06,0.68,1.55,1.06
		c0.35,0.28,0.68,0.6,0.95,0.96c0.64,0.86,0.45,1.66-0.49,2.2c-0.22,0.12-0.45,0.21-0.68,0.31c-0.13,0.06-0.26,0.11-0.45,0.2
		c0.17,0.13,0.28,0.22,0.4,0.3c0.53,0.38,1.08,0.73,1.57,1.15c0.32,0.27,0.61,0.61,0.83,0.96c0.45,0.71,0.29,1.41-0.39,1.91
		c-0.22,0.16-0.48,0.27-0.72,0.4c-0.15,0.08-0.31,0.14-0.54,0.24c0.19,0.14,0.32,0.24,0.45,0.33c0.52,0.39,1.06,0.76,1.55,1.18
		c0.26,0.22,0.49,0.51,0.68,0.8c0.51,0.81,0.36,1.54-0.43,2.09c-0.2,0.14-0.44,0.24-0.66,0.36c-0.11,0.06-0.21,0.11-0.31,0.17
		c0.01,0.26,0.22,0.29,0.35,0.38c0.47,0.38,0.97,0.71,1.42,1.11c0.28,0.25,0.52,0.55,0.71,0.86c0.48,0.79,0.3,1.56-0.46,2.1
		c-0.18,0.13-0.39,0.22-0.59,0.33c-0.1,0.06-0.2,0.12-0.36,0.21c0.15,0.13,0.26,0.22,0.38,0.31c0.38,0.29,0.77,0.56,1.13,0.87
		c0.28,0.25,0.55,0.52,0.77,0.82c0.76,1.03,0.58,1.93-0.51,2.59c-0.19,0.12-0.39,0.22-0.63,0.36c0.16,0.14,0.29,0.24,0.42,0.35
		c0.46,0.39,0.94,0.75,1.37,1.16c0.25,0.24,0.46,0.53,0.63,0.83c0.44,0.79,0.28,1.51-0.43,2.07c-0.25,0.2-0.53,0.36-0.8,0.53
		c0.04,0.23,0.24,0.27,0.36,0.37c0.43,0.38,0.9,0.72,1.3,1.13c0.26,0.26,0.48,0.58,0.65,0.91c0.37,0.71,0.22,1.46-0.4,1.96
		c-0.33,0.26-0.7,0.5-1.1,0.64c-0.66,0.23-1.34,0.42-2.02,0.55c-1.73,0.33-3.48,0.41-5.23,0.45c-2.63,0.05-5.26-0.05-7.88-0.23
		c-2.58-0.17-5.15-0.39-7.71-0.7c-2.56-0.32-5.12-0.64-7.68-0.99c-3.08-0.41-6.15-0.93-9.21-1.46c-6.77-1.17-13.49-2.59-20.19-4.14
		c-3.05-0.7-6.08-1.52-9.11-2.3c-1.87-0.48-3.73-1-5.58-1.53c-1.4-0.4-2.78-0.84-4.17-1.27c-1.13-0.35-2.25-0.7-3.37-1.07
		c-1.26-0.42-2.52-0.83-3.77-1.29c-1.69-0.62-3.38-1.26-5.05-1.94c-2.25-0.92-4.46-1.92-6.54-3.18c-0.73-0.44-1.43-0.92-2.07-1.49
		c-0.37-0.34-0.72-0.7-0.98-1.14c-0.51-0.89-0.34-1.7,0.49-2.31c0.51-0.38,1.1-0.59,1.71-0.76c0.4-0.11,0.81-0.21,1.27-0.32
		c-0.09-0.15-0.16-0.25-0.22-0.35c-0.12-0.19-0.26-0.37-0.36-0.57c-0.37-0.74-0.24-1.44,0.4-1.95c0.31-0.25,0.67-0.45,1.04-0.59
		c0.49-0.19,1-0.31,1.51-0.45c0.21-0.06,0.43-0.11,0.69-0.17c-0.13-0.18-0.25-0.31-0.34-0.45c-0.14-0.21-0.29-0.41-0.39-0.64
		c-0.28-0.65-0.14-1.31,0.42-1.76c0.31-0.25,0.67-0.46,1.03-0.6c0.51-0.2,1.05-0.31,1.59-0.46c0.21-0.06,0.43-0.1,0.71-0.17
		c-0.1-0.15-0.17-0.24-0.23-0.33c-0.18-0.27-0.4-0.52-0.54-0.81c-0.31-0.64-0.2-1.24,0.35-1.7c0.3-0.25,0.66-0.47,1.03-0.6
		c0.56-0.21,1.15-0.33,1.73-0.49c0.21-0.06,0.42-0.09,0.71-0.15c-0.11-0.16-0.18-0.25-0.25-0.34c-0.17-0.22-0.36-0.42-0.5-0.66
		c-0.47-0.78-0.32-1.51,0.43-2.03c0.26-0.18,0.56-0.34,0.87-0.44c0.55-0.18,1.11-0.3,1.67-0.44c0.27-0.07,0.54-0.11,0.87-0.17
		c-0.18-0.21-0.35-0.36-0.47-0.54c-0.2-0.28-0.43-0.56-0.56-0.88c-0.21-0.51-0.08-0.98,0.29-1.38c0.28-0.3,0.64-0.48,1.01-0.63
		c0.63-0.25,1.29-0.39,1.96-0.5c0.24-0.04,0.49-0.09,0.72-0.13c0.06-0.23-0.13-0.27-0.21-0.37c-0.22-0.27-0.48-0.51-0.67-0.81
		c-0.46-0.73-0.32-1.4,0.4-1.89c0.31-0.21,0.66-0.38,1.01-0.48c0.65-0.18,1.32-0.28,1.98-0.43c0.18-0.04,0.4,0.01,0.6-0.18
		c-0.13-0.13-0.24-0.24-0.35-0.37c-0.24-0.28-0.53-0.55-0.72-0.86c-0.39-0.64-0.26-1.28,0.35-1.72c0.3-0.21,0.65-0.39,1-0.49
		c0.67-0.19,1.37-0.31,2.05-0.44c0.24-0.05,0.49-0.06,0.81-0.1c-0.14-0.15-0.23-0.25-0.33-0.36c-0.29-0.31-0.63-0.58-0.87-0.93
		c-0.49-0.7-0.34-1.43,0.4-1.86c0.4-0.24,0.86-0.41,1.32-0.52c0.66-0.16,1.33-0.23,2-0.33c0.17-0.03,0.34-0.05,0.52-0.07
		c0.03-0.22-0.15-0.24-0.24-0.33c-0.27-0.26-0.58-0.48-0.83-0.76c-0.18-0.2-0.32-0.45-0.42-0.7c-0.15-0.38-0.06-0.74,0.21-1.05
		c0.24-0.28,0.53-0.47,0.87-0.57c0.57-0.17,1.16-0.32,1.75-0.43c0.49-0.09,0.99-0.11,1.49-0.17c0.09-0.01,0.18-0.04,0.24-0.06
		c0.06-0.18-0.06-0.21-0.13-0.27c-0.27-0.22-0.56-0.42-0.82-0.66c-0.2-0.19-0.38-0.4-0.52-0.64c-0.34-0.57-0.24-1.15,0.31-1.52
		c0.33-0.22,0.71-0.38,1.08-0.5c0.84-0.26,1.72-0.33,2.59-0.39c0.24-0.02,0.47-0.04,0.83-0.07c-0.2-0.16-0.32-0.25-0.43-0.34
		c-0.37-0.3-0.77-0.56-1.1-0.9c-0.85-0.87-0.67-1.71,0.46-2.16c0.46-0.19,0.96-0.31,1.45-0.39c0.69-0.11,1.39-0.14,2.09-0.2
		c0.22-0.02,0.44-0.03,0.77-0.06c-0.24-0.17-0.4-0.27-0.55-0.38c-0.38-0.28-0.78-0.54-1.14-0.86c-0.22-0.19-0.4-0.45-0.54-0.71
		c-0.2-0.4-0.13-0.8,0.21-1.09c0.22-0.19,0.49-0.36,0.77-0.45c0.52-0.16,1.06-0.29,1.61-0.36c0.77-0.09,1.55-0.1,2.32-0.15
		c0.14-0.01,0.27-0.05,0.52-0.09c-0.4-0.24-0.7-0.41-0.98-0.6c-0.33-0.22-0.66-0.45-0.96-0.71c-0.19-0.16-0.35-0.36-0.48-0.57
		c-0.26-0.44-0.16-0.98,0.27-1.26c0.29-0.19,0.62-0.32,0.95-0.43c0.7-0.22,1.42-0.28,2.15-0.31c0.65-0.03,1.3-0.03,1.95-0.05
		c0.09,0,0.18-0.01,0.39-0.03c-0.18-0.14-0.27-0.22-0.37-0.28c-0.51-0.31-1.04-0.6-1.54-0.93c-0.27-0.18-0.51-0.41-0.71-0.66
		c-0.49-0.61-0.36-1.19,0.34-1.55c0.31-0.16,0.65-0.26,0.99-0.33c0.98-0.22,1.99-0.24,2.99-0.25c0.55-0.01,1.1,0.01,1.81,0.01
		c-0.32-0.18-0.5-0.3-0.69-0.39c-0.66-0.31-1.31-0.64-1.88-1.09c-0.27-0.21-0.53-0.47-0.72-0.75c-0.29-0.43-0.19-0.9,0.26-1.17
		c0.29-0.18,0.63-0.3,0.97-0.39c0.75-0.2,1.53-0.24,2.31-0.24c0.85-0.01,1.7,0.03,2.55,0.04c0.19,0,0.39-0.02,0.74-0.05
		c-0.66-0.3-1.19-0.52-1.69-0.78c-0.53-0.28-1.05-0.58-1.55-0.92c-0.24-0.16-0.46-0.39-0.63-0.63c-0.27-0.38-0.16-0.85,0.22-1.12
		c0.31-0.23,0.67-0.34,1.05-0.39c0.67-0.08,1.34-0.18,2.02-0.18c1.25,0.01,2.5,0.09,3.75,0.14c0.1,0,0.19,0,0.29,0
		c0.02-0.23-0.16-0.24-0.29-0.3c-0.74-0.31-1.48-0.6-2.21-0.95c-0.47-0.23-0.92-0.51-1.35-0.81c-0.2-0.14-0.38-0.33-0.52-0.54
		c-0.28-0.42-0.2-0.83,0.25-1.09c0.25-0.15,0.55-0.25,0.84-0.31c0.47-0.09,0.94-0.14,1.41-0.17c1.53-0.07,3.05,0.03,4.58,0.18
		c0.57,0.06,1.14,0.11,1.74,0.08c-0.42-0.15-0.84-0.3-1.26-0.45c-1.04-0.36-2.07-0.75-3.05-1.26c-0.29-0.15-0.57-0.31-0.85-0.49
		c-0.17-0.11-0.33-0.23-0.47-0.37c-0.61-0.6-0.49-1.19,0.34-1.48c0.35-0.12,0.73-0.18,1.1-0.22c1-0.1,2-0.07,3-0.01
		c0.5,0.03,1,0.08,1.5,0.12c0.09,0.01,0.18-0.02,0.26-0.04c0.01-0.19-0.11-0.18-0.19-0.21c-1.49-0.44-2.96-0.95-4.38-1.57
		c-0.71-0.31-1.4-0.68-2.07-1.06c-0.3-0.17-0.57-0.42-0.79-0.69c-0.37-0.45-0.27-0.92,0.24-1.19c0.3-0.16,0.65-0.25,0.99-0.32
		c0.94-0.18,1.89-0.16,2.84-0.14c0.4,0.01,0.8,0.03,1.27,0.04c-0.26-0.27-0.55-0.33-0.82-0.43c-1.28-0.44-2.54-0.93-3.74-1.56
		c-0.44-0.23-0.87-0.49-1.28-0.78c-0.24-0.17-0.45-0.4-0.62-0.64c-0.27-0.39-0.18-0.87,0.23-1.11c0.29-0.18,0.64-0.3,0.97-0.38
		c0.86-0.2,1.74-0.21,2.61-0.21c0.27,0,0.54,0.02,0.87-0.08c-0.9-0.37-1.74-0.69-2.56-1.07c-0.7-0.32-1.4-0.68-2.06-1.07
		c-0.36-0.21-0.7-0.5-0.97-0.81c-0.52-0.59-0.38-1.18,0.33-1.52c0.34-0.16,0.71-0.26,1.07-0.31c0.67-0.09,1.34-0.12,2.02-0.18
		c0.12-0.01,0.23-0.03,0.33-0.05c0.04-0.2-0.1-0.19-0.17-0.22c-1.05-0.42-2.08-0.86-3.06-1.43c-0.41-0.24-0.8-0.51-1.18-0.8
		c-0.21-0.17-0.4-0.38-0.55-0.61c-0.31-0.5-0.2-0.97,0.31-1.29c0.23-0.14,0.49-0.26,0.75-0.32c0.54-0.12,1.08-0.19,1.63-0.27
		c0.25-0.04,0.5-0.04,0.75-0.06c0.04-0.22-0.14-0.24-0.25-0.3c-0.79-0.39-1.59-0.74-2.36-1.15c-0.46-0.25-0.89-0.56-1.3-0.88
		c-0.21-0.16-0.4-0.38-0.55-0.61c-0.33-0.5-0.23-1.05,0.27-1.37c0.25-0.16,0.53-0.29,0.82-0.36c0.48-0.12,0.98-0.19,1.47-0.28
		c0.19-0.03,0.39-0.06,0.71-0.12c-0.51-0.25-0.92-0.43-1.31-0.64c-0.7-0.39-1.4-0.78-2.07-1.22c-0.33-0.22-0.63-0.51-0.87-0.82
		c-0.48-0.63-0.34-1.23,0.34-1.64c0.48-0.29,1.03-0.39,1.57-0.5c0.26-0.05,0.55-0.02,0.77-0.16c0.04-0.18-0.1-0.18-0.17-0.22
		c-0.72-0.4-1.46-0.78-2.17-1.2c-0.36-0.22-0.71-0.48-1.02-0.77c-1.04-0.97-0.86-1.89,0.46-2.38c0.33-0.12,0.67-0.19,1.01-0.28
		c0.19-0.05,0.39-0.08,0.67-0.13c-0.15-0.13-0.23-0.22-0.32-0.27c-0.69-0.4-1.39-0.79-2.07-1.21c-0.3-0.18-0.56-0.42-0.82-0.66
		c-0.18-0.17-0.34-0.37-0.47-0.58c-0.34-0.57-0.23-1.15,0.31-1.52c0.31-0.21,0.66-0.35,1.01-0.47c0.33-0.12,0.67-0.18,1.01-0.26
		c0.06-0.15-0.08-0.16-0.14-0.22c-0.05-0.05-0.13-0.08-0.19-0.12c-0.64-0.39-1.29-0.77-1.92-1.18c-0.27-0.18-0.51-0.4-0.74-0.63
		c-0.17-0.18-0.33-0.38-0.44-0.6c-0.3-0.56-0.18-1.06,0.31-1.47c0.36-0.29,0.79-0.43,1.22-0.57c0.23-0.08,0.5-0.05,0.72-0.28
		c-0.34-0.2-0.67-0.37-0.97-0.58c-0.54-0.36-1.09-0.72-1.59-1.13c-0.28-0.23-0.53-0.54-0.72-0.86c-0.35-0.59-0.21-1.19,0.34-1.59
		c0.28-0.2,0.61-0.34,0.93-0.48c0.23-0.1,0.47-0.15,0.69-0.22c0.04-0.2-0.09-0.24-0.19-0.3c-0.57-0.37-1.14-0.72-1.69-1.11
		c-0.41-0.29-0.78-0.64-1.05-1.07c-0.46-0.73-0.33-1.41,0.38-1.89c0.25-0.17,0.53-0.28,0.8-0.4c0.2-0.09,0.41-0.16,0.68-0.26
		c-0.2-0.14-0.34-0.23-0.48-0.33c-0.59-0.42-1.2-0.82-1.76-1.28c-0.3-0.25-0.56-0.58-0.76-0.92c-0.38-0.65-0.24-1.27,0.36-1.73
		c0.26-0.19,0.56-0.32,0.85-0.47c0.17-0.09,0.36-0.15,0.61-0.26c-0.22-0.15-0.38-0.25-0.54-0.36c-0.49-0.35-0.99-0.69-1.45-1.07
		c-0.29-0.24-0.55-0.52-0.76-0.83c-0.56-0.81-0.4-1.6,0.41-2.13c0.23-0.15,0.49-0.25,0.74-0.37c0.1-0.05,0.21-0.11,0.35-0.18
		c-0.12-0.23-0.32-0.29-0.47-0.4c-0.48-0.37-0.98-0.7-1.43-1.1c-0.28-0.24-0.53-0.54-0.72-0.86c-0.48-0.78-0.32-1.51,0.43-2.03
		c0.31-0.21,0.65-0.37,0.99-0.55c0.04-0.19-0.13-0.23-0.24-0.31c-0.48-0.36-0.97-0.71-1.43-1.09c-0.35-0.29-0.65-0.63-0.86-1.04
		c-0.39-0.76-0.25-1.41,0.41-1.93c0.18-0.14,0.38-0.24,0.57-0.36c0.15-0.09,0.3-0.17,0.5-0.27c-0.24-0.18-0.44-0.32-0.63-0.47
		c-0.39-0.31-0.8-0.6-1.16-0.95c-0.28-0.28-0.54-0.6-0.74-0.94c-0.41-0.73-0.24-1.48,0.43-2c0.18-0.14,0.38-0.24,0.57-0.36
		c0.1-0.06,0.21-0.13,0.31-0.19c-0.03-0.25-0.23-0.27-0.36-0.38c-0.42-0.36-0.87-0.67-1.27-1.05c-0.29-0.27-0.54-0.6-0.73-0.94
		c-0.44-0.78-0.27-1.51,0.43-2.07c0.25-0.2,0.53-0.35,0.84-0.56c-0.19-0.15-0.33-0.28-0.49-0.4c-0.51-0.37-1-0.76-1.39-1.25
		c-0.22-0.27-0.42-0.57-0.56-0.89c-0.27-0.64-0.13-1.23,0.36-1.72c0.3-0.31,0.67-0.54,1.07-0.68c0.64-0.21,1.29-0.42,1.95-0.56
		c1.62-0.34,3.27-0.44,4.93-0.48c2.55-0.06,5.11,0,7.66,0.18c1.77,0.13,3.55,0.24,5.32,0.4c1.77,0.17,3.54,0.38,5.3,0.59
		c1.62,0.19,3.23,0.4,4.85,0.62c0.94,0.12,1.89,0.26,2.83,0.41c2.01,0.32,4.01,0.62,6.01,0.98c2.59,0.46,5.18,0.92,7.77,1.44
		c3.12,0.62,6.24,1.27,9.35,1.96c2.96,0.66,5.9,1.39,8.85,2.11c1.49,0.36,2.97,0.74,4.44,1.14c1.89,0.51,3.77,1.05,5.65,1.59
		c1.37,0.39,2.74,0.8,4.11,1.22c1.15,0.35,2.29,0.73,3.43,1.11c1.31,0.44,2.61,0.88,3.91,1.35c3.56,1.29,7.08,2.66,10.4,4.49
		c0.76,0.42,1.5,0.91,2.22,1.41c0.41,0.28,0.78,0.63,1.13,0.98c0.21,0.21,0.4,0.45,0.56,0.71c0.57,0.92,0.38,1.8-0.53,2.41
		c-0.31,0.21-0.65,0.37-1.01,0.5c-0.47,0.17-0.96,0.28-1.44,0.42c-0.14,0.04-0.27,0.09-0.44,0.15c0.18,0.27,0.35,0.48,0.49,0.72
		c0.53,0.9,0.36,1.68-0.5,2.29c-0.46,0.32-0.97,0.52-1.5,0.67c-0.48,0.13-0.96,0.24-1.5,0.38c0.08,0.13,0.14,0.23,0.2,0.33
		c0.17,0.28,0.38,0.53,0.51,0.83c0.27,0.63,0.13,1.25-0.41,1.69c-0.33,0.26-0.71,0.48-1.1,0.63c-0.54,0.2-1.1,0.32-1.66,0.47
		c-0.17,0.05-0.34,0.07-0.57,0.12c0.1,0.15,0.17,0.27,0.24,0.38c0.18,0.27,0.39,0.52,0.53,0.82c0.27,0.59,0.13,1.2-0.34,1.65
		c-0.31,0.3-0.69,0.52-1.1,0.64c-0.65,0.19-1.31,0.34-1.96,0.51c-0.14,0.04-0.27,0.08-0.45,0.14c0.12,0.14,0.21,0.23,0.29,0.32
		c0.1,0.11,0.2,0.22,0.29,0.34c0.75,1,0.57,1.9-0.52,2.5c-0.53,0.3-1.11,0.47-1.7,0.59c-0.44,0.09-0.88,0.17-1.3,0.25
		c-0.07,0.18,0.06,0.25,0.13,0.34c0.22,0.27,0.47,0.52,0.65,0.82c0.41,0.69,0.26,1.38-0.38,1.85c-0.28,0.2-0.6,0.38-0.93,0.48
		c-0.55,0.18-1.11,0.3-1.67,0.43c-0.29,0.07-0.59,0.1-0.95,0.16c0.11,0.15,0.19,0.26,0.28,0.36c0.24,0.29,0.51,0.56,0.7,0.87
		c0.4,0.67,0.26,1.33-0.37,1.78c-0.3,0.22-0.65,0.4-1,0.5c-0.67,0.19-1.36,0.31-2.05,0.46c-0.19,0.04-0.39,0.06-0.67,0.11
		c0.14,0.15,0.23,0.25,0.32,0.35c0.25,0.28,0.54,0.53,0.75,0.84c0.5,0.75,0.35,1.45-0.42,1.93c-0.31,0.2-0.67,0.35-1.03,0.45
		c-0.6,0.16-1.22,0.26-1.84,0.38c-0.24,0.05-0.49,0.06-0.72,0.09c-0.11,0.19,0.03,0.25,0.12,0.33c0.25,0.24,0.53,0.46,0.75,0.73
		c0.75,0.9,0.57,1.76-0.48,2.26c-0.38,0.18-0.79,0.32-1.21,0.41c-0.56,0.13-1.13,0.19-1.7,0.28c-0.22,0.03-0.44,0.05-0.73,0.08
		c0.11,0.13,0.18,0.23,0.27,0.31c0.31,0.29,0.66,0.55,0.93,0.87c0.71,0.84,0.53,1.66-0.47,2.13c-0.43,0.2-0.89,0.34-1.35,0.44
		c-0.64,0.13-1.29,0.18-1.93,0.26c-0.17,0.02-0.34,0.04-0.6,0.08c0.18,0.16,0.3,0.26,0.42,0.36c0.29,0.24,0.58,0.48,0.85,0.73
		c0.14,0.14,0.26,0.3,0.36,0.48c0.33,0.58,0.24,1.14-0.31,1.52c-0.3,0.21-0.66,0.35-1.01,0.47c-0.79,0.26-1.62,0.33-2.44,0.4
		c-0.22,0.02-0.45,0.02-0.67,0.04c-0.09,0.01-0.17,0.06-0.32,0.12c0.26,0.18,0.47,0.31,0.66,0.47c0.33,0.27,0.67,0.53,0.95,0.85
		c0.65,0.76,0.48,1.51-0.43,1.95c-0.34,0.16-0.7,0.29-1.07,0.35c-0.81,0.13-1.64,0.2-2.46,0.29c-0.26,0.03-0.53,0.04-0.87,0.06
		c0.13,0.13,0.19,0.21,0.26,0.26c0.27,0.18,0.55,0.34,0.82,0.53c0.2,0.14,0.4,0.3,0.58,0.48c0.96,0.94,0.77,1.79-0.51,2.25
		c-0.26,0.09-0.53,0.17-0.8,0.21c-0.52,0.09-1.04,0.16-1.56,0.21c-0.45,0.04-0.9,0.04-1.35,0.06c-0.22,0.01-0.44,0.03-0.78,0.06
		c0.29,0.17,0.49,0.28,0.67,0.4c0.43,0.29,0.88,0.58,1.29,0.91c0.23,0.18,0.42,0.44,0.56,0.69c0.23,0.41,0.14,0.87-0.23,1.15
		c-0.26,0.19-0.56,0.33-0.86,0.44c-0.67,0.23-1.37,0.3-2.07,0.34c-0.67,0.04-1.35,0.04-2.03,0.06c-0.14,0-0.29,0.03-0.58,0.06
		c0.32,0.19,0.53,0.3,0.72,0.43c0.47,0.29,0.95,0.56,1.39,0.89c0.26,0.19,0.48,0.44,0.66,0.71c0.29,0.44,0.16,0.94-0.27,1.25
		c-0.38,0.27-0.82,0.38-1.26,0.47c-0.86,0.17-1.74,0.21-2.62,0.22c-0.62,0.01-1.24,0-1.86-0.01c-0.02,0.19,0.11,0.23,0.22,0.29
		c0.51,0.26,1.03,0.52,1.53,0.8c0.26,0.15,0.5,0.33,0.74,0.51c0.16,0.12,0.3,0.26,0.43,0.42c0.47,0.59,0.38,1.16-0.29,1.48
		c-0.4,0.19-0.85,0.31-1.29,0.38c-0.99,0.17-1.99,0.17-3,0.15c-0.65-0.01-1.3-0.04-2.01-0.06c0.19,0.25,0.43,0.29,0.63,0.4
		c0.69,0.35,1.39,0.69,2.07,1.06c0.24,0.13,0.46,0.31,0.67,0.48c0.15,0.13,0.28,0.29,0.39,0.45c0.26,0.41,0.19,0.86-0.22,1.11
		c-0.29,0.18-0.63,0.3-0.97,0.38c-0.83,0.2-1.69,0.22-2.54,0.21c-1-0.01-2-0.09-3-0.13c-0.22-0.01-0.44,0-0.69,0
		c0.03,0.2,0.17,0.18,0.26,0.22c0.89,0.4,1.8,0.76,2.67,1.19c0.42,0.2,0.83,0.47,1.19,0.78c0.77,0.66,0.64,1.37-0.33,1.67
		c-0.52,0.16-1.08,0.23-1.62,0.27c-1.4,0.1-2.8,0.01-4.2-0.11c-0.6-0.05-1.2-0.13-1.79-0.19c-0.07-0.01-0.14,0.02-0.22,0.03
		c0.04,0.25,0.25,0.24,0.4,0.29c1.17,0.38,2.32,0.81,3.42,1.35c0.42,0.21,0.84,0.45,1.23,0.72c0.22,0.15,0.41,0.37,0.55,0.6
		c0.2,0.31,0.11,0.64-0.17,0.87c-0.28,0.23-0.62,0.31-0.97,0.37c-0.77,0.13-1.54,0.16-2.32,0.13c-0.98-0.04-1.95-0.11-2.93-0.16
		c-0.12-0.01-0.24,0-0.37,0.06c0.52,0.17,1.03,0.35,1.55,0.52c1.45,0.47,2.89,0.98,4.26,1.67c0.47,0.23,0.93,0.5,1.36,0.79
		c0.24,0.16,0.45,0.4,0.62,0.65c0.23,0.35,0.14,0.77-0.21,0.99c-0.27,0.17-0.59,0.3-0.9,0.35c-0.67,0.1-1.34,0.16-2.01,0.19
		c-0.62,0.02-1.25-0.03-1.88-0.04c-0.12,0-0.26-0.03-0.33,0.16c0.47,0.17,0.93,0.34,1.39,0.51c1.15,0.43,2.29,0.88,3.37,1.47
		c0.37,0.21,0.73,0.43,1.07,0.69c0.21,0.16,0.41,0.38,0.56,0.6c0.24,0.37,0.15,0.79-0.21,1.07c-0.28,0.22-0.62,0.32-0.97,0.39
		c-0.79,0.17-1.59,0.2-2.39,0.21c-0.32,0.01-0.65,0-1.01,0.01c0.12,0.25,0.35,0.28,0.54,0.36c0.97,0.41,1.94,0.8,2.89,1.25
		c0.54,0.26,1.05,0.59,1.54,0.94c0.26,0.18,0.49,0.44,0.66,0.71c0.27,0.42,0.19,0.84-0.23,1.12c-0.26,0.18-0.58,0.3-0.89,0.39
		c-0.7,0.21-1.43,0.23-2.16,0.27C117.89,120.75,117.64,120.76,117.21,120.78z M122.01,12.66c-3.61-0.68-7.13-1.36-10.65-2.01
		c-1.8-0.33-3.6-0.63-5.41-0.94c-1.01-0.17-2.03-0.33-3.05-0.47c-1.79-0.25-3.57-0.5-5.36-0.73c-1.91-0.24-3.83-0.5-5.75-0.68
		c-2.22-0.22-4.44-0.37-6.67-0.54c-2.52-0.18-5.05-0.24-7.58-0.18c-1.53,0.04-3.05,0.12-4.56,0.42c-0.66,0.13-1.31,0.31-1.95,0.53
		c-0.33,0.11-0.64,0.3-0.91,0.51c-0.48,0.38-0.56,0.79-0.27,1.33c0.15,0.28,0.36,0.54,0.58,0.78c0.5,0.54,1.09,0.95,1.69,1.36
		c0.25,0.17,0.48,0.19,0.78,0.13c0.86-0.16,1.72-0.33,2.59-0.42c3.4-0.34,6.8-0.21,10.2-0.01c1.32,0.08,2.65,0.19,3.97,0.3
		c1.17,0.1,2.35,0.21,3.52,0.34c1.34,0.15,2.69,0.31,4.03,0.49c1.81,0.24,3.63,0.47,5.44,0.74c1.44,0.21,2.87,0.45,4.31,0.69
		c2.45,0.42,4.9,0.82,7.33,1.28c2.41,0.45,4.82,0.95,7.22,1.46c2.62,0.56,5.25,1.13,7.86,1.73c2.1,0.49,4.19,1.02,6.28,1.56
		c2.09,0.54,4.17,1.08,6.25,1.67c2.02,0.57,4.04,1.19,6.05,1.82c1.53,0.47,3.07,0.94,4.58,1.48c2.1,0.75,4.19,1.51,6.26,2.34
		c2.88,1.16,5.73,2.4,8.24,4.27c0.17,0.13,0.36,0.17,0.56,0.13c0.79-0.14,1.58-0.3,2.31-0.63c0.27-0.12,0.54-0.28,0.77-0.47
		c0.42-0.35,0.52-0.8,0.26-1.28c-0.18-0.33-0.42-0.63-0.67-0.9c-0.56-0.58-1.22-1.03-1.9-1.46c-2-1.26-4.13-2.25-6.31-3.15
		c-1.6-0.66-3.21-1.29-4.83-1.89c-1.27-0.47-2.55-0.89-3.84-1.32c-1-0.33-2-0.66-3-0.97c-1.31-0.41-2.63-0.83-3.95-1.22
		c-1.71-0.5-3.42-0.98-5.14-1.44c-2.47-0.66-4.93-1.35-7.42-1.94C129.9,14.45,125.91,13.56,122.01,12.66z M134.19,190.82
		c-1.11,0.17-2.04,0.35-2.99,0.45c-3.32,0.35-6.65,0.24-9.98,0.05c-1.68-0.1-3.35-0.24-5.02-0.39c-1.75-0.16-3.49-0.34-5.23-0.54
		c-1.62-0.19-3.23-0.42-4.84-0.65c-2.23-0.32-4.47-0.64-6.69-1.01c-2.42-0.4-4.84-0.87-7.25-1.3c-5.48-0.97-10.91-2.22-16.33-3.48
		c-0.37-0.08-0.73-0.18-1.1-0.27c-1.7-0.43-3.4-0.86-5.1-1.3c-1.94-0.51-3.88-1.02-5.81-1.58c-1.95-0.56-3.89-1.16-5.83-1.77
		c-1.48-0.46-2.97-0.92-4.43-1.45c-2.07-0.75-4.13-1.53-6.19-2.33c-1.7-0.67-3.36-1.44-4.98-2.29c-1.11-0.59-2.17-1.24-3.15-2.01
		c-0.92,0.13-1.8,0.31-2.63,0.67c-0.35,0.15-0.67,0.34-0.93,0.63c-0.24,0.27-0.31,0.58-0.18,0.91c0.09,0.23,0.2,0.47,0.36,0.65
		c0.27,0.32,0.57,0.64,0.9,0.91c0.51,0.4,1.04,0.78,1.59,1.13c2.07,1.29,4.28,2.29,6.53,3.21c1.67,0.68,3.36,1.32,5.05,1.95
		c1.22,0.45,2.46,0.86,3.7,1.27c1.14,0.38,2.29,0.73,3.44,1.09c1.36,0.42,2.73,0.85,4.1,1.25c1.86,0.53,3.72,1.05,5.58,1.53
		c2.96,0.77,5.92,1.54,8.89,2.26c2.58,0.62,5.18,1.19,7.78,1.74c7.29,1.54,14.6,2.92,21.98,3.93c2.51,0.34,5.02,0.67,7.53,0.96
		c2.22,0.25,4.44,0.44,6.66,0.63c2.75,0.24,5.5,0.34,8.26,0.32c1.8-0.02,3.61-0.08,5.39-0.39c0.62-0.11,1.23-0.25,1.83-0.42
		c0.36-0.1,0.71-0.26,1.03-0.45c0.82-0.49,0.94-1.1,0.37-1.88c-0.21-0.28-0.45-0.55-0.71-0.77
		C135.24,191.6,134.68,191.19,134.19,190.82z M166.38,32.27c-0.21-0.2-0.27-0.28-0.35-0.33c-0.36-0.23-0.71-0.47-1.07-0.69
		c-2.51-1.48-5.19-2.6-7.9-3.65c-1.45-0.56-2.91-1.08-4.38-1.59c-1.47-0.51-2.94-1-4.42-1.47c-1.31-0.42-2.64-0.81-3.96-1.19
		c-1.73-0.51-3.46-1.01-5.2-1.49c-1.45-0.4-2.91-0.77-4.37-1.13c-2.65-0.65-5.3-1.33-7.97-1.92c-5.58-1.25-11.17-2.43-16.81-3.39
		c-1.73-0.29-3.46-0.6-5.19-0.88c-0.99-0.16-1.98-0.31-2.97-0.45c-1.71-0.24-3.43-0.47-5.14-0.68c-1.82-0.22-3.63-0.46-5.45-0.63
		c-2.14-0.2-4.29-0.34-6.44-0.48c-2.37-0.16-4.75-0.19-7.13-0.1c-1.2,0.05-2.4,0.14-3.58,0.35c-0.21,0.04-0.46-0.01-0.61,0.22
		c0.03,0.04,0.05,0.09,0.09,0.11c0.37,0.21,0.74,0.41,1.12,0.61c2.24,1.18,4.59,2.12,6.94,3.04c0.16,0.06,0.34,0.09,0.51,0.1
		c2,0.1,4,0.17,6,0.3c1.45,0.09,2.9,0.24,4.34,0.39c1.32,0.14,2.64,0.3,3.96,0.46c1.74,0.22,3.48,0.44,5.22,0.69
		c1.34,0.19,2.68,0.41,4.01,0.64c2.18,0.36,4.35,0.71,6.52,1.11c5.25,0.97,10.48,2.07,15.68,3.28c1.86,0.43,3.71,0.88,5.55,1.36
		c2.11,0.55,4.21,1.13,6.31,1.71c1.55,0.43,3.09,0.85,4.62,1.33c2.03,0.63,4.05,1.31,6.07,1.98c2.12,0.7,4.2,1.49,6.26,2.33
		c0.2,0.08,0.43,0.15,0.65,0.16c2.05,0.09,4.1,0.14,6.16,0.07C164.37,32.42,165.29,32.34,166.38,32.27z M133.14,190.39
		c-0.09-0.34-0.38-0.38-0.58-0.49c-2.34-1.26-4.79-2.28-7.26-3.25c-0.4-0.16-0.82-0.23-1.25-0.23c-2.61-0.04-5.21-0.22-7.8-0.47
		c-2.64-0.25-5.28-0.55-7.92-0.89c-2.49-0.32-4.97-0.68-7.44-1.1c-3.41-0.57-6.82-1.18-10.22-1.83c-4.26-0.81-8.5-1.74-12.71-2.77
		c-1.9-0.46-3.8-0.92-5.7-1.4c-1.05-0.26-2.09-0.54-3.12-0.83c-1.74-0.49-3.47-0.98-5.21-1.48c-1.3-0.38-2.6-0.76-3.89-1.18
		c-1.46-0.47-2.91-0.95-4.34-1.46c-1.79-0.64-3.57-1.32-5.35-2c-0.52-0.2-1.04-0.34-1.6-0.35c-1.33-0.03-2.65-0.09-3.98-0.07
		c-1.35,0.02-2.7,0.12-4.05,0.18c-0.14,0.01-0.27,0.07-0.48,0.12c0.2,0.16,0.33,0.28,0.47,0.37c0.51,0.32,1.02,0.64,1.54,0.93
		c3.08,1.69,6.35,2.97,9.64,4.17c1.27,0.46,2.55,0.9,3.84,1.32c1.64,0.54,3.29,1.08,4.94,1.58c1.56,0.47,3.13,0.91,4.7,1.35
		c2.17,0.6,4.35,1.21,6.53,1.76c2.33,0.59,4.68,1.12,7.02,1.68c5.51,1.34,11.08,2.39,16.65,3.43c1.53,0.28,3.06,0.54,4.6,0.78
		c2.15,0.34,4.31,0.65,6.47,0.96c1.56,0.22,3.13,0.45,4.7,0.62c2.14,0.24,4.29,0.44,6.43,0.64c2.94,0.28,5.9,0.42,8.85,0.43
		c1.85,0,3.7-0.06,5.54-0.35C132.49,190.52,132.81,190.45,133.14,190.39z M122.56,185.77c0.01-0.04,0.02-0.08,0.03-0.13
		c-0.8-0.28-1.6-0.57-2.41-0.84c-1-0.34-2-0.67-3-0.99c-1.26-0.4-2.53-0.81-3.8-1.19c-1.56-0.47-3.13-0.91-4.7-1.35
		c-1.35-0.38-2.7-0.75-4.06-1.11c-1.55-0.41-3.11-0.78-4.66-1.19c-1.38-0.37-2.78-0.67-4.18-0.93c-2.1-0.39-4.19-0.77-6.28-1.2
		c-2.87-0.59-5.75-1.16-8.6-1.87c-2.78-0.69-5.6-1.15-8.41-1.65c-1.09-0.19-2.18-0.35-3.27-0.51c-1.89-0.27-3.77-0.53-5.66-0.79
		c-1.39-0.19-2.78-0.37-4.18-0.52c-1.72-0.19-3.44-0.34-5.16-0.5c-0.79-0.07-1.58-0.11-2.38-0.17c0.2,0.19,0.41,0.32,0.64,0.4
		c1.72,0.62,3.43,1.27,5.17,1.84c2.53,0.82,5.06,1.62,7.61,2.36c2.41,0.7,4.82,1.37,7.25,1.98c3.16,0.8,6.33,1.56,9.5,2.29
		c5.11,1.17,10.26,2.16,15.41,3.08c1.18,0.21,2.37,0.41,3.56,0.6c1.11,0.18,2.23,0.35,3.35,0.51c1.24,0.18,2.48,0.36,3.72,0.52
		c1.39,0.18,2.78,0.37,4.18,0.52c1.64,0.18,3.29,0.33,4.94,0.48c1.3,0.11,2.6,0.2,3.9,0.29
		C121.57,185.75,122.07,185.75,122.56,185.77z M83.95,17.28c0.13,0.11,0.17,0.17,0.24,0.2c0.16,0.07,0.32,0.14,0.49,0.2
		c0.52,0.18,1.04,0.36,1.57,0.53c2.27,0.73,4.53,1.46,6.8,2.18c0.72,0.23,1.44,0.44,2.16,0.65c1.01,0.3,2.02,0.59,3.03,0.87
		c1.21,0.33,2.42,0.66,3.63,0.97c1.89,0.49,3.78,1.01,5.69,1.44c2.13,0.48,4.27,0.89,6.41,1.29c3.35,0.63,6.69,1.3,10.01,2.1
		c3.68,0.89,7.4,1.62,11.14,2.2c1.07,0.17,2.13,0.33,3.2,0.48c1.86,0.26,3.72,0.52,5.59,0.76c1.32,0.17,2.64,0.33,3.96,0.47
		c1.22,0.13,2.44,0.25,3.67,0.36c0.9,0.08,1.8,0.15,2.7,0.22c0.16,0.01,0.33-0.03,0.49-0.05c-1.71-0.71-3.41-1.36-5.15-1.94
		c-2.35-0.78-4.72-1.53-7.1-2.24c-2.16-0.65-4.34-1.25-6.52-1.83c-2.4-0.64-4.8-1.25-7.22-1.82c-2.9-0.68-5.81-1.35-8.74-1.95
		c-3.64-0.74-7.29-1.41-10.93-2.09c-1.73-0.32-3.46-0.6-5.19-0.88c-1.04-0.17-2.08-0.32-3.12-0.46c-1.64-0.22-3.28-0.43-4.92-0.64
		c-1.29-0.16-2.59-0.33-3.88-0.45c-1.92-0.18-3.84-0.33-5.77-0.47C85.46,17.33,84.74,17.32,83.95,17.28z M150.96,36.15
		c0-0.04,0.01-0.08,0.01-0.12c-0.51-0.19-1.03-0.39-1.54-0.57c-1.32-0.46-2.65-0.92-3.98-1.36c-1.21-0.4-2.44-0.77-3.66-1.13
		c-1.56-0.47-3.12-0.93-4.69-1.38c-1.28-0.36-2.57-0.68-3.85-1.02c-2.23-0.59-4.46-1.14-6.73-1.56c-5.17-0.96-10.32-2.06-15.45-3.23
		c-1.37-0.31-2.73-0.63-4.12-0.84c-1.49-0.23-2.97-0.49-4.45-0.73c-0.92-0.15-1.83-0.28-2.75-0.4c-1.59-0.21-3.18-0.41-4.77-0.6
		c-1.22-0.15-2.44-0.29-3.66-0.4c-1.47-0.14-2.94-0.24-4.42-0.35c-0.35-0.03-0.69-0.03-1.21-0.04c0.24,0.12,0.31,0.16,0.4,0.19
		c0.52,0.18,1.04,0.37,1.56,0.54c1.09,0.36,2.19,0.73,3.29,1.07c1.34,0.42,2.68,0.82,4.03,1.21c1.8,0.52,3.61,1.04,5.42,1.54
		c1.47,0.4,2.96,0.77,4.44,1.14c2.43,0.6,4.86,1.23,7.31,1.77c5.14,1.14,10.28,2.26,15.47,3.14c1.93,0.33,3.85,0.68,5.78,1
		c1.09,0.18,2.18,0.34,3.27,0.5c1.24,0.18,2.48,0.36,3.72,0.52c1.39,0.18,2.78,0.36,4.18,0.52c1.32,0.15,2.64,0.28,3.96,0.41
		C149.32,36.04,150.14,36.09,150.96,36.15z M55.78,166.89c-0.02,0.04-0.04,0.08-0.06,0.12c0.07,0.06,0.14,0.13,0.22,0.16
		c0.23,0.09,0.47,0.17,0.71,0.25c1.4,0.48,2.79,0.97,4.19,1.44c1.12,0.37,2.24,0.72,3.37,1.06c1.53,0.46,3.07,0.92,4.61,1.36
		c1.16,0.33,2.32,0.63,3.48,0.94c2.97,0.81,5.97,1.54,9.01,2.08c4.47,0.79,8.9,1.74,13.32,2.79c1.66,0.39,3.31,0.79,5,1.04
		c1.51,0.22,3.02,0.48,4.53,0.71c1.76,0.26,3.52,0.53,5.28,0.75c1.86,0.23,3.73,0.43,5.6,0.61c1.74,0.17,3.49,0.29,5.24,0.44
		c0.12,0.01,0.25,0.01,0.31-0.17c-1.28-0.43-2.56-0.88-3.84-1.28c-2.18-0.68-4.35-1.35-6.55-1.98c-2.51-0.71-5.02-1.41-7.55-2.04
		c-3.7-0.92-7.4-1.8-11.12-2.63c-6.19-1.38-12.42-2.54-18.69-3.52c-2.08-0.32-4.16-0.63-6.24-0.94c-0.74-0.11-1.49-0.2-2.24-0.29
		c-1.37-0.16-2.74-0.32-4.11-0.46C58.77,167.18,57.28,167.04,55.78,166.89z M82.17,47.66c0.33,0.17,0.5,0.27,0.68,0.35
		c2.19,0.93,4.41,1.77,6.67,2.52c1.05,0.35,2.1,0.69,3.15,1.01c1.41,0.44,2.83,0.86,4.25,1.27c0.38,0.11,0.78,0.16,1.18,0.22
		c1.14,0.17,2.29,0.3,3.42,0.48c1.9,0.31,3.8,0.66,5.71,0.98c4.68,0.79,9.29,1.87,13.9,2.98c1.41,0.34,2.81,0.76,4.22,1.11
		c1.48,0.37,2.92,0.89,4.46,1.02c2.1,0.17,4.18,0.46,6.28,0.68c2.37,0.25,4.74,0.37,7.12,0.39c0.29,0,0.57-0.01,0.91-0.02
		c-0.07-0.1-0.1-0.15-0.13-0.17c-0.1-0.07-0.21-0.13-0.32-0.19c-1.62-0.8-3.29-1.49-4.98-2.11c-1.34-0.49-2.69-0.96-4.04-1.42
		c-0.54-0.19-1.09-0.38-1.65-0.49c-0.61-0.13-1.24-0.17-1.86-0.26c-2.08-0.3-4.17-0.57-6.25-0.92c-2.5-0.42-4.99-0.88-7.47-1.36
		c-5.15-0.98-10.26-2.13-15.34-3.41c-1.12-0.28-2.23-0.58-3.34-0.89c-1.5-0.42-2.99-0.86-4.48-1.29c-0.17-0.05-0.34-0.07-0.52-0.08
		c-1.85-0.16-3.69-0.33-5.54-0.46c-1.8-0.12-3.6-0.15-5.4-0.06C82.64,47.57,82.49,47.61,82.17,47.66z M124.31,155.42
		c-0.14-0.12-0.19-0.17-0.26-0.2c-0.27-0.13-0.55-0.25-0.82-0.36c-1.33-0.53-2.65-1.07-3.99-1.56c-1.34-0.49-2.7-0.93-4.06-1.36
		c-1.19-0.38-2.39-0.74-3.59-1.11c-1.12-0.35-2.25-0.7-3.43-0.83c-0.67-0.07-1.34-0.17-2.01-0.28c-2.2-0.36-4.41-0.69-6.6-1.1
		c-5.25-0.97-10.47-2.1-15.64-3.41c-1.04-0.27-2.09-0.54-3.12-0.84c-1.35-0.39-2.7-0.77-4.1-0.93c-0.47-0.05-0.95-0.11-1.42-0.16
		c-1.27-0.15-2.54-0.31-3.81-0.43c-1.42-0.13-2.84-0.25-4.27-0.32c-1.47-0.08-2.95-0.1-4.43-0.14c-0.09,0-0.17,0.05-0.37,0.1
		c0.28,0.17,0.46,0.29,0.65,0.38c2.1,1,4.27,1.85,6.47,2.62c1.04,0.36,2.08,0.72,3.13,1.05c0.48,0.15,0.97,0.26,1.46,0.34
		c1.81,0.26,3.63,0.46,5.43,0.76c3.04,0.5,6.08,1.01,9.11,1.59c2.68,0.51,5.36,1.07,8.02,1.67c2.76,0.62,5.51,1.3,8.26,2
		c2.28,0.58,4.54,1.25,6.81,1.86c0.46,0.12,0.93,0.24,1.4,0.28c1.85,0.16,3.69,0.31,5.54,0.44c1.6,0.1,3.2,0.12,4.8,0.06
		C123.72,155.51,123.94,155.47,124.31,155.42z M125.58,160.43c0.01-0.05,0.01-0.09,0.02-0.14c-0.97-0.41-1.92-0.86-2.9-1.23
		c-1.73-0.66-3.47-1.3-5.22-1.9c-1.59-0.55-3.19-1.04-4.79-1.55c-0.26-0.08-0.54-0.12-0.81-0.15c-1.54-0.2-3.09-0.37-4.63-0.58
		c-1.29-0.18-2.58-0.38-3.86-0.6c-2.57-0.44-5.14-0.87-7.7-1.36c-3.57-0.69-7.12-1.45-10.65-2.35c-1.6-0.41-3.21-0.8-4.81-1.21
		c-0.87-0.22-1.74-0.47-2.61-0.72c-1.37-0.4-2.73-0.83-4.1-1.23c-0.19-0.06-0.39-0.09-0.59-0.11c-1.47-0.16-2.94-0.34-4.41-0.47
		c-2.35-0.21-4.69-0.37-7.05-0.41c-0.74-0.01-1.48,0.01-2.38,0.01c0.23,0.18,0.34,0.28,0.46,0.34c1.23,0.57,2.44,1.17,3.69,1.68
		c1.43,0.59,2.9,1.11,4.36,1.65c0.49,0.18,0.99,0.36,1.5,0.47c0.56,0.11,1.14,0.14,1.72,0.21c1.67,0.21,3.33,0.41,5,0.64
		c1.34,0.19,2.68,0.41,4.01,0.63c2.62,0.45,5.24,0.87,7.85,1.39c4.7,0.92,9.39,1.88,14.03,3.07c2.4,0.61,4.81,1.24,7.21,1.87
		c0.75,0.2,1.5,0.42,2.24,0.64c1.25,0.38,2.49,0.76,3.74,1.14c0.17,0.05,0.34,0.07,0.52,0.09c1.62,0.11,3.25,0.23,4.87,0.31
		c1.63,0.08,3.25,0.08,4.88-0.04C125.3,160.49,125.44,160.46,125.58,160.43z M147.51,56.61c-0.29-0.18-0.45-0.3-0.62-0.38
		c-1.3-0.59-2.59-1.21-3.91-1.75c-1.34-0.55-2.73-1-4.08-1.53c-0.83-0.32-1.68-0.49-2.55-0.59c-1.62-0.19-3.23-0.39-4.85-0.61
		c-1.22-0.17-2.43-0.36-3.64-0.56c-2.28-0.38-4.55-0.76-6.82-1.16c-1.11-0.19-2.22-0.43-3.32-0.64c-5.3-1-10.54-2.25-15.77-3.55
		c-1.05-0.26-2.09-0.55-3.12-0.83c-1.09-0.3-2.17-0.61-3.26-0.92c-0.94-0.27-1.87-0.55-2.81-0.84c-0.74-0.23-1.49-0.44-2.27-0.49
		c-1.3-0.08-2.6-0.17-3.9-0.23c-1.7-0.08-3.4-0.09-5.11,0.02c-0.18,0.01-0.36,0.06-0.63,0.11c0.22,0.13,0.34,0.22,0.48,0.28
		c1.01,0.43,2.02,0.88,3.05,1.28c1.43,0.55,2.86,1.07,4.31,1.56c1.56,0.54,3.14,1.05,4.72,1.54c0.57,0.18,1.17,0.27,1.77,0.35
		c0.84,0.12,1.7,0.18,2.54,0.3c2.75,0.41,5.51,0.79,8.25,1.28c3.8,0.68,7.6,1.37,11.36,2.27c2.54,0.61,5.07,1.2,7.61,1.83
		c1.24,0.31,2.47,0.67,3.7,1.02c1.33,0.38,2.64,0.79,3.97,1.16c0.58,0.16,1.17,0.28,1.77,0.34c2.02,0.21,4.04,0.39,6.06,0.57
		c1.95,0.17,3.9,0.23,5.85,0.24C146.62,56.66,147,56.63,147.51,56.61z M83.79,52.64c-0.01,0.04-0.02,0.09-0.02,0.13
		c0.09,0.04,0.17,0.1,0.26,0.13c0.93,0.37,1.85,0.77,2.79,1.11c1.67,0.6,3.35,1.19,5.04,1.74c1.33,0.44,2.68,0.82,4.03,1.21
		c1.86,0.53,3.72,1.03,5.58,1.54c0.19,0.05,0.39,0.08,0.59,0.12c1.88,0.32,3.76,0.61,5.63,0.97c4.68,0.88,9.33,1.91,13.94,3.13
		c0.29,0.08,0.59,0.12,0.89,0.17c1.29,0.2,2.58,0.39,3.87,0.57c1.51,0.21,3.03,0.42,4.55,0.59c1.57,0.17,3.14,0.32,4.72,0.43
		c1.6,0.11,3.2,0.16,4.8,0.23c0.09,0,0.21,0.04,0.25-0.16c-0.08-0.05-0.17-0.12-0.27-0.17c-1.76-0.85-3.58-1.56-5.43-2.2
		c-1.51-0.53-3.04-1.02-4.56-1.52c-0.67-0.22-1.33-0.44-2.02-0.6c-0.66-0.15-1.33-0.22-2-0.33c-2.52-0.42-5.05-0.79-7.56-1.27
		c-7.07-1.35-14.11-2.84-21.04-4.8c-0.31-0.09-0.63-0.17-0.95-0.21c-1.19-0.15-2.39-0.3-3.58-0.41c-1.45-0.14-2.9-0.25-4.34-0.35
		c-1.62-0.11-3.25-0.15-4.88-0.1C83.97,52.6,83.88,52.63,83.79,52.64z M122.81,150.47c0.01-0.04,0.03-0.09,0.04-0.13
		c-0.13-0.07-0.25-0.17-0.38-0.22c-0.91-0.36-1.81-0.74-2.73-1.07c-1.6-0.57-3.21-1.14-4.83-1.66c-1.5-0.49-3.02-0.93-4.53-1.38
		c-1.11-0.33-2.21-0.65-3.33-0.94c-0.92-0.24-1.85-0.47-2.78-0.65c-2.44-0.46-4.89-0.86-7.32-1.36c-3.02-0.62-6.04-1.26-9.04-1.97
		c-2.12-0.5-4.24-1.01-6.4-1.31c-2.93-0.41-5.86-0.8-8.8-1.06c-2.1-0.19-4.19-0.32-6.3-0.37c-0.22,0-0.45-0.05-0.67,0.12
		c0.19,0.1,0.35,0.21,0.53,0.29c2.33,1.06,4.72,1.96,7.14,2.76c1.14,0.38,2.29,0.75,3.44,1.09c0.74,0.22,1.5,0.41,2.26,0.57
		c0.69,0.14,1.39,0.2,2.08,0.32c3.09,0.53,6.18,1.05,9.26,1.63c4.31,0.81,8.59,1.8,12.85,2.84c1.46,0.36,2.91,0.77,4.36,1.15
		c0.92,0.24,1.84,0.49,2.79,0.6c1.07,0.12,2.14,0.25,3.21,0.35c2.09,0.19,4.19,0.36,6.3,0.41
		C120.91,150.5,121.86,150.47,122.81,150.47z M79.51,37.62c0.26,0.16,0.35,0.24,0.45,0.29c1.63,0.78,3.3,1.46,4.98,2.09
		c1.53,0.57,3.08,1.06,4.61,1.62c1.3,0.48,2.64,0.74,4.02,0.85c1.4,0.11,2.79,0.32,4.18,0.51c2.06,0.28,4.12,0.57,6.18,0.89
		c3.44,0.54,6.86,1.21,10.27,1.92c2.7,0.57,5.39,1.15,8.08,1.78c2.15,0.5,4.28,1.07,6.41,1.63c1.48,0.39,2.95,0.82,4.41,1.25
		c1.46,0.44,2.92,0.91,4.38,1.36c0.17,0.05,0.34,0.1,0.51,0.12c0.82,0.09,1.64,0.2,2.47,0.26c1.67,0.13,3.35,0.26,5.02,0.33
		c1.57,0.06,3.15,0.05,4.73,0.06c0.11,0,0.22-0.06,0.42-0.11c-0.19-0.11-0.29-0.18-0.39-0.24c-0.8-0.41-1.6-0.83-2.42-1.21
		c-1.82-0.83-3.7-1.54-5.58-2.22c-0.33-0.12-0.68-0.17-1.03-0.21c-1.87-0.22-3.74-0.38-5.6-0.63c-2.43-0.32-4.87-0.66-7.29-1.07
		c-3.44-0.58-6.86-1.21-10.29-1.86c-4.12-0.77-8.18-1.77-12.26-2.71c-0.2-0.05-0.39-0.1-0.58-0.15c-1.55-0.4-3.11-0.8-4.66-1.21
		c-1.84-0.49-3.67-1-5.51-1.51c-0.68-0.19-1.35-0.4-2.01-0.61c-1.15-0.36-2.29-0.73-3.44-1.09c-0.28-0.09-0.59-0.15-0.88-0.16
		c-1.97-0.12-3.95-0.23-5.93-0.2C81.73,37.43,80.71,37.45,79.51,37.62z M127.06,165.41c-0.3-0.16-0.48-0.26-0.66-0.35
		c-3.55-1.65-7.24-2.92-10.96-4.13c-0.35-0.11-0.73-0.17-1.1-0.22c-1.87-0.22-3.74-0.38-5.6-0.63c-2.73-0.38-5.46-0.78-8.17-1.25
		c-2.77-0.47-5.52-1.01-8.27-1.56c-3.71-0.74-7.4-1.61-11.06-2.56c-2.11-0.55-4.21-1.12-6.32-1.68c-0.73-0.2-1.45-0.41-2.16-0.64
		c-1.17-0.37-2.33-0.76-3.51-1.12c-0.4-0.12-0.83-0.2-1.25-0.24c-1.85-0.16-3.69-0.31-5.54-0.44c-1.97-0.14-3.95-0.17-5.93-0.14
		c-0.18,0-0.35,0.05-0.67,0.1c0.43,0.24,0.73,0.42,1.04,0.58c2.32,1.2,4.75,2.14,7.19,3.03c0.4,0.14,0.82,0.23,1.24,0.28
		c0.97,0.12,1.94,0.2,2.91,0.32c1.54,0.19,3.08,0.39,4.62,0.61c2.28,0.33,4.57,0.64,6.84,1.03c2.82,0.48,5.62,1.01,8.43,1.56
		c4.94,0.97,9.86,2.06,14.75,3.28c1.24,0.31,2.48,0.63,3.71,0.97c1.88,0.52,3.77,1.04,5.64,1.59c1.3,0.38,2.59,0.79,3.87,1.2
		c0.81,0.26,1.63,0.5,2.5,0.48c0.1,0,0.2,0.01,0.3,0.02c2,0.14,4,0.18,6,0.11C125.57,165.59,126.25,165.59,127.06,165.41z
		 M137.56,68.66c-0.81-0.44-1.55-0.73-2.28-1.02c-2.87-1.13-5.79-2.11-8.75-2.95c-0.84-0.24-1.68-0.5-2.53-0.72
		c-0.92-0.24-1.84-0.49-2.77-0.68c-1.65-0.32-3.31-0.57-4.96-0.9c-3.19-0.65-6.38-1.33-9.57-2c-0.64-0.13-1.27-0.29-1.9-0.46
		c-1.92-0.49-3.84-0.93-5.82-1.18c-2.26-0.29-4.52-0.58-6.79-0.79c-2.05-0.19-4.09-0.31-6.15-0.33c-0.28,0-0.57-0.01-0.95,0.06
		c0.19,0.13,0.29,0.21,0.4,0.25c0.63,0.25,1.25,0.51,1.89,0.73c1.68,0.58,3.36,1.18,5.05,1.71c2.15,0.67,4.31,1.32,6.49,1.91
		c2.22,0.61,4.46,1.17,6.71,1.69c5.84,1.36,11.72,2.5,17.64,3.4c0.79,0.12,1.59,0.24,2.38,0.33c1.92,0.22,3.83,0.47,5.75,0.64
		c1.87,0.17,3.75,0.26,5.62,0.38C137.15,68.74,137.3,68.69,137.56,68.66z M69.12,134.32c0.59,0.51,1.25,0.74,1.89,1
		c2.74,1.1,5.54,2.05,8.38,2.87c0.89,0.26,1.77,0.54,2.67,0.79c0.94,0.26,1.88,0.55,2.84,0.74c1.62,0.33,3.25,0.59,4.88,0.87
		c4.96,0.88,9.87,2.01,14.76,3.23c0.32,0.08,0.64,0.13,0.96,0.18c0.42,0.07,0.84,0.13,1.26,0.19c1.56,0.21,3.13,0.44,4.69,0.62
		c1.57,0.18,3.14,0.33,4.71,0.43c1.57,0.1,3.15,0.14,4.72,0.19c0.18,0.01,0.35-0.05,0.59-0.09c-0.11-0.07-0.15-0.11-0.19-0.13
		c-1.89-0.8-3.83-1.48-5.78-2.12c-1.19-0.39-2.39-0.76-3.59-1.11c-1.75-0.51-3.51-1.04-5.28-1.5c-2.08-0.54-4.19-1.02-6.28-1.54
		c-4.19-1.04-8.43-1.79-12.67-2.58c-0.2-0.04-0.4-0.07-0.59-0.1c-2.2-0.33-4.41-0.67-6.62-0.98c-1.36-0.19-2.73-0.36-4.1-0.5
		c-1.49-0.15-2.99-0.26-4.49-0.37C70.96,134.37,70.04,134.35,69.12,134.32z M128.2,170.45c-0.04-0.09-0.05-0.13-0.06-0.14
		c-0.1-0.07-0.2-0.14-0.31-0.2c-3.23-1.57-6.59-2.79-9.98-3.94c-0.53-0.18-1.07-0.24-1.62-0.28c-1.12-0.1-2.25-0.19-3.37-0.31
		c-1.42-0.16-2.84-0.33-4.25-0.53c-2.08-0.29-4.17-0.56-6.25-0.91c-2.55-0.42-5.08-0.91-7.62-1.37c-4.27-0.76-8.48-1.79-12.71-2.75
		c-0.2-0.04-0.39-0.1-0.58-0.15c-1.53-0.4-3.06-0.78-4.58-1.19c-1.74-0.47-3.49-0.93-5.21-1.45c-2.11-0.64-4.2-1.34-6.29-2.02
		c-0.58-0.19-1.16-0.31-1.77-0.34c-1.97-0.12-3.95-0.27-5.92-0.35c-1.47-0.06-2.95-0.01-4.43,0c-0.14,0-0.28,0.06-0.52,0.12
		c0.41,0.24,0.73,0.43,1.06,0.61c1.9,1.02,3.89,1.84,5.9,2.62c0.61,0.24,1.21,0.45,1.88,0.5c1.67,0.14,3.34,0.3,5.01,0.5
		c1.57,0.18,3.13,0.4,4.69,0.62c2.26,0.33,4.52,0.64,6.76,1.02c2.59,0.44,5.18,0.93,7.77,1.42c5.71,1.08,11.38,2.36,17.03,3.77
		c1.22,0.3,2.43,0.63,3.64,0.95c1.23,0.33,2.47,0.67,3.69,1.03c1.4,0.4,2.79,0.8,4.18,1.23c1.55,0.49,3.09,1.01,4.65,1.51
		c0.31,0.1,0.63,0.17,0.95,0.19c1.83,0.09,3.65,0.15,5.48,0.09C126.32,170.64,127.25,170.61,128.2,170.45z M153.76,48.51
		c-0.1-0.12-0.14-0.21-0.21-0.25c-0.3-0.18-0.61-0.35-0.92-0.51c-1.98-1.03-4.03-1.9-6.12-2.67c-0.35-0.13-0.68-0.29-1.07-0.33
		c-2.72-0.27-5.44-0.54-8.15-0.87c-2.41-0.3-4.82-0.65-7.22-1.05c-3.44-0.58-6.87-1.18-10.29-1.84c-5.2-1-10.35-2.18-15.48-3.47
		c-3.33-0.84-6.65-1.73-9.94-2.7c-2.33-0.69-4.65-1.41-6.95-2.2c-0.21-0.07-0.44-0.1-0.66-0.11c-1.3-0.05-2.6-0.1-3.9-0.12
		c-1.4-0.02-2.8,0.03-4.2,0.2c-0.1,0.01-0.18,0.09-0.31,0.17c0.13,0.07,0.19,0.11,0.25,0.15c1.79,0.9,3.64,1.67,5.52,2.37
		c1.6,0.59,3.21,1.15,4.81,1.71c0.26,0.09,0.53,0.13,0.8,0.15c0.57,0.06,1.15,0.09,1.72,0.15c1.2,0.12,2.39,0.25,3.59,0.39
		c1.59,0.19,3.19,0.38,4.77,0.6c1.32,0.18,2.63,0.39,3.94,0.62c2.59,0.44,5.19,0.86,7.78,1.37c4.48,0.88,8.95,1.79,13.37,2.92
		c1.58,0.4,3.16,0.79,4.74,1.19c0.97,0.25,1.94,0.52,2.9,0.8c1.47,0.43,2.93,0.86,4.39,1.31c1.2,0.37,2.38,0.78,3.58,1.15
		c0.74,0.23,1.45,0.51,2.24,0.57c2.72,0.22,5.45,0.39,8.18,0.42C151.84,48.61,152.77,48.61,153.76,48.51z M146.96,40.04
		c-0.07-0.09-0.09-0.15-0.13-0.17c-0.3-0.12-0.61-0.23-0.91-0.34c-2.55-0.92-5.13-1.71-7.73-2.47c-2.26-0.67-4.53-1.31-6.81-1.88
		c-3.52-0.88-7.06-1.73-10.6-2.54c-4.3-0.99-8.64-1.78-12.98-2.56c-1.36-0.24-2.72-0.46-4.08-0.67c-1.34-0.21-2.68-0.4-4.02-0.59
		c-1.51-0.21-3.03-0.42-4.55-0.6c-1.34-0.16-2.69-0.29-4.04-0.42c-0.92-0.09-1.85-0.16-2.77-0.24c-0.15-0.01-0.32-0.03-0.47,0.12
		C104.87,33.46,131.06,38.75,146.96,40.04z M59.64,163.13c0.03,0.03,0.05,0.08,0.09,0.09c1.23,0.42,2.46,0.85,3.7,1.26
		c1.21,0.39,2.44,0.77,3.66,1.13c1.63,0.49,3.27,0.97,4.91,1.43c1.33,0.37,2.66,0.71,4,1.05c2.5,0.62,5,1.27,7.52,1.83
		c4.99,1.11,9.99,2.19,15.03,3.02c2.5,0.41,4.99,0.82,7.49,1.22c0.82,0.13,1.64,0.23,2.46,0.34c1.44,0.18,2.88,0.35,4.33,0.51
		c1.54,0.17,3.09,0.31,4.64,0.46c0.36,0.03,0.73,0.04,1.11,0.06c-0.06-0.21-0.22-0.25-0.35-0.29c-0.26-0.09-0.53-0.16-0.79-0.24
		c-2.37-0.73-4.73-1.5-7.11-2.19c-2.48-0.72-4.97-1.38-7.47-2.02c-4.05-1.04-8.13-1.98-12.23-2.85c-2.94-0.62-5.89-1.2-8.85-1.74
		c-2.98-0.55-5.97-1.03-8.96-1.54c-0.89-0.15-1.78-0.28-2.68-0.39c-1.61-0.21-3.23-0.42-4.85-0.62c-1.72-0.2-3.43-0.39-5.15-0.58
		C59.96,163.02,59.78,162.97,59.64,163.13z M49.61,158.62c0.31,0.38,0.65,0.51,0.94,0.67c1.99,1.11,4.1,1.99,6.21,2.83
		c0.14,0.05,0.29,0.09,0.44,0.1c1.32,0.12,2.65,0.22,3.97,0.34c1.27,0.12,2.54,0.25,3.81,0.41c1.57,0.19,3.13,0.4,4.69,0.63
		c2.31,0.33,4.62,0.66,6.91,1.05c2.64,0.45,5.28,0.96,7.92,1.44c6.19,1.13,12.31,2.59,18.42,4.09c1.14,0.28,2.28,0.59,3.42,0.9
		c1.76,0.49,3.52,0.99,5.28,1.49c1.35,0.39,2.7,0.78,4.03,1.21c1.81,0.58,3.61,1.21,5.42,1.81c0.19,0.06,0.39,0.1,0.59,0.1
		c1.25,0.03,2.5,0.06,3.75,0.05c1.25-0.01,2.5-0.07,3.74-0.25c0.13-0.02,0.25-0.02,0.27-0.22c-0.8-0.44-1.64-0.82-2.49-1.2
		c-2.13-0.95-4.31-1.76-6.5-2.56c-0.68-0.25-1.38-0.42-2.11-0.46c-1.27-0.07-2.55-0.2-3.82-0.31c-1.05-0.1-2.09-0.21-3.14-0.34
		c-1.62-0.19-3.23-0.39-4.85-0.61c-1.29-0.18-2.58-0.39-3.86-0.6c-2.08-0.34-4.16-0.67-6.23-1.05c-4.61-0.86-9.19-1.84-13.76-2.88
		c-0.59-0.13-1.17-0.28-1.75-0.42c-1.68-0.42-3.35-0.85-5.03-1.28c-1.16-0.3-2.33-0.6-3.49-0.93c-2-0.58-3.99-1.18-5.97-1.81
		c-1.58-0.5-3.13-1.05-4.7-1.57c-0.45-0.15-0.9-0.35-1.36-0.39c-2.64-0.24-5.3-0.37-7.95-0.35C51.52,158.5,50.63,158.5,49.61,158.62
		z M77.05,27.74c0.36,0.19,0.71,0.38,1.07,0.55c2.83,1.36,5.76,2.45,8.71,3.5c0.23,0.08,0.49,0.13,0.73,0.16
		c0.82,0.07,1.65,0.11,2.47,0.19c1.62,0.15,3.24,0.29,4.86,0.47c1.57,0.18,3.13,0.39,4.7,0.62c2.33,0.34,4.67,0.66,6.99,1.07
		c3.31,0.59,6.6,1.23,9.9,1.88c4.72,0.93,9.4,2.08,14.06,3.28c0.95,0.24,1.89,0.49,2.83,0.77c2.07,0.61,4.14,1.2,6.19,1.85
		c1.96,0.62,3.89,1.31,5.84,1.95c0.35,0.12,0.73,0.2,1.1,0.22c1.55,0.1,3.1,0.19,4.65,0.26c1.73,0.08,3.45,0.07,5.18-0.01
		c0.18-0.01,0.36-0.05,0.57-0.08c-0.06-0.08-0.08-0.13-0.12-0.16c-0.21-0.14-0.42-0.28-0.63-0.4c-1.7-0.97-3.5-1.73-5.29-2.5
		c-0.89-0.38-1.8-0.56-2.76-0.62c-1.45-0.09-2.9-0.25-4.34-0.41c-1.37-0.15-2.74-0.32-4.1-0.5c-1.86-0.24-3.73-0.49-5.59-0.77
		c-1.51-0.22-3.02-0.48-4.53-0.74c-2.77-0.49-5.53-0.95-8.29-1.49c-4.45-0.87-8.89-1.81-13.3-2.9c-1.87-0.46-3.75-0.91-5.62-1.38
		c-1.02-0.26-2.04-0.53-3.05-0.82c-1.76-0.49-3.52-0.99-5.28-1.51c-1.25-0.37-2.5-0.74-3.74-1.14c-1.45-0.47-2.9-0.97-4.35-1.46
		c-0.55-0.19-1.11-0.29-1.69-0.28c-0.68,0-1.35-0.03-2.03-0.03c-1.53,0-3.05,0.03-4.57,0.23C77.43,27.56,77.22,27.53,77.05,27.74z
		 M134.14,72.68c-0.29-0.15-0.48-0.26-0.68-0.35c-2.48-1.02-5.02-1.89-7.58-2.67c-1.68-0.51-3.37-0.98-5.07-1.42
		c-2.21-0.58-4.42-1.15-6.64-1.65c-4.62-1.04-9.27-1.99-13.96-2.65c-1.69-0.24-3.37-0.5-5.06-0.69c-2.29-0.27-4.59-0.47-6.89-0.54
		c-0.54-0.02-1.08-0.08-1.71,0.04c0.29,0.13,0.48,0.24,0.69,0.32c1.08,0.4,2.16,0.81,3.25,1.17c1.69,0.55,3.39,1.08,5.1,1.58
		c2.02,0.59,4.05,1.16,6.09,1.67c3.65,0.92,7.31,1.76,11.01,2.46c1.99,0.38,3.99,0.74,5.99,1.08c1.43,0.24,2.87,0.44,4.31,0.64
		c1.49,0.21,2.98,0.42,4.47,0.58c1.57,0.17,3.14,0.29,4.72,0.4C132.8,72.7,133.42,72.78,134.14,72.68z M72.45,130.32
		c0.2,0.17,0.27,0.25,0.35,0.28c1.19,0.47,2.37,0.96,3.57,1.38c1.49,0.52,2.99,1,4.5,1.46c1.68,0.51,3.36,1.02,5.05,1.45
		c2.4,0.62,4.82,1.19,7.23,1.75c4.22,0.98,8.49,1.74,12.77,2.44c0.87,0.14,1.73,0.27,2.6,0.38c1.89,0.22,3.78,0.43,5.67,0.63
		c1.77,0.19,3.54,0.27,5.32,0.3c0.1,0,0.21-0.07,0.44-0.14c-1.18-0.43-2.23-0.84-3.3-1.2c-1.54-0.52-3.09-1.01-4.65-1.48
		c-1.73-0.52-3.46-1.03-5.2-1.48c-2.4-0.62-4.82-1.19-7.23-1.74c-5.28-1.22-10.6-2.18-15.96-2.96c-0.77-0.11-1.54-0.22-2.31-0.3
		c-1.29-0.15-2.59-0.28-3.88-0.41C75.83,130.48,74.24,130.38,72.45,130.32z M79.91,110.83c-0.01,0.28,0.16,0.45,0.33,0.58
		c0.29,0.23,0.59,0.47,0.91,0.66c1.13,0.66,2.33,1.16,3.55,1.62c0.14,0.05,0.29,0.06,0.44,0.08c1.69,0.19,3.39,0.32,5.08,0.57
		c2.63,0.39,5.25,0.83,7.86,1.32c3.65,0.69,7.26,1.53,10.84,2.52c1.74,0.48,3.47,0.98,5.18,1.55c0.43,0.14,0.86,0.34,1.29,0.37
		c1.35,0.1,2.7,0.12,4.05-0.07c0.39-0.05,0.78-0.17,1.16-0.3c0.15-0.05,0.26-0.2,0.37-0.3c-0.28-0.52-0.31-0.59-0.76-0.87
		c-0.57-0.35-1.16-0.7-1.77-0.99c-1.65-0.8-3.38-1.38-5.11-1.97c-0.19-0.06-0.39-0.1-0.59-0.12c-0.5-0.06-1-0.09-1.49-0.16
		c-1.94-0.26-3.88-0.49-5.81-0.82c-3.11-0.53-6.21-1.18-9.28-1.93c-1.92-0.47-3.84-0.98-5.72-1.6c-1.02-0.33-2.04-0.69-3.14-0.69
		c-0.32,0-0.65-0.04-0.97-0.06c-1.35-0.09-2.7-0.15-4.05-0.06c-0.55,0.04-1.09,0.14-1.63,0.24
		C80.37,110.47,80.07,110.56,79.91,110.83z M126.67,92.19c-0.05-0.1-0.07-0.24-0.15-0.32c-0.21-0.21-0.42-0.44-0.67-0.59
		c-1.75-1.03-3.5-2.06-5.63-2.1c-0.02,0-0.05-0.01-0.07-0.01c-1.44-0.18-2.89-0.34-4.32-0.55c-1.93-0.29-3.87-0.58-5.79-0.94
		c-4.51-0.85-8.99-1.8-13.4-3.09c-1.37-0.4-2.75-0.78-4.1-1.24c-0.82-0.27-1.62-0.48-2.49-0.47c-1,0.01-2-0.02-3,0.14
		c-0.39,0.06-0.78,0.18-1.15,0.31c-0.12,0.04-0.21,0.18-0.3,0.27c0.26,0.52,0.26,0.52,0.68,0.83c0.67,0.49,1.41,0.85,2.17,1.2
		c1.41,0.65,2.88,1.17,4.35,1.66c0.52,0.17,1.07,0.25,1.62,0.32c1.54,0.2,3.09,0.35,4.62,0.58c2.93,0.43,5.83,0.99,8.71,1.66
		c1.98,0.46,3.94,0.97,5.9,1.5c1.21,0.32,2.4,0.71,3.6,1.08c0.73,0.23,1.47,0.27,2.22,0.33c1.5,0.13,3,0.2,4.5,0.13
		c0.62-0.03,1.24-0.13,1.86-0.23C126.13,92.61,126.46,92.53,126.67,92.19z M84.53,78.64c0.06,0.4,0.31,0.62,0.58,0.8
		c0.45,0.31,0.91,0.62,1.39,0.88c1.35,0.73,2.78,1.26,4.21,1.8c0.52,0.2,1.07,0.26,1.61,0.31c1.74,0.17,3.49,0.3,5.23,0.54
		c2.21,0.31,4.41,0.67,6.6,1.08c4.31,0.8,8.58,1.8,12.78,3.07c1.37,0.41,2.72,0.86,4.07,1.32c0.57,0.19,1.15,0.34,1.76,0.36
		c1.08,0.03,2.15,0.08,3.23,0.07c0.75-0.01,1.5-0.08,2.24-0.17c0.37-0.05,0.73-0.17,1.07-0.32c0.36-0.15,0.42-0.43,0.15-0.72
		c-0.26-0.27-0.55-0.51-0.86-0.72c-0.91-0.62-1.93-1.05-2.94-1.49c-0.18-0.08-0.39-0.11-0.58-0.12c-1.3-0.12-2.6-0.21-3.89-0.35
		c-1.64-0.18-3.29-0.37-4.92-0.63c-2.28-0.36-4.54-0.77-6.81-1.2c-4.56-0.87-9.06-1.94-13.53-3.21c-0.7-0.2-1.4-0.4-2.09-0.63
		c-1.35-0.45-2.7-0.92-4.06-1.37c-0.21-0.07-0.44-0.1-0.66-0.11c-0.45-0.01-0.9-0.03-1.35,0.01c-0.75,0.06-1.49,0.15-2.23,0.26
		C85.16,78.16,84.79,78.27,84.53,78.64z M76.93,114.96c0,0.29,0.17,0.47,0.36,0.63c0.27,0.22,0.54,0.46,0.84,0.62
		c0.7,0.39,1.43,0.72,2.13,1.1c0.59,0.32,1.22,0.41,1.88,0.45c1.02,0.07,2.05,0.15,3.07,0.27c1.59,0.19,3.18,0.39,4.77,0.64
		c2.23,0.35,4.45,0.72,6.67,1.13c1.8,0.33,3.59,0.72,5.37,1.12c1.88,0.43,3.76,0.87,5.62,1.37c1.67,0.44,3.33,0.94,4.98,1.44
		c1.13,0.34,2.25,0.69,3.36,1.09c0.72,0.26,1.43,0.43,2.19,0.4c0.87-0.04,1.75-0.04,2.61-0.22c0.34-0.07,0.67-0.19,0.99-0.33
		c0.25-0.11,0.3-0.35,0.14-0.56c-0.15-0.2-0.32-0.39-0.52-0.53c-0.45-0.31-0.91-0.62-1.4-0.88c-1.42-0.75-2.92-1.31-4.43-1.86
		c-0.28-0.1-0.58-0.15-0.88-0.18c-1.37-0.14-2.74-0.25-4.11-0.39c-2.29-0.23-4.57-0.6-6.84-1.02c-3.5-0.66-6.98-1.37-10.42-2.28
		c-2.74-0.72-5.46-1.5-8.12-2.47c-0.3-0.11-0.63-0.19-0.95-0.21c-1.57-0.1-3.15-0.19-4.72-0.07c-0.57,0.04-1.14,0.14-1.71,0.25
		C77.48,114.53,77.14,114.63,76.93,114.96z M123.71,96.3c-0.09-0.14-0.16-0.31-0.28-0.41c-0.29-0.24-0.59-0.47-0.91-0.65
		c-1.04-0.61-2.16-1.03-3.27-1.49c-0.99-0.41-2-0.62-3.05-0.73c-2.29-0.24-4.57-0.6-6.83-1.03c-2.58-0.49-5.16-1.03-7.72-1.61
		c-2.27-0.52-4.52-1.11-6.75-1.81c-0.57-0.18-1.15-0.38-1.74-0.46c-1.29-0.16-2.6-0.2-3.9-0.14c-0.62,0.03-1.24,0.12-1.86,0.21
		c-0.21,0.03-0.42,0.15-0.62,0.25c-0.12,0.07-0.15,0.23-0.06,0.33c0.2,0.22,0.4,0.47,0.65,0.61c0.67,0.39,1.35,0.77,2.05,1.09
		c2.03,0.92,4.17,1.57,6.3,2.22c0.4,0.12,0.83,0.18,1.25,0.24c1.51,0.24,3.03,0.42,4.53,0.7c3.79,0.72,7.57,1.5,11.27,2.62
		c0.45,0.14,0.93,0.18,1.4,0.26c0.25,0.04,0.5,0.05,0.75,0.08c1.86,0.23,3.74,0.38,5.61,0.37c0.75,0,1.5-0.09,2.24-0.18
		C123.1,96.72,123.46,96.65,123.71,96.3z M113.16,114.94c0.03,0.01,0.18,0.04,0.33,0.05c0.98,0.05,1.95,0.11,2.93,0.12
		c0.72,0.01,1.45-0.05,2.17-0.12c0.37-0.04,0.73-0.17,1.08-0.29c0.23-0.08,0.29-0.31,0.11-0.48c-0.25-0.24-0.51-0.48-0.8-0.67
		c-0.86-0.56-1.81-0.98-2.77-1.34c-1.38-0.52-2.78-1-4.18-1.47c-0.59-0.2-1.2-0.38-1.81-0.51c-0.66-0.14-1.34-0.19-2.01-0.29
		c-2.68-0.39-5.35-0.86-7.98-1.48c-1.71-0.4-3.41-0.85-5.11-1.28c-0.53-0.14-1.06-0.3-1.59-0.44c-0.19-0.05-0.39-0.09-0.59-0.11
		c-1.25-0.14-2.49-0.28-3.74-0.39c-1.4-0.12-2.8-0.18-4.2-0.1c-0.32,0.02-0.65,0.06-0.97,0.1c-0.22,0.03-0.44,0.09-0.66,0.16
		c-0.6,0.2-0.64,0.45-0.15,0.88c0.11,0.1,0.24,0.19,0.36,0.27c0.25,0.16,0.51,0.32,0.77,0.46c1.1,0.6,2.27,1.06,3.45,1.48
		c0.54,0.2,1.07,0.4,1.66,0.45c0.87,0.07,1.75,0.17,2.61,0.3c1.46,0.22,2.92,0.48,4.38,0.71c3.79,0.6,7.53,1.48,11.25,2.42
		c1.09,0.27,2.17,0.61,3.26,0.92C111.65,114.49,112.35,114.71,113.16,114.94z M81.03,118.3c-0.27-0.02-0.52-0.06-0.77-0.07
		c-0.95-0.01-1.9-0.03-2.85-0.01c-0.78,0.01-1.55,0.07-2.31,0.27c-0.31,0.08-0.62,0.2-0.9,0.35c-0.23,0.12-0.29,0.38-0.13,0.58
		c0.22,0.27,0.47,0.52,0.74,0.73c0.78,0.6,1.67,1.01,2.56,1.42c0.2,0.09,0.43,0.12,0.66,0.14c1.55,0.13,3.1,0.23,4.64,0.36
		c2.32,0.19,4.63,0.53,6.93,0.9c2.52,0.41,5.04,0.88,7.54,1.38c4.6,0.91,9.16,1.98,13.66,3.3c2.24,0.66,4.46,1.34,6.64,2.16
		c1.43,0.53,1.43,0.53,3,0.4c0.37-0.03,0.75-0.07,1.12-0.13c0.29-0.05,0.59-0.13,0.87-0.22c0.16-0.05,0.32-0.14,0.47-0.24
		c0.2-0.13,0.25-0.34,0.11-0.52c-0.16-0.22-0.34-0.44-0.55-0.61c-0.38-0.29-0.78-0.55-1.19-0.78c-1.2-0.68-2.48-1.2-3.76-1.71
		c-0.43-0.17-0.87-0.22-1.32-0.24c-0.53-0.02-1.05-0.03-1.57-0.08c-1.62-0.16-3.24-0.33-4.86-0.51c-2.64-0.3-5.26-0.74-7.87-1.24
		c-2.17-0.41-4.32-0.87-6.48-1.36c-1.61-0.36-3.22-0.77-4.81-1.2c-1.57-0.43-3.13-0.89-4.69-1.37c-1.08-0.33-2.14-0.71-3.2-1.08
		C82.14,118.72,81.57,118.5,81.03,118.3z M125.55,84.79c0.11,0.01,0.18,0.02,0.26,0.02c1.05,0.02,2.1,0.07,3.15,0.04
		c0.8-0.02,1.6-0.13,2.39-0.25c0.34-0.05,0.67-0.2,0.98-0.35c0.28-0.13,0.34-0.39,0.15-0.63c-0.2-0.25-0.43-0.49-0.69-0.68
		c-0.83-0.62-1.75-1.07-2.69-1.48c-0.15-0.07-0.34-0.07-0.51-0.09c-1.67-0.13-3.35-0.23-5.02-0.4c-1.52-0.15-3.03-0.37-4.55-0.59
		c-1.74-0.25-3.47-0.53-5.2-0.82c-1.09-0.18-2.17-0.4-3.25-0.6c-3.31-0.61-6.57-1.4-9.83-2.2c-1.39-0.34-2.76-0.73-4.14-1.12
		c-1.35-0.38-2.7-0.77-4.03-1.21c-1.5-0.49-2.98-1.04-4.47-1.57c-0.12-0.04-0.24-0.09-0.36-0.09c-1.13,0.01-2.25,0.04-3.35,0.33
		c-0.24,0.06-0.47,0.18-0.68,0.3c-0.23,0.13-0.28,0.37-0.13,0.58c0.11,0.16,0.24,0.33,0.4,0.45c0.38,0.29,0.76,0.57,1.17,0.81
		c1.14,0.68,2.38,1.17,3.6,1.68c0.54,0.22,1.08,0.39,1.67,0.36c0.25-0.01,0.5,0.01,0.75,0.03c2.45,0.15,4.89,0.43,7.32,0.77
		c2.83,0.4,5.64,0.9,8.44,1.47c4.37,0.9,8.71,1.94,12.98,3.26c1.8,0.55,3.58,1.15,5.33,1.84C125.34,84.71,125.46,84.75,125.55,84.79
		z M142.78,43.78c-3.84-1.37-7.76-2.52-11.7-3.56c-10.02-2.66-20.15-4.75-30.4-6.26c-3.42-0.51-6.85-0.92-10.3-1.21
		c-0.04,0-0.07,0.04-0.11,0.06c0.02,0.05,0.03,0.12,0.06,0.13c14.61,4.64,29.55,7.81,44.7,10.05
		C137.52,43.35,142.17,43.9,142.78,43.78z M116.56,170.33c0-0.02,0.01-0.04,0.01-0.07c-0.11-0.05-0.23-0.1-0.34-0.13
		c-1.31-0.42-2.62-0.85-3.94-1.24c-2.09-0.61-4.19-1.21-6.3-1.77c-2.35-0.62-4.7-1.24-7.07-1.78c-3.62-0.83-7.24-1.63-10.87-2.37
		c-3.39-0.69-6.8-1.29-10.2-1.91c-1.21-0.22-2.42-0.4-3.64-0.58c-1.84-0.26-3.67-0.51-5.51-0.76c-1.37-0.18-2.73-0.34-4.1-0.5
		c-0.34-0.04-0.69-0.04-1.08-0.07c0.07,0.07,0.09,0.12,0.12,0.13c1.28,0.43,2.56,0.87,3.85,1.27c1.44,0.44,2.88,0.86,4.33,1.27
		c2.05,0.58,4.1,1.16,6.17,1.68c2.55,0.64,5.12,1.24,7.68,1.82c5.26,1.2,10.55,2.22,15.86,3.12c1.11,0.19,2.23,0.37,3.34,0.52
		c1.76,0.25,3.52,0.49,5.29,0.71c1.77,0.22,3.53,0.41,5.3,0.6C115.83,170.31,116.2,170.31,116.56,170.33z M87.71,93.54
		c0.14,0.37,0.41,0.56,0.69,0.71c0.63,0.35,1.27,0.71,1.93,1c2.44,1.06,4.99,1.8,7.56,2.49c1.91,0.51,3.84,0.98,5.79,1.33
		c0.67,0.12,1.32,0.29,1.98,0.43c0.51,0.11,1.03,0.22,1.55,0.31c1.98,0.31,3.95,0.65,5.95,0.86c1.55,0.16,3.09,0.3,4.64,0.3
		c0.67,0,1.35-0.08,2.02-0.15c0.32-0.03,0.65-0.09,0.88-0.34c0.03-0.33-0.2-0.48-0.4-0.61c-0.44-0.29-0.89-0.56-1.36-0.8
		c-1.17-0.58-2.39-1.02-3.63-1.44c-1.16-0.39-2.31-0.83-3.56-0.89c-0.12-0.01-0.25-0.04-0.37-0.06c-2.87-0.45-5.73-0.97-8.57-1.63
		c-2.07-0.48-4.13-1.04-6.19-1.56c-0.32-0.08-0.63-0.17-0.96-0.2c-1.45-0.12-2.89-0.26-4.34-0.32c-0.85-0.04-1.7,0.04-2.55,0.1
		C88.41,93.15,88.02,93.2,87.71,93.54z M118.81,109.54c-0.06-0.11-0.09-0.27-0.19-0.35c-0.29-0.24-0.58-0.48-0.91-0.65
		c-0.78-0.39-1.57-0.78-2.38-1.1c-2.47-0.97-5.02-1.74-7.6-2.36c-2.6-0.63-5.23-1.17-7.86-1.71c-2.43-0.5-4.89-0.83-7.36-1.07
		c-1.35-0.13-2.69-0.22-4.05-0.21c-0.7,0.01-1.4,0.03-2.08,0.21c-0.21,0.06-0.45,0.09-0.55,0.34c0.05,0.28,0.26,0.43,0.46,0.56
		c0.38,0.24,0.76,0.49,1.16,0.69c1.3,0.66,2.67,1.14,4.04,1.61c0.97,0.33,1.95,0.62,2.98,0.77c1.61,0.24,3.22,0.51,4.82,0.79
		c3.24,0.56,6.42,1.34,9.6,2.18c0.8,0.21,1.6,0.44,2.42,0.52c1.44,0.16,2.89,0.24,4.34,0.29c0.75,0.03,1.5-0.06,2.24-0.13
		C118.21,109.89,118.54,109.84,118.81,109.54z M135.56,79.84c-0.19-0.53-0.24-0.6-0.63-0.93c-0.54-0.45-1.16-0.78-1.77-1.13
		c-0.51-0.3-1.05-0.44-1.65-0.42c-0.45,0.01-0.9-0.02-1.35-0.06c-1.85-0.16-3.69-0.31-5.53-0.51c-1.69-0.18-3.38-0.4-5.07-0.66
		c-1.88-0.29-3.75-0.64-5.63-0.96c-4.23-0.71-8.4-1.71-12.56-2.7c-0.24-0.06-0.49-0.12-0.73-0.19c-1.93-0.53-3.87-1.05-5.79-1.61
		c-1.2-0.35-2.4-0.71-3.59-1.12c-1.49-0.51-2.96-1.08-4.44-1.62c-0.23-0.08-0.48-0.17-0.73-0.17c-0.95,0.01-1.9,0.1-2.82,0.37
		c-0.21,0.06-0.42,0.17-0.61,0.29c-0.26,0.16-0.32,0.39-0.15,0.64c0.14,0.2,0.3,0.41,0.5,0.55c0.4,0.3,0.81,0.59,1.24,0.85
		c1.08,0.64,2.24,1.12,3.39,1.6c0.2,0.08,0.44,0.13,0.66,0.14c1.7,0.02,3.4,0.1,5.1,0.3c2.11,0.24,4.23,0.47,6.34,0.78
		c1.98,0.29,3.95,0.66,5.92,1.03c5.79,1.09,11.52,2.43,17.14,4.21c1.98,0.63,3.94,1.3,5.86,2.11c0.25,0.1,0.53,0.18,0.79,0.19
		c1.25,0.03,2.5,0.05,3.75-0.11c0.52-0.06,1.04-0.18,1.54-0.3C135.05,80.32,135.36,80.2,135.56,79.84z M120.2,135.31
		c0.1,0,0.2,0,0.3-0.01c0.72-0.07,1.44-0.14,2.16-0.23c0.27-0.03,0.54-0.12,0.8-0.21c0.8-0.3,0.89-0.67,0.28-1.24
		c-0.36-0.34-0.78-0.63-1.2-0.89c-1.17-0.73-2.44-1.27-3.72-1.77c-0.18-0.07-0.39-0.08-0.58-0.09c-1.72-0.1-3.45-0.16-5.17-0.31
		c-2.6-0.22-5.18-0.59-7.75-1.01c-3.69-0.6-7.36-1.3-10.99-2.16c-2.9-0.69-5.79-1.41-8.66-2.26c-1.06-0.31-2.12-0.62-3.15-0.99
		c-1.6-0.57-3.19-1.19-4.79-1.78c-0.16-0.06-0.33-0.1-0.5-0.11c-1.23-0.05-2.45-0.05-3.67,0.08c-0.55,0.06-1.09,0.16-1.62,0.29
		c-0.26,0.06-0.51,0.21-0.74,0.35c-0.19,0.12-0.24,0.34-0.11,0.53c0.19,0.26,0.4,0.52,0.65,0.72c0.7,0.57,1.51,0.99,2.32,1.37
		c0.15,0.07,0.34,0.08,0.51,0.09c1.07,0.06,2.15,0.08,3.22,0.17c1.6,0.14,3.19,0.3,4.78,0.49c1.82,0.22,3.63,0.46,5.44,0.73
		c3,0.46,5.98,1.03,8.95,1.65c5.74,1.19,11.44,2.57,17.04,4.35c1.98,0.63,3.94,1.32,5.88,2.08
		C119.97,135.2,120.08,135.26,120.2,135.31z M88.36,67.8c10.85,4.31,31.56,8.52,42.19,8.9c-0.17-0.12-0.28-0.22-0.4-0.28
		c-0.35-0.15-0.7-0.28-1.05-0.41c-1.74-0.64-3.49-1.25-5.27-1.77c-1.66-0.48-3.31-1-4.99-1.43c-2.43-0.62-4.87-1.2-7.32-1.74
		c-5.39-1.19-10.81-2.18-16.3-2.8c-2.12-0.24-4.24-0.42-6.37-0.52C88.7,67.75,88.53,67.78,88.36,67.8z M76.03,126.45
		c0.19,0.09,0.27,0.14,0.36,0.18c0.84,0.32,1.68,0.66,2.53,0.96c2.58,0.9,5.19,1.71,7.83,2.4c2.81,0.74,5.63,1.44,8.47,2.07
		c5.51,1.21,11.06,2.19,16.68,2.8c1.99,0.22,3.99,0.38,5.99,0.45c0.08,0,0.17-0.01,0.36-0.03c-0.17-0.13-0.24-0.2-0.32-0.24
		c-0.4-0.15-0.8-0.3-1.2-0.43c-1.52-0.5-3.05-1-4.58-1.47c-1.73-0.52-3.46-1.04-5.2-1.48c-2.4-0.61-4.82-1.18-7.24-1.73
		c-3.96-0.89-7.95-1.65-11.96-2.3c-0.97-0.15-1.93-0.3-2.9-0.42c-1.44-0.18-2.88-0.36-4.33-0.51c-1.35-0.14-2.69-0.24-4.04-0.35
		C76.36,126.34,76.24,126.4,76.03,126.45z M109.77,70.03c2.84,0.68,5.59,1.33,8.34,2c1.14,0.28,2.28,0.58,3.41,0.91
		c1.8,0.54,3.59,1.11,5.38,1.68c1.72,0.55,3.4,1.19,5.05,1.94c0.37,0.17,0.76,0.26,1.16,0.25c0.6-0.02,1.2,0,1.8-0.05
		c0.77-0.07,1.54-0.17,2.3-0.3c0.34-0.06,0.67-0.21,0.97-0.38c0.35-0.19,0.4-0.5,0.16-0.82c-0.18-0.24-0.39-0.47-0.63-0.64
		c-0.51-0.36-1.05-0.67-1.58-1.01c-0.31-0.2-0.64-0.25-1-0.26c-1.48-0.06-2.95-0.11-4.42-0.22c-1.5-0.11-2.99-0.26-4.49-0.44
		c-1.91-0.23-3.83-0.49-5.73-0.78c-1.81-0.27-3.61-0.61-5.41-0.91c-2.92-0.49-5.82-1.05-8.69-1.76c-2.17-0.53-4.33-1.07-6.49-1.62
		c-2.6-0.65-5.17-1.41-7.73-2.22c-2.17-0.69-4.33-1.42-6.43-2.32c-0.65-0.28-1.28-0.38-1.96-0.25c-0.42,0.08-0.84,0.14-1.25,0.23
		c-0.19,0.04-0.39,0.11-0.57,0.19c-0.72,0.31-0.81,0.69-0.24,1.24c0.37,0.36,0.81,0.67,1.25,0.96c0.95,0.61,1.98,1.07,3.01,1.53
		c0.32,0.15,0.67,0.2,1.02,0.19c0.4-0.01,0.8-0.01,1.2,0c1.9,0.05,3.8,0.2,5.69,0.38c2.27,0.22,4.53,0.51,6.78,0.88
		C103.74,68.92,106.79,69.5,109.77,70.03z M88.75,98.49c0.15,0.17,0.24,0.33,0.37,0.42c0.31,0.21,0.62,0.44,0.95,0.59
		c0.94,0.42,1.87,0.85,2.83,1.19c2.48,0.89,5.02,1.58,7.58,2.16c1.98,0.45,3.97,0.82,5.96,1.2c2.49,0.47,4.99,0.78,7.52,0.92
		c0.9,0.05,1.8,0.07,2.7-0.05c0.37-0.05,0.75-0.07,1.09-0.36c-0.11-0.14-0.18-0.31-0.31-0.39c-0.37-0.25-0.75-0.5-1.15-0.7
		c-1.19-0.59-2.44-1.03-3.7-1.45c-1.83-0.6-3.68-1.14-5.56-1.57c-1.98-0.45-3.97-0.86-5.95-1.27c-0.74-0.15-1.47-0.3-2.22-0.4
		c-1.59-0.21-3.18-0.41-4.77-0.59c-1.19-0.13-2.4-0.18-3.6-0.12c-0.42,0.02-0.84,0.1-1.26,0.18C89.09,98.28,88.95,98.39,88.75,98.49
		z M92.44,38.03c0.11,0.05,0.22,0.1,0.34,0.14c0.84,0.26,1.67,0.54,2.51,0.78c2.34,0.65,4.68,1.34,7.03,1.92
		c3.6,0.9,7.21,1.77,10.83,2.56c3.23,0.71,6.49,1.31,9.74,1.94c1.9,0.36,3.8,0.68,5.7,1c0.96,0.16,1.93,0.31,2.9,0.45
		c1.99,0.28,3.97,0.54,5.96,0.81c0.42,0.06,0.83,0.1,1.26,0.04c-10.83-3.49-21.9-5.98-33.1-7.91
		C101.25,38.99,96.87,38.37,92.44,38.03z M67.91,155.35c0.3,0.19,0.62,0.32,0.95,0.42c1.37,0.4,2.73,0.83,4.11,1.22
		c1.93,0.55,3.85,1.11,5.79,1.61c2.28,0.58,4.58,1.11,6.87,1.66c5.12,1.22,10.29,2.21,15.48,3.08c1.48,0.25,2.97,0.49,4.45,0.73
		c0.87,0.14,1.74,0.26,2.61,0.37c1.62,0.2,3.23,0.39,4.85,0.59c0.36,0.04,0.72,0.08,1.26,0c-12.4-3.75-24.85-6.48-37.46-8.5
		C73.87,156.05,70.9,155.64,67.91,155.35z M90.23,72.83c0.07,0.31,0.25,0.3,0.38,0.35c1.05,0.34,2.09,0.7,3.15,1.02
		c1.61,0.49,3.21,0.98,4.84,1.41c2.3,0.6,4.62,1.15,6.94,1.7c3.29,0.79,6.63,1.38,9.96,1.96c2,0.35,4.01,0.61,6.03,0.87
		c1.64,0.21,3.29,0.36,4.93,0.53c0.08,0.01,0.17-0.04,0.3-0.08c-1.21-0.69-6.82-2.45-11.66-3.62
		C106.92,74.98,98.69,73.37,90.23,72.83z M79.59,122.41c0.14,0.09,0.19,0.14,0.25,0.16c1.49,0.52,2.97,1.07,4.48,1.54
		c1.6,0.5,3.22,0.95,4.84,1.38c2.21,0.57,4.42,1.13,6.64,1.64c3.67,0.83,7.36,1.5,11.08,2.07c2.5,0.38,5.01,0.68,7.53,0.91
		c0.7,0.06,1.39,0.08,2.09,0.12c-0.1-0.13-0.22-0.21-0.35-0.25c-1.07-0.36-2.13-0.74-3.21-1.07c-1.56-0.47-3.12-0.92-4.7-1.34
		c-1.79-0.48-3.58-0.97-5.39-1.38c-5.67-1.29-11.36-2.46-17.14-3.16c-1.74-0.21-3.48-0.39-5.23-0.58
		C80.23,122.4,79.95,122.42,79.59,122.41z M46.52,162.68c0.11,0.32,0.4,0.4,0.62,0.53c1.83,1.09,3.77,1.96,5.74,2.77
		c0.28,0.12,0.57,0.17,0.87,0.2c1.4,0.1,2.8,0.22,4.19,0.35c0.97,0.09,1.95,0.18,2.92,0.29c1.47,0.16,2.94,0.34,4.4,0.52
		c0.95,0.12,1.89,0.26,2.83,0.39c1.32,0.19,2.63,0.37,3.94,0.57c1.58,0.25,3.17,0.52,4.75,0.79c0.08,0.01,0.16,0.02,0.24,0.03
		c-0.36-0.2-0.74-0.34-1.12-0.44c-1.28-0.34-2.57-0.66-3.85-1.01c-1.57-0.43-3.14-0.87-4.7-1.34c-1.7-0.51-3.4-1.05-5.09-1.62
		c-1.66-0.56-3.31-1.17-4.96-1.74c-0.28-0.1-0.58-0.19-0.87-0.21c-2.25-0.14-4.5-0.25-6.76-0.23
		C48.63,162.54,47.58,162.54,46.52,162.68z M160.2,40.34c-0.57-0.35-0.97-0.6-1.38-0.83c-1.6-0.9-3.27-1.64-4.95-2.35
		c-0.42-0.18-0.85-0.27-1.31-0.3c-1.37-0.1-2.75-0.18-4.12-0.32c-1.75-0.17-3.49-0.37-5.23-0.58c-1.62-0.19-3.24-0.38-4.85-0.61
		c-2.33-0.34-4.66-0.73-6.98-1.09c-0.59-0.09-1.19-0.16-1.79-0.24c-0.05-0.01-0.16-0.09-0.18,0.03c1.97,0.53,3.93,1.04,5.88,1.6
		c2.34,0.67,4.66,1.37,6.99,2.07c2.3,0.7,4.58,1.48,6.82,2.35c0.45,0.17,0.92,0.25,1.4,0.28c1.18,0.06,2.35,0.12,3.53,0.16
		c1.83,0.06,3.65,0.07,5.48-0.07C159.68,40.42,159.85,40.39,160.2,40.34z M130.7,180.42c0.01-0.05,0.02-0.09,0.02-0.14
		c-0.35-0.19-0.7-0.38-1.06-0.56c-2.63-1.3-5.36-2.35-8.11-3.36c-0.21-0.08-0.44-0.12-0.66-0.13c-2.33-0.11-4.65-0.28-6.96-0.55
		c-1.99-0.23-3.98-0.43-5.97-0.7c-2.11-0.28-4.21-0.63-6.31-0.95c-0.47-0.07-0.93-0.15-1.56-0.11c0.23,0.07,0.31,0.1,0.39,0.12
		c2.25,0.59,4.51,1.16,6.76,1.76c1.69,0.45,3.38,0.94,5.06,1.41c0.63,0.18,1.25,0.37,1.87,0.56c1.19,0.38,2.39,0.75,3.58,1.14
		c1.45,0.48,2.89,0.97,4.33,1.48c0.69,0.24,1.38,0.43,2.12,0.39c0.57-0.03,1.15,0.01,1.73,0c1.35-0.01,2.7-0.08,4.04-0.25
		C130.22,180.52,130.46,180.46,130.7,180.42z M106.5,29.27c0-0.02,0.01-0.04,0.01-0.06c-0.24-0.07-0.47-0.15-0.71-0.22
		c-1.48-0.39-2.96-0.78-4.43-1.18c-2.54-0.69-5.07-1.4-7.6-2.11c-0.68-0.19-1.34-0.4-2.01-0.61c-1.19-0.38-2.39-0.76-3.58-1.15
		c-1-0.33-2-0.65-2.98-1.02c-1.67-0.62-1.67-0.63-3.5-0.66c-0.05,0-0.1-0.01-0.15-0.01c-1.73,0-3.45,0.04-5.17,0.29
		c-0.18,0.03-0.36,0.08-0.67,0.15c0.36,0.21,0.61,0.37,0.88,0.5c2.65,1.32,5.39,2.4,8.17,3.41c0.35,0.13,0.73,0.19,1.1,0.23
		c0.82,0.07,1.65,0.09,2.47,0.15c1.45,0.12,2.89,0.24,4.34,0.38c1.32,0.13,2.64,0.29,3.95,0.46c1.79,0.23,3.58,0.46,5.36,0.72
		c1.39,0.2,2.77,0.45,4.15,0.67C106.26,29.24,106.38,29.25,106.5,29.27z M69.66,172.24c0-0.04,0-0.07,0.01-0.11
		c-0.94-0.27-1.88-0.53-2.82-0.8c-1.35-0.4-2.69-0.78-4.03-1.21c-1.5-0.48-3-0.97-4.49-1.49c-1.51-0.53-3.01-1.09-4.51-1.65
		c-0.45-0.17-0.9-0.29-1.38-0.3c-1.08-0.03-2.15-0.09-3.23-0.11c-1.75-0.04-3.5-0.03-5.25,0.11c-0.2,0.02-0.39,0.05-0.62,0.09
		c0.09,0.09,0.13,0.16,0.19,0.2c0.18,0.13,0.37,0.26,0.56,0.38c1.67,1.02,3.44,1.84,5.23,2.61c0.31,0.13,0.68,0.18,1.02,0.2
		c1.7,0.13,3.4,0.21,5.09,0.37c2.27,0.22,4.53,0.47,6.79,0.75c2.11,0.26,4.22,0.57,6.33,0.86
		C68.92,172.19,69.29,172.21,69.66,172.24z M136.55,30.76c0.08,0.06,0.12,0.1,0.17,0.11c0.82,0.24,1.64,0.46,2.46,0.7
		c0.82,0.24,1.64,0.47,2.45,0.72c1.24,0.38,2.49,0.77,3.73,1.17c1.03,0.33,2.05,0.66,3.07,1.02c1.53,0.55,3.06,1.12,4.58,1.69
		c0.26,0.1,0.52,0.17,0.8,0.18c1.65,0.05,3.3,0.14,4.95,0.15c1.35,0.01,2.7-0.09,4.05-0.14c0.12,0,0.25,0,0.31-0.17
		c-0.05-0.05-0.09-0.1-0.15-0.14c-0.21-0.14-0.41-0.28-0.63-0.41c-1.67-1.02-3.45-1.82-5.24-2.6c-0.16-0.07-0.34-0.11-0.51-0.12
		c-0.75-0.05-1.5-0.08-2.25-0.14c-1.47-0.11-2.95-0.23-4.42-0.37c-1.15-0.11-2.29-0.24-3.44-0.37c-1.52-0.18-3.04-0.35-4.55-0.55
		c-1.69-0.23-3.37-0.48-5.06-0.73C136.77,30.75,136.68,30.76,136.55,30.76z M101.15,23.4c0.01-0.02,0.01-0.05,0.02-0.07
		c-0.17-0.05-0.33-0.1-0.5-0.15c-1.69-0.47-3.39-0.91-5.07-1.41c-2.37-0.71-4.74-1.45-7.1-2.19c-2.17-0.68-4.32-1.44-6.45-2.24
		c-0.23-0.09-0.49-0.12-0.73-0.13c-0.85-0.01-1.7-0.01-2.55,0.02c-1.22,0.04-2.45,0.13-3.66,0.32c-0.15,0.02-0.35,0-0.47,0.22
		c0.36,0.3,0.77,0.47,1.17,0.67c2.23,1.13,4.56,2.06,6.89,2.97c0.59,0.23,1.2,0.32,1.83,0.34c1.57,0.07,3.15,0.16,4.72,0.29
		c1.57,0.13,3.14,0.29,4.71,0.47c1.64,0.18,3.28,0.4,4.92,0.6C99.63,23.21,100.39,23.3,101.15,23.4z M105.77,179.7
		c0.29,0.25,0.65,0.35,1.01,0.45c0.53,0.14,1.07,0.27,1.6,0.42c1.11,0.31,2.22,0.62,3.32,0.95c1.32,0.39,2.64,0.78,3.96,1.19
		c1.15,0.36,2.29,0.73,3.43,1.11c1.33,0.45,2.66,0.89,3.97,1.38c1.73,0.65,1.72,0.68,3.57,0.66c1.63-0.02,3.25-0.09,4.86-0.36
		c0.15-0.03,0.3-0.09,0.56-0.16c-0.41-0.22-0.71-0.4-1.01-0.56c-2.43-1.25-4.96-2.27-7.51-3.23c-0.34-0.13-0.73-0.2-1.1-0.21
		c-2.33-0.08-4.65-0.24-6.97-0.47c-2.44-0.25-4.88-0.56-7.31-0.85C107.36,179.91,106.56,179.8,105.77,179.7z M72.89,151.73
		c0.13,0.18,0.34,0.18,0.51,0.24c0.94,0.27,1.88,0.54,2.82,0.8c1.26,0.35,2.51,0.72,3.77,1.03c2.21,0.56,4.43,1.09,6.65,1.62
		c3.32,0.8,6.65,1.48,10.01,2.11c3.23,0.6,6.46,1.16,9.71,1.64c1.46,0.21,2.93,0.4,4.4,0.59c0.09,0.01,0.21,0.04,0.24-0.16
		c-3.85-1.15-7.75-2.16-11.67-3.07c-8.69-2.03-17.45-3.75-26.31-4.89C72.99,151.63,72.95,151.68,72.89,151.73z M95.23,43.35
		c6.35,1.91,12.78,3.45,19.26,4.81c6.46,1.35,12.96,2.52,19.67,3.35c-1.85-0.81-11.23-3.29-19.21-4.97
		C107.4,44.96,97.42,43.36,95.23,43.35z M98.01,133.33c0,0.02-0.01,0.03-0.01,0.05c0.1,0.02,0.2,0.04,0.29,0.06
		c2.34,0.56,4.68,1.1,7.02,1.67c2.9,0.7,5.76,1.52,8.6,2.42c2.44,0.77,4.85,1.59,7.2,2.58c0.23,0.1,0.48,0.2,0.72,0.19
		c0.93-0.02,1.85-0.12,2.72-0.47c0.76-0.3,0.85-0.71,0.25-1.28c-0.4-0.38-0.85-0.7-1.31-0.99c-0.97-0.62-2.03-1.08-3.09-1.53
		c-0.22-0.09-0.48-0.1-0.73-0.11c-0.87-0.03-1.75-0.01-2.63-0.05c-2.65-0.12-5.29-0.38-7.92-0.75c-2.45-0.34-4.9-0.78-7.34-1.17
		C100.53,133.74,99.27,133.53,98.01,133.33z M95.22,132.79c0-0.01,0.01-0.03,0.01-0.04c-1.04-0.27-2.08-0.57-3.12-0.82
		c-3.93-0.91-7.82-1.97-11.65-3.22c-2.05-0.67-4.07-1.41-6.04-2.28c-0.2-0.09-0.43-0.17-0.64-0.17c-1.28,0-2.55,0-3.81,0.22
		c-0.39,0.07-0.78,0.16-1.16,0.29c-0.21,0.07-0.4,0.2-0.58,0.33c-0.18,0.13-0.24,0.34-0.11,0.53c0.16,0.25,0.34,0.51,0.57,0.68
		c0.54,0.4,1.12,0.75,1.68,1.12c0.3,0.2,0.64,0.27,1,0.28c1.37,0.06,2.75,0.09,4.12,0.19c1.57,0.11,3.14,0.26,4.71,0.44
		c1.67,0.19,3.33,0.43,4.99,0.68c1.96,0.3,3.91,0.62,5.86,0.96C92.43,132.24,93.82,132.52,95.22,132.79z M114.59,124.99
		c-8.48-3-24.22-6.11-31.13-6.49c0.21,0.1,0.31,0.17,0.42,0.21c0.35,0.13,0.71,0.24,1.07,0.36c2.06,0.72,4.16,1.3,6.27,1.86
		c2.45,0.64,4.91,1.22,7.39,1.74c2.65,0.56,5.31,1.05,7.98,1.47c2.35,0.37,4.71,0.66,7.08,0.88
		C113.95,125.05,114.25,125.09,114.59,124.99z M92.06,78.1c0.33,0.12,0.65,0.25,0.98,0.35c0.74,0.23,1.48,0.46,2.23,0.67
		c2.17,0.6,4.33,1.24,6.52,1.76c5.34,1.28,10.71,2.39,16.15,3.11c1.41,0.19,2.83,0.36,4.25,0.53c0.27,0.03,0.54,0.01,0.95,0.02
		C116.43,81.97,101.29,78.56,92.06,78.1z M99.99,63.2c-0.27-0.08-0.48-0.14-0.69-0.2c-1.06-0.29-2.13-0.57-3.19-0.88
		c-1.39-0.41-2.78-0.84-4.17-1.27c-1.03-0.32-2.05-0.66-3.07-1.01c-1.72-0.61-3.43-1.26-5.11-2c-0.13-0.06-0.29-0.11-0.43-0.1
		c-0.77,0.07-1.55,0.16-2.28,0.45c-0.21,0.08-0.41,0.2-0.58,0.33c-0.19,0.15-0.24,0.4-0.12,0.61c0.11,0.19,0.24,0.39,0.4,0.54
		c0.32,0.28,0.64,0.57,1.01,0.78c0.84,0.49,1.71,0.94,2.57,1.4c0.43,0.23,0.89,0.28,1.37,0.28c1.25-0.01,2.5,0.01,3.75,0.07
		c1.28,0.06,2.55,0.17,3.82,0.29c1.47,0.15,2.94,0.33,4.41,0.51c0.7,0.08,1.39,0.18,2.09,0.26C99.83,63.25,99.88,63.23,99.99,63.2z
		 M106.77,139.79c0.07,0.17,0.24,0.17,0.37,0.21c1.13,0.33,2.26,0.64,3.39,0.98c1.8,0.54,3.6,1.05,5.39,1.64
		c2.28,0.75,4.54,1.56,6.74,2.55c0.18,0.08,0.39,0.16,0.58,0.14c0.82-0.07,1.65-0.16,2.41-0.51c0.71-0.32,0.81-0.7,0.28-1.26
		c-0.32-0.34-0.7-0.64-1.09-0.91c-0.91-0.62-1.91-1.09-2.91-1.55c-0.28-0.13-0.57-0.15-0.88-0.15c-1.43-0.01-2.85,0.01-4.28-0.07
		c-2.5-0.14-4.99-0.39-7.47-0.74C108.46,140.01,107.62,139.9,106.77,139.79z M121.66,67.73c0,0.03,0.01,0.05,0.01,0.08
		c1.85,0.55,3.7,1.09,5.54,1.67c1.38,0.44,2.76,0.92,4.13,1.4c1.42,0.5,2.8,1.09,4.16,1.73c0.23,0.11,0.46,0.17,0.72,0.15
		c0.77-0.04,1.55-0.05,2.32-0.13c0.6-0.06,1.19-0.17,1.77-0.3c0.31-0.07,0.61-0.23,0.89-0.39c0.31-0.19,0.36-0.46,0.15-0.77
		c-0.15-0.23-0.33-0.45-0.55-0.61c-0.48-0.36-0.99-0.68-1.48-1.02c-0.23-0.16-0.49-0.2-0.78-0.21c-1.65-0.05-3.3-0.1-4.95-0.2
		c-1.37-0.08-2.75-0.22-4.12-0.37c-1.57-0.17-3.13-0.37-4.7-0.57C123.74,68.05,122.7,67.88,121.66,67.73z M84.75,135.26
		c0.01-0.03,0.02-0.06,0.03-0.08c-0.53-0.14-1.07-0.26-1.6-0.42c-1.82-0.56-3.64-1.12-5.45-1.7c-2.24-0.72-4.45-1.54-6.57-2.57
		c-0.28-0.13-0.56-0.22-0.87-0.2c-0.92,0.05-1.85,0.1-2.77,0.19c-0.47,0.05-0.94,0.17-1.39,0.29c-0.26,0.07-0.51,0.2-0.74,0.35
		c-0.31,0.19-0.37,0.48-0.17,0.77c0.15,0.23,0.33,0.45,0.54,0.62c0.43,0.34,0.9,0.63,1.35,0.95c0.32,0.23,0.67,0.29,1.06,0.29
		c1.35,0.03,2.7,0.06,4.05,0.14c1.32,0.08,2.65,0.19,3.97,0.33c1.42,0.14,2.84,0.31,4.26,0.49c1.04,0.13,2.08,0.3,3.13,0.45
		C83.95,135.2,84.35,135.22,84.75,135.26z M79.19,138.83c-0.2-0.11-0.24-0.15-0.28-0.16c-1.69-0.56-3.38-1.1-5.06-1.67
		c-2.01-0.69-3.99-1.47-5.89-2.43c-0.32-0.16-0.64-0.27-1.01-0.24c-0.87,0.08-1.75,0.13-2.61,0.24c-0.49,0.07-0.98,0.2-1.45,0.38
		c-0.9,0.35-1.01,0.83-0.31,1.5c0.43,0.41,0.95,0.73,1.42,1.1c0.25,0.19,0.53,0.23,0.84,0.22c2.48-0.05,4.96,0.09,7.42,0.31
		c1.72,0.15,3.44,0.37,5.15,0.56C77.96,138.7,78.5,138.76,79.19,138.83z M110.5,145.31c-0.02,0.03-0.03,0.06-0.05,0.09
		c0.14,0.04,0.28,0.08,0.42,0.13c1.25,0.38,2.5,0.73,3.74,1.13c1.43,0.46,2.84,0.96,4.26,1.45c1.56,0.54,3.1,1.15,4.6,1.82
		c0.98,0.44,0.97,0.45,2,0.23c0.29-0.06,0.58-0.14,0.87-0.23c0.19-0.06,0.37-0.15,0.54-0.25c0.48-0.29,0.54-0.59,0.23-1.06
		c-0.1-0.14-0.22-0.28-0.35-0.39c-0.24-0.22-0.49-0.43-0.76-0.61c-0.84-0.59-1.76-1.05-2.68-1.51c-0.3-0.15-0.62-0.18-0.95-0.16
		c-2.96,0.16-5.9-0.05-8.84-0.34C112.54,145.52,111.52,145.41,110.5,145.31z M127.75,64.26c-0.01,0.03-0.02,0.07-0.03,0.1
		c0.15,0.07,0.3,0.16,0.46,0.21c1.36,0.45,2.72,0.88,4.07,1.33c2.21,0.74,4.37,1.6,6.46,2.63c0.23,0.11,0.44,0.22,0.71,0.2
		c0.97-0.09,1.95-0.15,2.91-0.27c0.47-0.06,0.93-0.2,1.37-0.37c0.86-0.34,0.96-0.81,0.31-1.46c-0.37-0.37-0.82-0.66-1.23-0.98
		c-0.37-0.3-0.8-0.38-1.26-0.37c-0.9,0.01-1.8,0.02-2.7-0.02c-3-0.12-6-0.37-8.98-0.76C129.15,64.42,128.45,64.34,127.75,64.26z
		 M95.81,57.69c0.01-0.04,0.01-0.08,0.02-0.12c-0.46-0.13-0.92-0.24-1.37-0.38c-1.67-0.53-3.34-1.05-5-1.61
		c-1.23-0.41-2.46-0.86-3.67-1.33c-1.07-0.42-2.12-0.89-3.18-1.33c-0.23-0.1-0.47-0.21-0.72-0.15c-0.61,0.13-1.22,0.25-1.82,0.42
		c-0.23,0.06-0.45,0.23-0.64,0.38c-0.21,0.16-0.25,0.37-0.13,0.61c0.1,0.2,0.22,0.4,0.38,0.55c0.27,0.26,0.56,0.5,0.86,0.72
		c0.79,0.57,1.67,1.01,2.54,1.44c0.35,0.17,0.68,0.24,1.08,0.22c2.28-0.12,4.55-0.03,6.82,0.17c1.42,0.13,2.84,0.28,4.26,0.41
		C95.42,57.7,95.62,57.69,95.81,57.69z M92.97,52.41c-0.11-0.23-0.32-0.26-0.5-0.32c-1.02-0.34-2.05-0.65-3.07-0.99
		c-1.23-0.42-2.46-0.85-3.68-1.31c-1.52-0.57-3.03-1.18-4.49-1.9c-0.21-0.1-0.42-0.17-0.65-0.11c-0.53,0.13-1.07,0.25-1.59,0.42
		c-0.23,0.07-0.44,0.23-0.63,0.39c-0.19,0.16-0.24,0.39-0.13,0.62c0.08,0.18,0.18,0.36,0.32,0.5c0.26,0.27,0.54,0.52,0.84,0.74
		c0.72,0.54,1.52,0.97,2.31,1.38c0.37,0.19,0.72,0.27,1.14,0.24c2.45-0.17,4.9-0.07,7.35,0.11C91.11,52.26,92.03,52.33,92.97,52.41z
		 M113.63,150.69c-0.01,0.04-0.02,0.07-0.02,0.11c1.02,0.33,2.05,0.65,3.06,1c1.3,0.44,2.6,0.9,3.89,1.37
		c1.6,0.58,3.17,1.23,4.7,1.96c0.16,0.07,0.33,0.17,0.49,0.15c0.78-0.06,1.54-0.21,2.22-0.62c0.45-0.28,0.55-0.66,0.22-1.07
		c-0.28-0.35-0.61-0.67-0.96-0.94c-0.79-0.61-1.68-1.08-2.57-1.53c-0.26-0.13-0.5-0.17-0.79-0.15c-1.42,0.11-2.84,0.12-4.27,0.07
		c-1.8-0.06-3.6-0.17-5.39-0.35C114.02,150.67,113.82,150.69,113.63,150.69z M74.05,142.52c0.02-0.03,0.04-0.05,0.06-0.08
		c-0.17-0.08-0.34-0.18-0.52-0.25c-1.13-0.4-2.27-0.78-3.4-1.19c-1.67-0.6-3.31-1.28-4.9-2.08c-0.38-0.19-0.75-0.45-1.15-0.52
		c-0.43-0.08-0.89,0.03-1.34,0.06c-0.1,0.01-0.2,0-0.3,0.02c-0.66,0.11-1.34,0.21-1.99,0.36c-0.33,0.08-0.66,0.23-0.96,0.41
		c-0.43,0.26-0.48,0.59-0.2,1.02c0.12,0.19,0.27,0.36,0.44,0.51c0.24,0.22,0.51,0.41,0.76,0.62c0.41,0.34,0.86,0.43,1.39,0.41
		c2.5-0.08,5,0.06,7.5,0.26C70.96,142.2,72.51,142.37,74.05,142.52z M132.49,60.58c-0.01,0.03-0.02,0.06-0.03,0.1
		c1.2,0.42,2.4,0.84,3.6,1.27c1.81,0.65,3.61,1.35,5.31,2.26c0.73,0.39,1.42,0.52,2.22,0.42c0.84-0.1,1.69-0.17,2.51-0.42
		c0.29-0.09,0.57-0.2,0.83-0.34c0.53-0.3,0.59-0.68,0.23-1.18c-0.1-0.14-0.22-0.28-0.35-0.39c-0.3-0.26-0.62-0.5-0.94-0.75
		c-0.31-0.24-0.64-0.32-1.05-0.31c-2.9,0.09-5.8-0.08-8.68-0.35c-1.02-0.1-2.04-0.21-3.06-0.31
		C132.89,60.56,132.69,60.58,132.49,60.58z M69.76,146.31c0.01-0.04,0.02-0.08,0.04-0.12c-0.8-0.29-1.6-0.57-2.39-0.87
		c-1.76-0.66-3.49-1.38-5.17-2.23c-0.44-0.22-0.84-0.61-1.34-0.64c-0.49-0.03-1,0.07-1.49,0.11c-0.22,0.02-0.45,0.04-0.67,0.09
		c-0.51,0.12-1.03,0.22-1.53,0.39c-0.28,0.09-0.54,0.26-0.78,0.44c-0.24,0.19-0.29,0.47-0.15,0.75c0.1,0.2,0.22,0.4,0.38,0.55
		c0.26,0.27,0.56,0.5,0.84,0.74c0.32,0.27,0.67,0.36,1.11,0.34c2.33-0.1,4.65-0.03,6.98,0.15c1.25,0.1,2.5,0.21,3.74,0.31
		C69.47,146.33,69.62,146.31,69.76,146.31z M136.65,56.71c-0.01,0.03-0.03,0.06-0.04,0.1c0.68,0.25,1.35,0.51,2.03,0.76
		c2.21,0.81,4.39,1.69,6.45,2.84c0.3,0.17,0.6,0.25,0.93,0.21c0.72-0.09,1.44-0.15,2.16-0.28c0.44-0.08,0.88-0.21,1.3-0.37
		c0.25-0.09,0.48-0.27,0.69-0.44c0.19-0.16,0.24-0.39,0.13-0.62c-0.09-0.2-0.2-0.41-0.35-0.57c-0.26-0.27-0.55-0.5-0.83-0.75
		c-0.35-0.32-0.74-0.43-1.23-0.4c-2.93,0.14-5.85-0.03-8.77-0.28C138.3,56.84,137.48,56.78,136.65,56.71z M116.07,155.89
		c-0.01,0.03-0.03,0.06-0.04,0.09c0.15,0.07,0.29,0.16,0.45,0.21c0.78,0.27,1.56,0.53,2.35,0.8c2.63,0.9,5.22,1.9,7.72,3.12
		c0.15,0.08,0.34,0.17,0.49,0.15c0.73-0.08,1.44-0.24,2.05-0.66c0.41-0.28,0.49-0.62,0.2-1.03c-0.24-0.34-0.55-0.65-0.87-0.92
		c-0.74-0.61-1.57-1.06-2.41-1.51c-0.28-0.15-0.54-0.2-0.86-0.17c-1.62,0.16-3.25,0.18-4.87,0.11
		C118.86,156.03,117.46,155.96,116.07,155.89z M90.65,47.19c0.01-0.03,0.03-0.06,0.04-0.1c-0.8-0.28-1.61-0.54-2.41-0.83
		c-1.5-0.55-3.02-1.08-4.5-1.67c-1.3-0.52-2.57-1.12-3.85-1.68c-0.13-0.06-0.29-0.15-0.42-0.13c-0.69,0.1-1.39,0.24-1.99,0.64
		c-0.47,0.31-0.55,0.68-0.21,1.15c0.22,0.3,0.49,0.57,0.78,0.81c0.77,0.65,1.66,1.12,2.54,1.59c0.28,0.15,0.57,0.14,0.88,0.12
		c1.97-0.18,3.95-0.16,5.92-0.07C88.51,47.06,89.58,47.13,90.65,47.19z M65.87,150.22c0.01-0.03,0.02-0.07,0.03-0.1
		c-0.65-0.25-1.3-0.5-1.95-0.76c-1.75-0.68-3.49-1.39-5.11-2.34c-0.74-0.44-1.45-0.58-2.27-0.43c-0.74,0.13-1.49,0.21-2.19,0.48
		c-0.32,0.13-0.63,0.31-0.91,0.51c-0.24,0.18-0.3,0.46-0.17,0.74c0.08,0.18,0.18,0.36,0.31,0.51c0.24,0.26,0.51,0.48,0.76,0.72
		c0.31,0.29,0.65,0.38,1.09,0.36c2.75-0.16,5.5-0.05,8.25,0.16C64.43,150.13,65.15,150.18,65.87,150.22z M118.03,161.04
		c0,0.03,0,0.07,0,0.1c0.68,0.25,1.36,0.48,2.04,0.74c1.63,0.63,3.27,1.24,4.89,1.91c0.97,0.4,1.91,0.87,2.86,1.31
		c0.15,0.07,0.33,0.18,0.48,0.15c0.62-0.1,1.23-0.25,1.76-0.61c0.5-0.34,0.58-0.71,0.23-1.21c-0.22-0.3-0.49-0.57-0.77-0.81
		c-0.66-0.58-1.43-1-2.19-1.44c-0.32-0.18-0.63-0.24-1-0.2c-1.79,0.21-3.59,0.22-5.39,0.16C119.97,161.12,119,161.07,118.03,161.04z
		 M140.66,52.82c0.23,0.24,0.46,0.3,0.69,0.39c0.98,0.38,1.96,0.76,2.93,1.16c1.41,0.59,2.79,1.24,4.11,2.02
		c0.17,0.1,0.34,0.17,0.56,0.16c1-0.08,2-0.18,2.96-0.48c0.33-0.1,0.66-0.24,0.96-0.42c0.51-0.32,0.6-0.71,0.24-1.2
		c-0.23-0.32-0.54-0.59-0.82-0.87c-0.36-0.36-0.78-0.47-1.29-0.44c-2.55,0.15-5.1,0.05-7.65-0.12
		C142.47,52.96,141.6,52.89,140.66,52.82z M88.49,41.9c-0.83-0.3-1.63-0.57-2.42-0.87c-1.56-0.6-3.13-1.2-4.68-1.84
		c-0.88-0.36-1.72-0.8-2.59-1.2c-0.18-0.08-0.38-0.18-0.56-0.16c-0.68,0.08-1.33,0.27-1.88,0.7c-0.34,0.26-0.39,0.55-0.2,0.93
		c0.18,0.37,0.47,0.65,0.77,0.91c0.77,0.65,1.63,1.15,2.51,1.63c0.22,0.12,0.42,0.11,0.65,0.1c0.75-0.06,1.49-0.13,2.24-0.17
		c1.83-0.09,3.65-0.03,5.47,0.08C88.03,42.02,88.25,42.07,88.49,41.9z M77.97,148.01c9.81,2.84,19.77,4.93,29.87,6.32
		c-0.13-0.09-0.26-0.15-0.4-0.19c-0.97-0.26-1.93-0.54-2.9-0.78c-2.43-0.6-4.86-1.23-7.3-1.78c-5.84-1.32-11.72-2.45-17.63-3.38
		C79.06,148.12,78.51,148.07,77.97,148.01z M62.09,154.1c-0.29-0.14-0.48-0.25-0.69-0.33c-2.19-0.86-4.35-1.78-6.36-3.02
		c-0.19-0.12-0.4-0.19-0.64-0.16c-0.95,0.09-1.89,0.22-2.8,0.52c-0.31,0.1-0.61,0.24-0.88,0.42c-0.5,0.32-0.59,0.73-0.26,1.22
		c0.22,0.33,0.53,0.59,0.8,0.89c0.29,0.32,0.66,0.39,1.08,0.37c1-0.06,2-0.12,3-0.1C57.55,153.93,59.75,154.02,62.09,154.1z
		 M86.4,36.88c0.01-0.04,0.02-0.08,0.04-0.12c-0.15-0.07-0.3-0.15-0.45-0.21c-1.1-0.42-2.2-0.81-3.3-1.24
		c-1.77-0.69-3.51-1.45-5.19-2.34c-0.15-0.08-0.34-0.15-0.5-0.13c-0.57,0.1-1.12,0.27-1.6,0.61c-0.44,0.32-0.54,0.71-0.23,1.17
		c0.22,0.33,0.5,0.63,0.79,0.89c0.62,0.55,1.33,0.96,2.04,1.38c0.29,0.17,0.57,0.24,0.92,0.19c1.34-0.2,2.68-0.26,4.03-0.25
		C84.11,36.85,85.26,36.87,86.4,36.88z M144.67,49.05c0.05,0.04,0.1,0.09,0.16,0.12c2.33,0.91,4.64,1.88,6.78,3.2
		c0.14,0.08,0.33,0.12,0.49,0.11c0.9-0.07,1.79-0.19,2.66-0.46c0.35-0.11,0.71-0.26,1.03-0.45c0.54-0.33,0.62-0.74,0.29-1.27
		c-0.26-0.41-0.62-0.71-0.99-1.02c-0.21-0.17-0.43-0.23-0.7-0.21c-0.52,0.03-1.05,0.07-1.57,0.09c-2.58,0.07-5.16-0.02-7.73-0.22
		C144.94,48.92,144.78,48.86,144.67,49.05z M120.04,166.2c0,0.03-0.01,0.06-0.01,0.09c0.39,0.15,0.77,0.3,1.16,0.44
		c1.81,0.65,3.6,1.35,5.36,2.15c0.82,0.37,1.62,0.78,2.43,1.17c0.2,0.09,0.38,0.23,0.63,0.17c0.49-0.12,0.97-0.25,1.4-0.52
		c0.63-0.38,0.72-0.84,0.28-1.44c-0.18-0.24-0.39-0.45-0.62-0.65c-0.69-0.62-1.49-1.09-2.3-1.54c-0.21-0.12-0.42-0.13-0.65-0.1
		c-2.36,0.33-4.73,0.31-7.11,0.21C120.42,166.16,120.23,166.19,120.04,166.2z M98.95,48.86c3.68,1.38,26.21,6.08,29.44,6.14
		c-0.2-0.23-0.46-0.26-0.69-0.32c-2.01-0.53-4.02-1.09-6.04-1.57c-3.07-0.72-6.16-1.4-9.24-2.07c-1.64-0.35-3.29-0.65-4.95-0.94
		c-2.59-0.45-5.19-0.87-7.79-1.29c-0.17-0.03-0.35-0.04-0.52-0.04C99.1,48.78,99.04,48.83,98.95,48.86z M111.95,119.79
		c-7.75-2.44-15.63-4.09-23.65-5.11c-0.08-0.01-0.17,0-0.34,0.01c0.12,0.12,0.16,0.19,0.21,0.21c7.69,2.35,15.53,3.98,23.51,4.93
		C111.77,119.84,111.86,119.8,111.95,119.79z M121.98,171.29c-0.01,0.05-0.02,0.1-0.02,0.14c0.11,0.05,0.22,0.1,0.33,0.14
		c0.75,0.29,1.5,0.56,2.24,0.86c1.95,0.78,3.88,1.61,5.73,2.61c0.15,0.08,0.34,0.16,0.49,0.13c0.57-0.11,1.12-0.3,1.56-0.69
		c0.34-0.3,0.39-0.59,0.2-1.01c-0.17-0.37-0.45-0.66-0.75-0.93c-0.75-0.67-1.59-1.2-2.46-1.66c-1.24,0.21-2.46,0.33-3.68,0.35
		C124.4,171.27,123.19,171.27,121.98,171.29z M51.61,154.63c-0.95,0.08-1.89,0.21-2.8,0.5c-0.35,0.12-0.7,0.27-1.02,0.47
		c-0.53,0.34-0.62,0.76-0.29,1.28c0.2,0.31,0.48,0.57,0.73,0.85c0.25,0.28,0.56,0.35,0.95,0.33c1.15-0.07,2.3-0.14,3.44-0.13
		c1.75,0.02,3.5,0.1,5.25,0.15c0.09,0,0.21,0.02,0.24-0.16c-1.09-0.5-2.2-0.99-3.3-1.5C53.71,155.9,52.64,155.3,51.61,154.63z
		 M118.92,88.41c-4.51-1.85-21.25-5.33-24.58-5.14C98.98,84.98,112.88,87.95,118.92,88.41z M84.81,31.78
		c-0.3-0.22-0.58-0.31-0.85-0.42c-0.98-0.38-1.97-0.74-2.94-1.14c-1.62-0.67-3.22-1.39-4.76-2.23c-0.16-0.09-0.3-0.18-0.49-0.13
		c-0.51,0.14-1.01,0.29-1.44,0.62c-0.43,0.34-0.53,0.72-0.23,1.18c0.2,0.31,0.45,0.6,0.72,0.85c0.62,0.59,1.36,1.02,2.09,1.46
		c0.25,0.15,0.51,0.15,0.79,0.11c1.31-0.21,2.63-0.29,3.96-0.3C82.69,31.79,83.71,31.79,84.81,31.78z M148.24,45.08
		c0.29,0.13,0.59,0.26,0.88,0.39c1.64,0.69,3.25,1.43,4.79,2.31c0.38,0.22,0.71,0.61,1.18,0.62c0.45,0.01,0.9-0.08,1.34-0.17
		c0.56-0.12,1.12-0.26,1.67-0.43c0.28-0.09,0.55-0.25,0.78-0.43c0.4-0.3,0.46-0.62,0.24-1.06c-0.09-0.18-0.2-0.35-0.33-0.5
		c-0.27-0.32-0.58-0.62-0.9-0.81c-1.13,0.04-2.2,0.11-3.28,0.12c-1.05,0.02-2.1-0.01-3.15-0.02
		C150.39,45.11,149.32,44.97,148.24,45.08z M83.13,26.69c-1.91-0.82-3.69-1.55-5.45-2.34c-0.87-0.39-1.7-0.86-2.55-1.28
		c-0.17-0.09-0.34-0.22-0.56-0.15c-0.49,0.14-0.96,0.31-1.35,0.64c-0.4,0.34-0.48,0.67-0.21,1.13c0.17,0.3,0.4,0.58,0.64,0.82
		c0.6,0.61,1.33,1.05,2.06,1.51c0.23,0.14,0.46,0.16,0.72,0.11c1.95-0.36,3.93-0.4,5.91-0.4C82.57,26.73,82.79,26.71,83.13,26.69z
		 M54.69,161.92c-2.05-0.89-4.08-1.79-5.92-3.05c-0.18-0.12-0.36-0.17-0.56-0.14c-0.84,0.12-1.68,0.24-2.48,0.54
		c-0.32,0.12-0.65,0.28-0.93,0.48c-0.49,0.35-0.57,0.72-0.27,1.23c0.18,0.3,0.43,0.55,0.65,0.81c0.24,0.29,0.53,0.37,0.93,0.33
		c1.54-0.15,3.09-0.2,4.64-0.17c1.1,0.03,2.2,0.06,3.29,0.09c0.2,0,0.4-0.01,0.6-0.02C54.65,162.01,54.67,161.96,54.69,161.92z
		 M123.5,176.36c0.21,0.19,0.44,0.28,0.66,0.37c1.18,0.48,2.38,0.93,3.54,1.46c1.27,0.58,2.52,1.22,3.77,1.84
		c0.16,0.08,0.3,0.18,0.49,0.12c0.46-0.13,0.91-0.29,1.29-0.59c0.45-0.35,0.55-0.76,0.25-1.25c-0.2-0.31-0.45-0.6-0.72-0.86
		c-0.54-0.53-1.18-0.92-1.81-1.32c-0.29-0.19-0.57-0.25-0.92-0.18c-1.01,0.2-2.03,0.29-3.05,0.32
		C125.85,176.3,124.7,176.33,123.5,176.36z M151.88,41.01c0.04,0.07,0.05,0.12,0.09,0.15c0.13,0.08,0.26,0.15,0.4,0.21
		c1.86,0.8,3.7,1.65,5.38,2.79c0.17,0.12,0.35,0.19,0.56,0.17c1.02-0.13,2.03-0.28,2.98-0.72c0.2-0.09,0.4-0.22,0.57-0.36
		c0.36-0.3,0.45-0.66,0.23-1.07c-0.15-0.28-0.37-0.53-0.57-0.78c-0.3-0.38-0.67-0.51-1.18-0.45c-1.87,0.2-3.74,0.2-5.62,0.15
		C153.77,41.08,152.82,41.04,151.88,41.01z M132.93,185.14c0.75-0.2,1.18-0.4,1.47-0.68c0.33-0.32,0.43-0.68,0.22-1.09
		c-0.15-0.28-0.34-0.56-0.56-0.79c-0.6-0.65-1.34-1.12-2.08-1.59c-0.2-0.13-0.42-0.13-0.65-0.09c-0.34,0.07-0.69,0.13-1.03,0.18
		c-1.46,0.22-2.94,0.27-4.41,0.29c-0.24,0-0.48-0.03-0.77,0.12C127.81,182.6,130.44,183.69,132.93,185.14z M161.23,40.27
		c0.82-0.1,1.69-0.25,2.51-0.54c0.4-0.14,0.79-0.31,1.1-0.62c0.3-0.29,0.38-0.64,0.22-1.03c-0.17-0.4-0.46-0.71-0.76-1.01
		c-0.17-0.17-0.37-0.25-0.61-0.22c-0.3,0.03-0.6,0.07-0.89,0.09c-2.32,0.18-4.64,0.16-6.96,0.09c-0.11,0-0.25-0.07-0.33,0.15
		c0.95,0.47,1.91,0.91,2.85,1.42C159.3,39.11,160.21,39.68,161.23,40.27z M81.24,21.66c0.01-0.05,0.02-0.1,0.03-0.16
		c-0.1-0.05-0.21-0.1-0.31-0.15c-1.58-0.69-3.17-1.36-4.74-2.07c-0.77-0.35-1.51-0.78-2.26-1.18c-0.2-0.11-0.4-0.21-0.64-0.13
		c-0.4,0.14-0.8,0.29-1.13,0.58c-0.39,0.34-0.5,0.77-0.24,1.21c0.2,0.34,0.46,0.66,0.75,0.93c0.63,0.61,1.36,1.09,2.15,1.53
		C76.95,21.75,79.1,21.71,81.24,21.66z M42.53,166.2c0.98-0.07,1.95-0.15,2.92-0.19c0.95-0.04,1.9-0.04,2.84-0.05
		c0.95-0.01,1.9,0.08,3.01,0.03c-0.3-0.16-0.44-0.25-0.6-0.32c-1.73-0.77-3.44-1.6-4.99-2.7c-0.2-0.14-0.4-0.2-0.63-0.16
		c-0.81,0.13-1.63,0.26-2.4,0.57c-0.23,0.09-0.46,0.2-0.67,0.33c-0.66,0.42-0.77,0.94-0.35,1.59
		C41.89,165.65,42.18,165.96,42.53,166.2z M158.87,33.13c1.76,0.95,3.6,1.74,5.2,2.97c0.09,0.07,0.24,0.09,0.35,0.08
		c0.92-0.14,1.83-0.3,2.67-0.71c0.27-0.13,0.52-0.3,0.74-0.5c0.29-0.26,0.36-0.6,0.21-0.96c-0.1-0.23-0.23-0.45-0.38-0.64
		c-0.46-0.6-0.52-0.62-1.26-0.54c-0.12,0.01-0.25,0.03-0.37,0.04c-2.17,0.21-4.34,0.22-6.52,0.17
		C159.3,33.03,159.07,32.98,158.87,33.13z M42.26,166.87c-0.82,0.09-1.68,0.27-2.5,0.58c-0.38,0.14-0.74,0.32-1.03,0.61
		c-0.3,0.3-0.4,0.65-0.21,1.03c0.14,0.29,0.35,0.55,0.53,0.81c0.22,0.32,0.52,0.4,0.92,0.35c2.22-0.26,4.44-0.29,6.67-0.24
		c0.31,0.01,0.62-0.01,0.94-0.01c-0.83-0.59-1.74-0.98-2.59-1.47C44.11,168.02,43.24,167.47,42.26,166.87z M72.44,12.95
		c-0.53,0.14-0.98,0.35-1.35,0.69c-0.34,0.31-0.43,0.68-0.22,1.09c0.17,0.33,0.4,0.64,0.65,0.91c0.53,0.57,1.18,1,1.83,1.43
		c0.23,0.15,0.44,0.17,0.71,0.11c1.25-0.29,2.52-0.41,3.79-0.47c0.65-0.03,1.29-0.06,1.97-0.1c-0.05-0.07-0.07-0.12-0.11-0.14
		C77.24,15.38,74.74,14.35,72.44,12.95z M132.89,185.82c-0.38,0.07-0.72,0.15-1.06,0.21c-0.32,0.06-0.64,0.1-0.96,0.14
		c-0.35,0.04-0.7,0.08-1.04,0.12c-0.35,0.03-0.7,0.05-1.05,0.07c-0.32,0.02-0.65,0.02-0.97,0.05c-0.33,0.03-0.68-0.06-1.08,0.14
		c0.16,0.08,0.24,0.12,0.32,0.16c1.51,0.67,3.02,1.33,4.52,2.02c0.75,0.35,1.46,0.77,2.18,1.17c0.2,0.11,0.4,0.25,0.63,0.13
		c0.36-0.18,0.73-0.34,1.04-0.58c0.43-0.34,0.51-0.71,0.23-1.2c-0.19-0.34-0.45-0.67-0.73-0.95
		C134.34,186.73,133.65,186.26,132.89,185.82z M113.63,91.99c-0.3-0.11-0.6-0.24-0.91-0.32c-1.55-0.39-3.1-0.8-4.66-1.15
		c-1.51-0.35-3.03-0.67-4.55-0.95c-1.62-0.31-3.25-0.57-4.88-0.85c-0.34-0.06-0.68-0.09-1.01-0.01
		C102.88,90.16,108.21,91.27,113.63,91.99z M109.12,114.46c-0.57-0.25-1.02-0.39-1.48-0.5c-0.78-0.19-1.56-0.36-2.34-0.57
		c-3.69-0.96-7.44-1.62-11.2-2.26c-0.39-0.07-0.78-0.11-1.27-0.09C95.03,111.91,106.18,114.26,109.12,114.46z M84.61,144.73
		c0.11,0.04,0.23,0.08,0.34,0.11c1.16,0.29,2.32,0.61,3.5,0.87c4.64,1.03,9.29,2.05,13.99,2.8c0.2,0.03,0.4,0.05,0.61,0.08
		C96.96,146.98,90.82,145.7,84.61,144.73z M121.65,58.27c-5.91-1.56-11.88-2.8-17.91-3.77c0.75,0.3,1.52,0.5,2.3,0.68
		c4.42,1.01,8.86,1.94,13.32,2.78c0.64,0.12,1.29,0.2,1.93,0.29C121.41,58.27,121.53,58.27,121.65,58.27z"/>
</g>
</svg>
