<?xml version="1.0" encoding="utf-8"?>
<!-- Generator: Adobe Illustrator 23.0.3, SVG Export Plug-In . SVG Version: 6.00 Build 0)  -->
<svg version="1.1" id="Layer_1" xmlns="http://www.w3.org/2000/svg" xmlns:xlink="http://www.w3.org/1999/xlink" x="0px" y="0px"
	 viewBox="0 0 200 200" style="enable-background:new 0 0 200 200;" xml:space="preserve">
<style type="text/css">
	.st0{opacity:0.78;}
	.st1{fill:url(#SVGID_1_);}
</style>
<g class="st0">
	<linearGradient id="SVGID_1_" gradientUnits="userSpaceOnUse" x1="36.6275" y1="162.9557" x2="162.7821" y2="36.8011">
		<stop  offset="0" style="stop-color:#ED1E79"/>
		<stop  offset="0.4933" style="stop-color:#7E196E"/>
		<stop  offset="0.8398" style="stop-color:#371567"/>
		<stop  offset="1" style="stop-color:#1B1464"/>
	</linearGradient>
	<path class="st1" d="M62.53,111.48c-0.24-0.19-0.42-0.33-0.6-0.46c-12-8.71-24.01-17.41-36.02-26.11c-2.38-1.73-4.51-3.7-6.26-6.08
		c-2.18-2.96-3.54-6.26-4.04-9.9c-0.22-1.64-0.25-3.29-0.11-4.94c0.36-4.24,1.71-8.17,3.67-11.92c1.93-3.69,4.39-7.01,7.16-10.1
		c3.77-4.19,8.02-7.85,12.58-11.14c6.43-4.63,13.33-8.44,20.58-11.62c7.81-3.42,15.88-6.03,24.21-7.85
		c2.93-0.64,5.87-1.18,8.83-1.61c2.49-0.36,4.99-0.62,7.49-0.83c4.16-0.35,8.32-0.39,12.49-0.25c2.18,0.08,4.36,0.28,6.53,0.55
		c2.65,0.33,5.27,0.78,7.86,1.41c4.34,1.04,8.51,2.51,12.43,4.66c2.98,1.64,5.7,3.62,8.02,6.12c2.52,2.7,4.34,5.8,5.32,9.38
		c0.6,2.2,0.79,4.44,0.71,6.71c-0.1,2.79-0.7,5.48-1.62,8.1c-4.87,13.96-9.75,27.92-14.62,41.88c-0.08,0.24-0.16,0.48-0.24,0.71
		c0.12,0.3,0.4,0.41,0.62,0.57c4.19,3.05,8.38,6.09,12.58,9.13c7.77,5.64,15.54,11.27,23.31,16.9c2.05,1.48,3.93,3.14,5.53,5.09
		c2.2,2.67,3.74,5.67,4.51,9.05c0.51,2.25,0.65,4.51,0.46,6.81c-0.38,4.59-1.91,8.8-4.13,12.79c-1.96,3.53-4.38,6.72-7.09,9.69
		c-3.82,4.18-8.12,7.82-12.73,11.09c-6.27,4.46-12.98,8.14-20.02,11.22c-7.62,3.34-15.49,5.91-23.61,7.72
		c-3.02,0.67-6.06,1.24-9.13,1.69c-2.36,0.35-4.73,0.63-7.11,0.84c-3.65,0.33-7.3,0.4-10.96,0.36c-2.16-0.03-4.32-0.15-6.47-0.35
		c-5.09-0.49-10.1-1.41-14.96-3.03c-3.5-1.17-6.85-2.67-9.96-4.68c-2.58-1.67-4.89-3.63-6.83-6.02c-2.23-2.75-3.75-5.83-4.48-9.3
		c-0.38-1.8-0.48-3.62-0.42-5.45c0.08-2.5,0.55-4.94,1.35-7.31c1.08-3.2,2.2-6.38,3.31-9.56c3.87-11.09,7.74-22.17,11.61-33.26
		C62.37,111.96,62.44,111.74,62.53,111.48z M77.22,78.68c-0.31,0.13-0.23,0.36-0.15,0.59c-0.06,0.03-0.16,0.05-0.19,0.1
		c-0.07,0.16-0.12,0.33-0.17,0.5c-1.05,3.76-2.1,7.51-3.14,11.27c-0.04,0.14-0.05,0.29-0.09,0.49c0.33-0.14,0.52-0.31,0.6-0.6
		c0.06-0.22,0.11-0.44,0.17-0.66c0.94-3.71,1.87-7.41,2.8-11.13c0.06-0.19,0.12-0.38,0.17-0.58c0.01-0.1,0.01-0.21,0.02-0.31
		c-0.02,0-0.05,0-0.07,0.01C77.19,78.46,77.21,78.57,77.22,78.68z M122.2,121.12c0.28-0.15,0.23-0.38,0.14-0.61
		c0.28-0.18,0.28-0.21,0.14-0.61c0.16,0.02,0.22-0.07,0.26-0.21c0.27-0.95,0.54-1.9,0.81-2.85c0.79-2.8,1.57-5.6,2.35-8.4
		c0.06-0.2,0.19-0.41,0.1-0.65c-0.5,0.13-0.56,0.55-0.66,0.94c-0.47,1.86-0.93,3.73-1.41,5.59c-0.47,1.86-0.95,3.72-1.42,5.59
		c-0.05,0.2-0.1,0.4-0.15,0.61c-0.05,0.2-0.1,0.4-0.14,0.61c-0.01,0.09-0.02,0.18-0.04,0.27c0.02,0,0.05,0,0.07,0
		C122.23,121.31,122.22,121.21,122.2,121.12z M100.17,137.2c0.23,0.26,0.23,0.26,0.64,0.37c-0.3-0.15-0.39-0.4-0.65-0.36
		c-0.03-0.07-0.03-0.15-0.08-0.19c-0.51-0.41-1.03-0.81-1.54-1.22c-0.02-0.02-0.08,0.01-0.19,0.02c0.08,0.12,0.13,0.23,0.21,0.29
		c0.46,0.35,0.93,0.69,1.41,1.03C100.01,137.19,100.09,137.19,100.17,137.2z M118.53,136.83c0.07-0.02,0.17-0.01,0.2-0.05
		c0.08-0.13,0.13-0.27,0.18-0.42c0.5-1.43,1-2.87,1.49-4.31c0.04-0.12,0.09-0.24,0.11-0.36c0.03-0.27-0.05-0.49-0.34-0.66
		c-0.55,1.96-1.09,3.89-1.62,5.82c-0.02,0.11-0.05,0.21-0.09,0.41C118.67,137.06,118.62,136.95,118.53,136.83z M80.95,62.28
		c-0.04,0.06-0.09,0.12-0.12,0.19c-0.62,1.77-1.23,3.53-1.85,5.3c-0.03,0.1-0.07,0.19-0.08,0.29c-0.02,0.26,0.05,0.49,0.3,0.65
		c0.04-0.1,0.08-0.16,0.1-0.23c0.53-1.9,1.07-3.8,1.59-5.7c0.05-0.17,0.02-0.35,0.03-0.53c0.04-0.02,0.07-0.04,0.11-0.06
		c0.01,0,0-0.03-0.01-0.05C81.01,62.19,80.98,62.24,80.95,62.28z M104.43,139.65c0.25,0.34,0.26,0.33,0.7,0.5
		c-0.25-0.22-0.39-0.47-0.68-0.52c-0.09-0.12-0.16-0.25-0.27-0.35c-1.89-1.69-3.79-3.38-5.68-5.06c-0.11-0.1-0.24-0.17-0.41-0.3
		c-0.03,0.52,0.08,0.88,0.47,1.18c1.84,1.44,3.66,2.9,5.48,4.35C104.15,139.54,104.29,139.58,104.43,139.65z M107.71,138.36
		c-0.01,0.09-0.04,0.18-0.02,0.26c0.01,0.04,0.1,0.07,0.21,0.14c-0.09-0.17-0.15-0.28-0.2-0.39c-0.09-0.12-0.18-0.25-0.27-0.37
		c-2.25-3.28-4.5-6.57-6.75-9.85c-1.36-1.99-2.72-3.98-4.09-5.96c-0.14-0.2-0.22-0.46-0.53-0.56c0.02,0.18,0.02,0.33,0.04,0.48
		c0.08,0.48,0.18,0.95,0.23,1.42c0.04,0.42,0.2,0.77,0.46,1.1c3.44,4.42,6.87,8.86,10.31,13.28c0.12,0.16,0.25,0.32,0.4,0.46
		C107.54,138.4,107.64,138.36,107.71,138.36z M91.92,61.51c-0.03-0.08-0.05-0.17-0.09-0.25c-0.02-0.04-0.09-0.05-0.21-0.11
		c0.08,0.14,0.1,0.21,0.15,0.25c0.04,0.04,0.11,0.06,0.17,0.08c-0.02,0.31,0.22,0.5,0.37,0.72c2.31,3.39,4.63,6.78,6.95,10.16
		c1.22,1.78,2.43,3.56,3.65,5.33c0.1,0.15,0.17,0.37,0.46,0.4c-0.1-0.62-0.23-1.22-0.29-1.82c-0.05-0.48-0.24-0.86-0.53-1.23
		c-1.47-1.88-2.92-3.76-4.38-5.64c-1.91-2.46-3.82-4.93-5.74-7.39C92.29,61.84,92.2,61.58,91.92,61.51z M85.2,53.92
		c-0.02-0.04-0.04-0.07-0.06-0.11c0.02,0.03,0.05,0.06,0.07,0.1c0.01,0.25,0,0.51,0.04,0.76c0.25,1.55,0.5,3.1,0.75,4.65
		c0.64,3.9,1.28,7.8,1.92,11.71c0.58,3.58,1.15,7.16,1.73,10.73c0.02,0.14,0.1,0.27,0.16,0.41c0.14-0.04,0.24-0.06,0.33-0.09
		c2.11-0.79,4.26-1.48,6.45-2.05c0.14-0.04,0.26-0.11,0.44-0.18c-0.16-0.37-0.29-0.69-0.44-1.01c-3.09-6.84-6.18-13.68-9.27-20.51
		c-0.61-1.34-1.21-2.68-1.82-4.02C85.44,54.15,85.44,53.93,85.2,53.92z M114.2,145.87c0.02,0.03,0.05,0.06,0.07,0.09
		c-0.03-0.02-0.06-0.05-0.09-0.07c-0.01-0.25,0.01-0.51-0.02-0.75c-0.09-0.65-0.21-1.3-0.31-1.95c-0.44-2.65-0.88-5.3-1.31-7.96
		c-0.43-2.65-0.85-5.31-1.28-7.96c-0.45-2.75-0.89-5.51-1.35-8.26c-0.09-0.54-0.1-1.11-0.32-1.62c-0.05-0.01-0.07-0.03-0.09-0.03
		c-2.33,0.79-4.65,1.6-7.04,2.21c-0.04,0.01-0.08,0.06-0.13,0.09c-0.05,0.27,0.13,0.48,0.23,0.7c2.42,5.36,4.84,10.73,7.27,16.09
		c1.33,2.94,2.65,5.87,3.99,8.8C113.92,145.47,113.94,145.74,114.2,145.87z M106.48,189.43c-2.88-17.71-5.75-35.33-8.61-52.95
		c-0.24-0.18-0.46-0.35-0.69-0.51c-5.81-4.22-11.63-8.44-17.44-12.65c-0.16-0.12-0.32-0.25-0.5-0.35c-0.09-0.05-0.22-0.04-0.37-0.07
		c-0.07,0.73-0.13,1.41-0.19,2.09c-0.21,2.63-0.41,5.26-0.61,7.89c-0.2,2.66-0.41,5.31-0.61,7.97c-0.2,2.63-0.4,5.26-0.61,7.89
		c-0.2,2.66-0.41,5.31-0.61,7.97c-0.2,2.63-0.41,5.26-0.61,7.89c-0.2,2.66-0.41,5.31-0.61,7.97c-0.23,2.99-0.44,5.97-0.67,8.96
		c-0.06,0.81-0.13,1.62-0.19,2.43c-0.12,1.52-0.24,3.03-0.36,4.55c-0.01,0.1,0.02,0.2,0.04,0.31c0.23,0.06,0.45,0.13,0.67,0.18
		c3.16,0.66,6.35,1.09,9.57,1.35c2.48,0.2,4.97,0.25,7.46,0.27c0.61,0.01,1.22-0.05,1.83-0.05c2.36-0.01,4.72-0.18,7.07-0.39
		c1.74-0.15,3.48-0.38,5.22-0.58C105.91,189.57,106.15,189.5,106.48,189.43z M101.53,63.27c0.27,0.2,0.49,0.37,0.72,0.53
		c4.95,3.59,9.9,7.18,14.86,10.78c0.97,0.7,1.93,1.4,2.9,2.1c0.14,0.1,0.26,0.25,0.52,0.13c0.02-0.19,0.06-0.41,0.07-0.63
		c0.07-0.91,0.13-1.82,0.2-2.73c0.14-1.77,0.28-3.54,0.41-5.31c0.12-1.54,0.23-3.09,0.35-4.63c0.13-1.72,0.27-3.44,0.4-5.16
		c0.12-1.57,0.23-3.14,0.35-4.71c0.13-1.62,0.26-3.24,0.39-4.86c0.13-1.64,0.24-3.29,0.36-4.93c0.2-2.58,0.4-5.16,0.6-7.74
		c0.06-0.78,0.12-1.57,0.18-2.35c0.13-1.64,0.27-3.29,0.39-4.93c0.12-1.62,0.23-3.24,0.36-4.86c0.18-2.28,0.36-4.55,0.54-6.83
		c0.15-1.87,0.29-3.74,0.43-5.62c0.01-0.19-0.01-0.39-0.01-0.57c-0.12-0.05-0.19-0.09-0.26-0.11c-0.12-0.03-0.25-0.06-0.37-0.09
		c-2.84-0.59-5.7-0.99-8.58-1.26c-2.68-0.25-5.37-0.37-8.06-0.36c-2.82,0-5.64,0.09-8.44,0.37c-2.07,0.21-4.14,0.43-6.21,0.66
		c-0.22,0.02-0.43,0.1-0.66,0.15c0,0.15-0.01,0.25,0,0.35C95.83,28.19,98.68,45.71,101.53,63.27z M142.56,178.69
		c0.23-0.1,0.42-0.17,0.6-0.25c4.59-2.19,9.03-4.64,13.28-7.42c4.39-2.87,8.54-6.05,12.35-9.65c0.2-0.19,0.39-0.39,0.59-0.6
		c-0.2-0.26-0.37-0.49-0.54-0.71c-11.28-14.55-22.56-29.09-33.84-43.64c-1.77-2.29-3.55-4.58-5.32-6.86
		c-0.15-0.19-0.26-0.43-0.58-0.55c-1.33,3.77-2.63,7.53-3.94,11.28c-1.32,3.78-2.64,7.56-3.95,11.3
		C121.92,133.39,142.17,178.09,142.56,178.69z M30.02,38.97c0.24,0.32,0.42,0.56,0.61,0.8C42.27,54.78,53.9,69.79,65.54,84.8
		c1.43,1.85,2.86,3.69,4.3,5.54c0.11,0.15,0.2,0.35,0.42,0.38c0.28-0.54,7.72-21.79,7.93-22.66c-7.06-15.59-14.13-31.21-21.2-46.84
		c-0.02-0.04-0.08-0.06-0.13-0.09c-0.04,0-0.1-0.01-0.14,0c-0.19,0.08-0.37,0.16-0.56,0.24c-3.62,1.72-7.15,3.62-10.58,5.72
		c-5.34,3.27-10.37,6.97-14.93,11.27C30.46,38.54,30.26,38.74,30.02,38.97z M98.69,137.08c-0.05,0.09-0.09,0.14-0.09,0.17
		c2.76,17.07,5.53,34.14,8.29,51.22c0.04,0.27,0.11,0.54,0.17,0.85c0.15,0,0.28,0.01,0.4,0c4.9-0.71,9.73-1.75,14.51-3.05
		c6.72-1.83,13.25-4.19,19.58-7.08c0.13-0.06,0.25-0.15,0.38-0.22c-0.02-0.11-0.03-0.19-0.06-0.25
		c-6.94-15.34-13.88-30.69-20.83-46.03c-0.01-0.02-0.03-0.04-0.06-0.05c-0.02-0.01-0.04,0-0.11,0c-0.08,0.21-0.18,0.44-0.27,0.68
		c-0.98,2.8-1.95,5.6-2.93,8.4c-0.76,2.18-1.52,4.36-2.28,6.54c-0.08,0.23-0.1,0.5-0.37,0.66c-0.91-0.66-1.81-1.31-2.72-1.96
		c-0.9-0.66-1.81-1.31-2.71-1.97c-0.9-0.66-1.81-1.31-2.71-1.97c-0.92-0.67-1.85-1.34-2.77-2.01c-0.9-0.66-1.8-1.32-2.71-1.97
		C100.5,138.38,99.62,137.7,98.69,137.08z M57.5,20.81c0.01,0.07,0,0.15,0.03,0.21c6.94,15.35,13.88,30.69,20.83,46.04
		c0.02,0.04,0.07,0.05,0.15,0.1c0.07-0.16,0.15-0.32,0.21-0.48c0.5-1.41,0.99-2.82,1.49-4.24c1.27-3.64,2.54-7.28,3.81-10.92
		c0.08-0.23,0.11-0.49,0.34-0.69c0.18,0.12,0.35,0.23,0.51,0.34c1.91,1.39,3.82,2.77,5.73,4.16c3.19,2.31,6.37,4.62,9.56,6.93
		c0.19,0.14,0.35,0.35,0.68,0.36c-0.02-0.24-0.04-0.44-0.07-0.64c-0.11-0.73-0.24-1.45-0.35-2.18c-0.33-2.05-0.67-4.11-1-6.16
		c-0.33-2-0.65-4.01-0.97-6.01c-0.38-2.35-0.77-4.71-1.15-7.06c-0.38-2.33-0.75-4.66-1.13-6.99c-0.38-2.35-0.77-4.71-1.15-7.06
		c-0.38-2.33-0.75-4.66-1.13-6.99c-0.44-2.7-0.88-5.41-1.32-8.11c-0.06-0.34-0.08-0.7-0.23-1.02c-2.64,0.17-11.21,1.87-18.21,4
		C68.88,16.02,59.25,19.69,57.5,20.81z M16.53,60.98c0.21,0.2,0.4,0.37,0.59,0.54c11.43,10.19,22.86,20.37,34.29,30.56
		c0.78,0.69,0.78,0.7,1.81,0.78c0.08,0.01,0.15,0.01,0.23,0.01c1.24,0.07,2.48,0.15,3.73,0.22c3.99,0.22,7.97,0.03,11.95-0.24
		c0.15-0.01,0.29-0.06,0.45-0.09c0.06-0.12,0.11-0.24,0.16-0.35c0.36-1.04,0.42-0.76-0.25-1.62c-9.17-11.84-18.35-23.67-27.53-35.5
		C38.01,50.19,34.06,45.1,30.1,40c-0.15-0.19-0.32-0.38-0.5-0.59c-0.15,0.13-0.27,0.22-0.38,0.33c-2.84,2.85-5.43,5.9-7.62,9.29
		c-1.9,2.93-3.45,6.03-4.46,9.38C16.91,59.23,16.66,60.06,16.53,60.98z M182.87,138.77c-0.22-0.2-0.41-0.38-0.6-0.54
		c-11.47-10.22-22.93-20.44-34.39-30.67c-0.44-0.39-0.89-0.63-1.48-0.66c-1.6-0.08-3.19-0.23-4.79-0.28
		c-3.17-0.11-6.35-0.04-9.52,0.14c-0.63,0.04-1.27,0.09-1.9,0.14c-0.12,0.01-0.24,0.05-0.37,0.08c-0.06,0.13-0.11,0.24-0.15,0.36
		c-0.35,1.04-0.42,0.74,0.26,1.62c10.42,13.44,20.84,26.88,31.26,40.32c2.68,3.45,5.35,6.9,8.03,10.35c0.18,0.23,0.34,0.49,0.6,0.69
		c0.14-0.12,0.26-0.22,0.37-0.32c2.83-2.82,5.4-5.86,7.58-9.22c1.91-2.95,3.48-6.07,4.49-9.45
		C182.51,140.51,182.76,139.69,182.87,138.77z M73.15,188.69c0.18-0.35,0.15-0.66,0.18-0.96c0.12-1.64,0.24-3.29,0.37-4.93
		c0.14-1.8,0.28-3.59,0.42-5.39c0.12-1.52,0.23-3.04,0.35-4.55c0.13-1.62,0.26-3.24,0.39-4.86c0.13-1.64,0.24-3.29,0.36-4.93
		c0.18-2.28,0.37-4.55,0.54-6.83c0.13-1.67,0.24-3.34,0.37-5.01c0.23-2.93,0.47-5.87,0.7-8.8c0.18-2.33,0.34-4.66,0.52-6.98
		c0.06-0.76,0.12-1.52,0.18-2.28c0.13-1.69,0.27-3.39,0.4-5.08c0.08-1.06,0.17-2.12,0.25-3.19c0.03-0.43,0.05-0.86,0.07-1.29
		c0-0.07-0.03-0.14-0.06-0.26c-0.15,0.07-0.29,0.11-0.42,0.18c-0.5,0.3-1,0.6-1.5,0.91c-4.37,2.7-8.53,5.69-12.4,9.07
		c-0.36,0.31-0.6,0.65-0.72,1.12c-1.06,4.28-2.15,8.56-3.23,12.83c-2.27,8.97-4.54,17.94-6.81,26.91c-0.24,0.96-0.46,1.92-0.73,2.88
		c-0.11,0.38-0.03,0.63,0.24,0.87c0.13,0.12,0.25,0.26,0.37,0.38c1.62,1.63,3.41,3.04,5.35,4.26
		C62.89,185.65,67.88,187.45,73.15,188.69z M147.15,22.01c-0.43-0.44-0.81-0.84-1.21-1.23c-2.28-2.2-4.88-3.96-7.69-5.42
		c-3.6-1.87-7.4-3.18-11.34-4.14c-0.21-0.05-0.43-0.09-0.69-0.14c-0.04,0.24-0.1,0.44-0.11,0.63c-0.12,1.62-0.24,3.24-0.36,4.86
		c-0.06,0.81-0.12,1.62-0.19,2.43c-0.13,1.72-0.27,3.44-0.4,5.16c-0.12,1.57-0.23,3.14-0.35,4.71c-0.13,1.62-0.26,3.24-0.39,4.86
		c-0.13,1.64-0.24,3.29-0.36,4.93c-0.2,2.58-0.4,5.16-0.6,7.74c-0.06,0.78-0.12,1.57-0.18,2.35c-0.13,1.64-0.26,3.29-0.39,4.93
		c-0.12,1.62-0.23,3.24-0.36,4.86c-0.18,2.25-0.36,4.5-0.54,6.75c-0.18,2.33-0.34,4.66-0.52,6.98c-0.07,0.91-0.16,1.82-0.23,2.73
		c-0.03,0.45-0.09,0.9-0.03,1.42c0.22-0.11,0.4-0.18,0.57-0.27c4.88-2.9,9.49-6.16,13.78-9.89c0.38-0.33,0.61-0.71,0.73-1.19
		c1.06-4.26,2.14-8.51,3.22-12.76c2.27-8.97,4.54-17.94,6.81-26.92C146.58,24.28,146.86,23.18,147.15,22.01z M50.99,92.56
		c-0.16-0.27-0.35-0.4-0.51-0.54c-10.24-9.12-20.47-18.25-30.71-27.37c-1-0.9-2.01-1.79-3.02-2.68c-0.1-0.09-0.24-0.13-0.42-0.22
		c-0.08,0.68-0.16,1.28-0.23,1.88c-0.24,2.19-0.15,4.36,0.28,6.51c0.73,3.67,2.38,6.88,4.8,9.72c0.28,0.33,0.6,0.62,0.95,0.87
		c1.7,1.24,3.41,2.48,5.09,3.74c1.55,1.17,3.21,2.13,4.95,2.98c5.79,2.83,11.96,4.31,18.31,5.11
		C50.63,92.59,50.77,92.56,50.99,92.56z M183.02,138c0.18-0.66,0.22-1.26,0.29-1.86c0.23-2.18,0.15-4.36-0.28-6.51
		c-0.72-3.64-2.36-6.83-4.74-9.66c-0.3-0.35-0.62-0.66-0.99-0.93c-1.93-1.4-3.84-2.83-5.78-4.23c-0.59-0.43-1.21-0.83-1.85-1.2
		c-3.19-1.87-6.6-3.23-10.14-4.27c-2.68-0.79-5.41-1.36-8.16-1.81c-0.68-0.11-1.36-0.2-2.03-0.29c-0.13-0.02-0.25-0.03-0.38-0.03
		c-0.14,0-0.3-0.08-0.42,0.1c0.04,0.06,0.06,0.13,0.11,0.18c11.37,10.13,22.74,20.27,34.11,30.4
		C182.8,137.91,182.88,137.93,183.02,138z M91.01,89.77c0.02,0.18,0.03,0.41,0.07,0.63c0.34,2.1,0.68,4.2,1.02,6.31
		c0.09,0.53,0.22,1.03,0.45,1.52c2.11,4.64,4.21,9.29,6.31,13.93c0.1,0.23,0.22,0.45,0.35,0.7c0.19-0.04,0.36-0.06,0.53-0.12
		c2.71-0.92,5.45-1.78,8.22-2.52c0.16-0.04,0.31-0.13,0.47-0.2c-0.02-0.22-0.02-0.39-0.05-0.57c-0.35-2.15-0.7-4.31-1.05-6.46
		c-0.07-0.42-0.15-0.84-0.33-1.24c-2.17-4.78-4.33-9.56-6.5-14.35c-0.08-0.18-0.18-0.35-0.27-0.51c-0.09-0.01-0.15-0.02-0.19-0.01
		c-2.91,0.97-5.83,1.9-8.8,2.7c-0.05,0.01-0.09,0.05-0.13,0.08C91.07,89.68,91.06,89.71,91.01,89.77z M136.93,64.86
		c0.08-0.01,0.11-0.01,0.13-0.02c0.1-0.07,0.21-0.15,0.3-0.23c2.28-2.14,4.43-4.4,6.37-6.85c2.79-3.52,5.13-7.3,6.7-11.53
		c0.04-0.12,0.06-0.28,0.15-0.34c0.37-0.26,0.43-0.67,0.56-1.05c0.36-1.03,0.72-2.06,1.07-3.09c0.07-0.22,0.16-0.43,0.2-0.65
		c0.3-1.62,0.48-3.27,0.45-4.92c-0.03-1.24-0.14-2.48-0.38-3.7c-0.69-3.57-2.23-6.72-4.53-9.52c-0.09-0.1-0.21-0.18-0.33-0.27
		C147.38,23.27,137.16,63.61,136.93,64.86z M51.72,177.08c0.07-0.06,0.12-0.08,0.14-0.11c0.04-0.07,0.07-0.14,0.09-0.21
		c3.51-13.91,7.02-27.82,10.53-41.73c0.01-0.02-0.01-0.05-0.02-0.07c-0.01-0.02-0.03-0.03-0.08-0.06c-0.11,0.09-0.23,0.17-0.34,0.28
		c-1.78,1.67-3.48,3.41-5.06,5.27c-3.38,3.97-6.21,8.27-8.03,13.19c-0.04,0.12-0.09,0.26-0.18,0.32c-0.25,0.15-0.3,0.4-0.39,0.63
		c-0.4,1.15-0.8,2.3-1.19,3.45c-0.1,0.31-0.18,0.63-0.24,0.96c-0.2,1.07-0.29,2.16-0.36,3.25c-0.11,1.56,0.01,3.1,0.27,4.62
		c0.61,3.63,2.12,6.86,4.42,9.73C51.42,176.75,51.57,176.91,51.72,177.08z M147.08,54.84c-0.06,0.03-0.12,0.04-0.15,0.07
		c-0.08,0.09-0.16,0.19-0.23,0.3c-2.18,3.11-4.67,5.94-7.4,8.57c-0.34,0.33-0.57,0.68-0.7,1.14c-1.82,6.57-3.66,13.13-5.49,19.69
		c-0.07,0.24-0.12,0.49-0.17,0.71c0.44,0.45,2.24,1.76,2.84,2.08c0.05-0.05,0.12-0.1,0.14-0.16c3.72-10.72,7.44-21.45,11.16-32.17
		C147.1,55,147.08,54.92,147.08,54.84z M73.51,95.58c-0.41,1.47-0.74,2.87-1.1,4.26c-0.36,1.42-0.72,2.85-1.08,4.27
		c-0.35,1.4-0.73,2.78-1.05,4.2c2.87,2.56,5.71,5.09,8.56,7.61c0.05,0.05,0.13,0.06,0.25,0.11c0.03-0.17,0.07-0.31,0.09-0.44
		c0.14-1.69,0.27-3.39,0.41-5.08c0.09-1.09,0.17-2.17,0.26-3.26c0.07-0.94,0.13-1.87,0.21-2.81c0.03-0.35-0.07-0.63-0.29-0.9
		c-1.97-2.52-3.92-5.05-5.88-7.57C73.79,95.86,73.68,95.76,73.51,95.58z M120.32,83.61c-0.04,0.24-0.07,0.34-0.08,0.44
		c-0.09,1.04-0.17,2.07-0.26,3.11c-0.14,1.8-0.28,3.59-0.42,5.39c-0.07,0.91-0.13,1.82-0.2,2.73c-0.03,0.35,0.05,0.63,0.27,0.91
		c1.98,2.54,3.95,5.09,5.93,7.64c0.08,0.11,0.2,0.18,0.37,0.33c1.08-4.28,2.14-8.47,3.21-12.69
		C126.21,88.85,123.32,86.27,120.32,83.61z M63.68,112.29c-0.07,0.06-0.13,0.09-0.15,0.13c-3.73,10.75-7.46,21.5-11.19,32.25
		c-0.02,0.07,0,0.15,0,0.29c0.14-0.15,0.24-0.26,0.32-0.37c0.67-0.89,1.32-1.8,2.01-2.68c1.51-1.92,3.15-3.71,4.89-5.43
		c0.28-0.27,0.48-0.57,0.57-0.96c0.13-0.59,0.32-1.17,0.49-1.76c1.76-6.32,3.52-12.64,5.29-18.97c0.07-0.24,0.12-0.48,0.18-0.73
		c-0.19-0.15-0.35-0.28-0.51-0.4C64.94,113.21,64.3,112.75,63.68,112.29z M86.79,90.76c0,0.58-0.02,1.14,0,1.69
		c0.12,2.43,0.26,4.86,0.39,7.3c0.08,1.47,0.14,2.94,0.21,4.41c0.05,1.09,0.12,2.18,0.17,3.27c0.02,0.42,0.14,0.78,0.38,1.13
		c1.46,2.11,2.9,4.22,4.35,6.34c0.11,0.16,0.24,0.32,0.4,0.51c0.57-0.23,1.13-0.46,1.72-0.69c-0.02-0.26-0.02-0.49-0.05-0.71
		c-0.36-2.23-0.72-4.45-1.08-6.68c-0.45-2.75-0.89-5.51-1.35-8.26c-0.1-0.62-0.15-1.25-0.42-1.85c-0.98-2.12-1.93-4.25-2.89-6.37
		c-0.07-0.16-0.17-0.3-0.26-0.46C87.78,90.43,87.27,90.56,86.79,90.76z M112.68,108.98c-0.02-0.59-0.04-1.12-0.06-1.65
		c-0.13-2.48-0.27-4.97-0.39-7.45c-0.07-1.44-0.13-2.89-0.21-4.34c-0.05-1.09-0.12-2.18-0.17-3.27c-0.02-0.39-0.13-0.73-0.36-1.06
		c-1.49-2.15-2.96-4.31-4.44-6.47c-0.1-0.14-0.22-0.26-0.35-0.42c-0.57,0.28-1.16,0.41-1.71,0.76c0.03,0.29,0.06,0.57,0.1,0.84
		c0.07,0.48,0.16,0.95,0.24,1.43c0.33,2.03,0.65,4.06,0.98,6.08c0.39,2.38,0.79,4.75,1.16,7.13c0.15,0.96,0.38,1.87,0.8,2.76
		c0.84,1.77,1.62,3.56,2.43,5.33c0.1,0.23,0.22,0.45,0.34,0.68C111.61,109.33,112.11,109.17,112.68,108.98z M121.02,77.36
		c0.16,0.15,0.23,0.23,0.31,0.28c1.19,0.87,2.38,1.73,3.58,2.59c0.25,0.18,0.52,0.32,0.79,0.44c1.32,0.6,2.56,1.34,3.73,2.2
		c0.51,0.38,1.02,0.75,1.54,1.12c0.12,0.08,0.25,0.14,0.38,0.21c0.28-0.62,2.84-10.57,4.28-16.59c0.03-0.12,0.03-0.24,0.06-0.51
		c-0.76,0.59-1.38,1.15-2.03,1.66c-0.68,0.53-1.36,1.07-2.04,1.59c-0.67,0.51-1.34,1-2.02,1.49c-0.68,0.49-1.37,0.96-2.06,1.43
		c-0.69,0.47-1.39,0.93-2.1,1.38c-0.73,0.47-1.46,0.92-2.19,1.37C122.53,76.46,121.81,76.88,121.02,77.36z M63.75,132.61
		c0.61-0.5,1.11-0.92,1.62-1.33c0.51-0.41,1.03-0.82,1.55-1.23c0.52-0.4,1.05-0.8,1.58-1.19c0.53-0.39,1.06-0.78,1.6-1.16
		c0.52-0.37,1.04-0.73,1.56-1.09c0.55-0.37,1.09-0.74,1.65-1.1c0.55-0.36,1.11-0.72,1.67-1.06c0.56-0.35,1.13-0.68,1.68-1.04
		c0.55-0.35,1.16-0.6,1.68-1.06c-0.14-0.12-0.25-0.23-0.37-0.32c-1.25-0.91-2.5-1.82-3.76-2.72c-0.27-0.19-0.56-0.35-0.86-0.49
		c-1.09-0.5-2.13-1.08-3.11-1.76c-0.54-0.38-1.06-0.78-1.59-1.17c-0.18-0.13-0.38-0.24-0.6-0.39c-0.07,0.15-0.14,0.26-0.17,0.38
		C67.35,117.72,63.83,131.86,63.75,132.61z M34.2,89.39c-0.03,0.03-0.05,0.07-0.08,0.1c0.24,0.18,0.48,0.37,0.72,0.55
		c6.86,4.98,13.72,9.96,20.59,14.95c2.28,1.66,4.56,3.31,6.85,4.96c0.19,0.14,0.36,0.35,0.66,0.34c0.27-0.75,0.58-1.47,0.75-2.23
		c-0.1-0.09-0.17-0.17-0.25-0.23c-6.4-5.09-12.79-10.18-19.19-15.28c-0.29-0.23-0.6-0.36-0.96-0.43c-2.93-0.63-5.8-1.46-8.59-2.56
		C34.53,89.49,34.36,89.45,34.2,89.39z M165.25,110.35c0.01-0.04,0.03-0.07,0.04-0.11c-0.24-0.18-0.48-0.37-0.73-0.54
		c-6.33-4.6-12.65-9.19-18.98-13.78c-2.81-2.04-5.63-4.08-8.45-6.12c-0.19-0.14-0.37-0.34-0.67-0.36c-0.2,0.59-0.4,1.16-0.61,1.76
		c0.24,0.2,0.45,0.37,0.67,0.54c3.91,3.12,7.82,6.23,11.74,9.35c2.6,2.07,5.21,4.14,7.8,6.22c0.34,0.28,0.71,0.45,1.14,0.56
		c2.59,0.61,5.14,1.37,7.62,2.36C164.96,110.28,165.11,110.31,165.25,110.35z M145.4,106.1c-0.05-0.13-0.07-0.21-0.11-0.25
		c-0.65-0.67-10.65-9.51-11.08-9.79c-0.07,0.16-0.16,0.31-0.21,0.46c-0.47,1.43-1.1,2.78-1.87,4.07c-0.13,0.22-0.25,0.44-0.33,0.68
		c-0.54,1.5-1.06,3.01-1.58,4.52c-0.05,0.13-0.04,0.28-0.07,0.49c2.58-0.25,5.11-0.32,7.64-0.38
		C140.31,105.83,142.83,105.98,145.4,106.1z M69.3,93.53c-0.26,0-0.48-0.01-0.7,0c-0.23,0.01-0.45,0.05-0.68,0.07
		c-0.23,0.02-0.46,0.02-0.68,0.04c-0.25,0.01-0.51,0.02-0.76,0.03c-0.23,0.01-0.45,0.04-0.68,0.06c-0.23,0.02-0.46,0.03-0.68,0.04
		c-0.23,0.01-0.46,0.02-0.68,0.02c-0.23,0-0.46,0.01-0.68,0.01c-0.23,0-0.46,0.01-0.68,0.02c-0.23,0-0.46,0-0.68,0.01
		c-0.23,0-0.46,0.01-0.68,0.02c-0.25,0.01-0.51,0.01-0.76,0.01c-0.23,0-0.46,0-0.68,0c-0.23,0-0.46-0.01-0.68-0.01
		c-0.23-0.01-0.46-0.02-0.68-0.02c-0.23,0-0.46,0-0.68-0.01c-0.23,0-0.46-0.01-0.68-0.02c-0.23-0.01-0.46-0.01-0.68-0.01
		c-0.25-0.01-0.51-0.01-0.76-0.02c-0.23-0.01-0.46-0.02-0.68-0.04c-0.23-0.02-0.45-0.05-0.68-0.06c-0.21-0.01-0.44-0.06-0.68,0.03
		c0.06,0.11,0.09,0.18,0.14,0.23c3.61,3.22,7.23,6.45,10.85,9.67c0.05,0.05,0.13,0.06,0.24,0.1c0.08-0.22,0.17-0.43,0.24-0.64
		c0.48-1.53,1.16-2.97,1.98-4.34c0.14-0.24,0.26-0.49,0.35-0.75c0.46-1.29,0.9-2.58,1.35-3.87C69.21,93.91,69.24,93.74,69.3,93.53z
		 M112.9,144.99c0.03-0.21,0.05-0.27,0.04-0.3c-3.72-8.23-7.44-16.45-11.16-24.67c-0.03-0.06-0.1-0.11-0.18-0.21
		c-1.69,0.34-3.39,0.68-5.11,1.02c0.02,0.11,0.01,0.19,0.05,0.25C101.97,129.01,107.4,136.94,112.9,144.99z M86.58,54.88
		c-0.05,0.02-0.1,0.05-0.14,0.07c0.1,0.25,0.2,0.5,0.31,0.75c1.48,3.28,2.97,6.57,4.45,9.85c2.03,4.48,4.05,8.97,6.09,13.45
		c0.11,0.25,0.16,0.54,0.42,0.7c1.69-0.34,3.38-0.68,5.16-1.04C97.41,70.7,92,62.79,86.58,54.88z M116.27,79.99
		c-0.79,0.3-3.99,1.89-4.37,2.17c0,0.11-0.01,0.23,0,0.36c0.06,1.19,0.12,2.38,0.17,3.57c0.01,0.31,0.16,0.52,0.33,0.75
		c2.01,2.59,4.02,5.18,6.03,7.76c0.09,0.11,0.2,0.2,0.42,0.42c0.1-1.45,0.21-2.76,0.3-4.07c0.1-1.32,0.21-2.63,0.3-3.95
		c0.1-1.31,0.25-2.62,0.27-3.95C118.56,82.04,117.42,81.02,116.27,79.99z M87.27,117.77c0.03-0.13,0.06-0.2,0.05-0.27
		c-0.07-1.39-0.16-2.78-0.23-4.17c-0.01-0.27-0.12-0.48-0.28-0.68c-1.96-2.52-3.91-5.05-5.87-7.57c-0.07-0.09-0.17-0.15-0.3-0.27
		c-0.05,0.16-0.09,0.26-0.1,0.35c-0.26,3.84-0.61,7.67-0.86,11.46c0.66,0.71,3.05,2.82,3.55,3.13
		C84.57,119.09,85.93,118.42,87.27,117.77z M119.69,128.23c0.05,0,0.1,0,0.15,0c1.6-6.34,3.2-12.67,4.8-19.01
		c0.02-0.09,0.02-0.19,0.03-0.36c-1.13,0.81-2.18,1.59-3.27,2.33c-1.11,0.75-2.26,1.44-3.42,2.18c-0.1,1.18-0.19,2.37-0.29,3.56
		c-0.14,1.77-0.27,3.54-0.42,5.31c-0.04,0.42,0.02,0.79,0.2,1.18c0.66,1.43,1.3,2.86,1.95,4.3
		C119.5,127.88,119.6,128.06,119.69,128.23z M79.72,71.53c-0.05,0-0.1,0-0.15,0c-1.57,6.21-3.14,12.42-4.71,18.63
		c-0.02,0.09-0.01,0.19-0.03,0.44c0.79-0.61,1.48-1.15,2.2-1.64c0.71-0.49,1.42-0.97,2.15-1.44c0.74-0.48,1.5-0.93,2.27-1.4
		c0.09-1.11,0.18-2.19,0.26-3.28c0.14-1.77,0.27-3.54,0.42-5.31c0.04-0.42-0.02-0.79-0.2-1.17c-0.66-1.43-1.3-2.86-1.94-4.29
		C79.91,71.87,79.81,71.7,79.72,71.53z M64.84,104.77c-0.15-0.12-0.31-0.23-0.46-0.37c-3.94-3.51-7.89-7.03-11.82-10.55
		c-0.28-0.25-0.57-0.38-0.94-0.42c-1.76-0.22-3.52-0.48-5.28-0.7c-0.31-0.04-0.62-0.21-1-0.1c0.14,0.27,0.37,0.39,0.56,0.54
		c4.67,3.72,9.33,7.43,14,11.15c1.19,0.95,2.38,1.9,3.58,2.84c0.13,0.1,0.25,0.27,0.51,0.17C64.25,106.52,64.6,105.71,64.84,104.77z
		 M154.05,107.15c0-0.04,0-0.07-0.01-0.09c-0.04-0.06-0.09-0.12-0.15-0.17c-6.08-4.84-12.16-9.67-18.24-14.51
		c-0.02-0.02-0.05-0.02-0.07-0.03c-0.02,0-0.05,0.01-0.15,0.03c-0.27,0.82-0.63,1.64-0.85,2.53c0.25,0.23,0.46,0.44,0.69,0.64
		c2.88,2.57,5.76,5.13,8.64,7.7c1,0.9,2.01,1.79,3.01,2.69c0.21,0.19,0.42,0.32,0.73,0.35c2.07,0.21,4.13,0.47,6.18,0.86
		C153.9,107.18,153.98,107.16,154.05,107.15z M112.58,92.87c-0.21,0.14-0.12,0.3-0.11,0.44c0.1,2.1,0.21,4.21,0.32,6.31
		c0.08,1.55,0.14,3.09,0.22,4.64c0.07,1.39,0.16,2.79,0.24,4.18c0.01,0.14,0.06,0.27,0.1,0.41c2.05-0.35,3.91-0.76,4.51-1.01
		c0.16-2.05,0.31-4.12,0.48-6.19c0.03-0.33-0.1-0.58-0.28-0.84c-1.75-2.55-3.5-5.11-5.25-7.66
		C112.73,93.04,112.65,92.96,112.58,92.87z M85.95,90.9c-1.52,0.34-2.94,0.59-4.34,0.92c-0.02,0.16-0.05,0.29-0.06,0.41
		c-0.09,1.06-0.18,2.12-0.26,3.18c-0.07,0.83-0.11,1.67-0.19,2.5c-0.03,0.4,0.04,0.73,0.28,1.06c0.79,1.12,1.55,2.25,2.33,3.38
		c0.89,1.3,1.78,2.59,2.67,3.89c0.08,0.11,0.13,0.29,0.38,0.2C86.49,101.3,86.22,96.15,85.95,90.9z M93.46,121.21
		c-0.23,0.01-0.38,0.02-0.53,0.03c-1.29,0.09-2.58,0.21-3.87,0.25c-1.09,0.04-2.18,0-3.27,0c-0.16,0-0.35-0.07-0.52,0.13
		c0.18,0.17,0.35,0.35,0.53,0.51c1.32,1.18,2.65,2.36,3.97,3.54c2.27,2.02,4.54,4.05,6.82,6.07c0.14,0.12,0.24,0.34,0.52,0.27
		c-0.01-0.15-0.01-0.3-0.04-0.45c-0.2-1.22-0.4-2.45-0.6-3.67c-0.15-0.95-0.3-1.9-0.47-2.85c-0.05-0.29-0.1-0.62-0.27-0.85
		C95.02,123.2,94.24,122.23,93.46,121.21z M105.75,78.28c1.42-0.08,2.76-0.19,4.1-0.23c1.33-0.04,2.67-0.01,4.01-0.01
		c-0.01-0.09,0.01-0.16-0.02-0.18c-3.76-3.36-7.53-6.72-11.29-10.08c-0.05-0.04-0.13-0.05-0.24-0.08c0.01,0.2,0.01,0.38,0.04,0.55
		c0.19,1.2,0.39,2.4,0.58,3.6c0.16,0.97,0.31,1.95,0.48,2.92c0.05,0.29,0.08,0.6,0.28,0.85C104.37,76.49,105.05,77.38,105.75,78.28z
		 M99.46,113.51c0.41,0.9,0.76,1.71,1.14,2.51c0.38,0.82,0.7,1.67,1.18,2.5c2.6-0.64,5.12-1.44,7.63-2.43
		c-0.19-1.62-0.52-3.18-0.74-4.75c-0.03-0.19-0.11-0.38-0.17-0.61C105.46,111.53,102.49,112.44,99.46,113.51z M89.98,83.67
		c0.28,1.71,0.54,3.33,0.81,4.96c0.02,0.12,0.07,0.23,0.13,0.4c3.04-0.8,6.01-1.71,8.96-2.76c-0.03-0.15-0.04-0.25-0.07-0.34
		c-0.65-1.46-1.31-2.91-1.97-4.37c-0.05-0.11-0.14-0.2-0.24-0.32C95.02,81.88,92.51,82.68,89.98,83.67z M96.67,125.51
		c0.16,1,0.3,1.87,0.44,2.75c0.22,1.35,0.44,2.7,0.65,4.06c0.06,0.39,0.23,0.7,0.54,0.96c0.94,0.81,1.86,1.65,2.79,2.48
		c3.49,3.11,6.97,6.22,10.46,9.33c0.22,0.2,0.45,0.38,0.68,0.58c0.04-0.07,0.06-0.1,0.06-0.11c-5.11-6.61-10.21-13.21-15.32-19.82
		C96.92,125.68,96.85,125.65,96.67,125.51z M87.31,54.21c0.03,0.37,0.23,0.59,0.41,0.82c3.15,4.07,6.31,8.14,9.46,12.2
		c1.71,2.2,3.42,4.41,5.13,6.61c0.09,0.12,0.15,0.33,0.41,0.28c-0.01-0.1-0.03-0.2-0.04-0.3c-0.33-2.08-0.68-4.15-1-6.23
		c-0.07-0.47-0.2-0.89-0.62-1.16c-0.06-0.04-0.12-0.1-0.17-0.15c-4.34-3.86-8.67-7.73-13.01-11.59
		C87.7,54.53,87.5,54.37,87.31,54.21z M110.23,117.04c0,0.19-0.02,0.32,0,0.44c1.33,8.15,2.66,16.3,3.99,24.45
		c0,0.02,0.03,0.04,0.06,0.05c0.01,0,0.03-0.02,0.07-0.06c0-0.25,0.01-0.53,0-0.81c-0.06-1.29-0.12-2.58-0.19-3.87
		c-0.05-1.01-0.1-2.03-0.16-3.04c-0.13-2.4-0.27-4.81-0.39-7.21c-0.13-2.51-0.24-5.01-0.36-7.52c-0.05-0.96-0.09-1.92-0.15-2.89
		c-0.01-0.22,0.04-0.46-0.19-0.67C112.03,116.28,111.15,116.65,110.23,117.04z M85.2,57.79c-0.04,0-0.09,0.01-0.13,0.01
		c0,0.25-0.01,0.5,0,0.75c0.04,0.71,0.08,1.42,0.12,2.13c0.12,2.53,0.24,5.07,0.37,7.6c0.05,1.09,0.11,2.18,0.17,3.27
		c0.13,2.48,0.27,4.96,0.4,7.44c0.07,1.37,0.13,2.74,0.2,4.1c0.01,0.14,0.04,0.28,0.07,0.43c0.59-0.15,2.23-0.83,2.76-1.15
		c0.01-0.07,0.03-0.14,0.02-0.22C87.85,74.04,86.52,65.92,85.2,57.79z M85.6,83.1c0.05-0.01,0.09-0.02,0.14-0.03
		c0-0.12,0.01-0.25,0-0.37c-0.11-2.13-0.22-4.26-0.33-6.39c-0.15-2.94-0.3-5.88-0.45-8.82c-0.17-3.45-0.34-6.9-0.51-10.34
		c-0.01-0.13,0.03-0.27-0.12-0.46c-0.06,0.41-0.12,0.73-0.14,1.06c-0.11,1.34-0.21,2.68-0.31,4.02c-0.17,2.33-0.34,4.66-0.52,6.99
		c-0.06,0.78-0.12,1.57-0.19,2.35c-0.13,1.7-0.26,3.39-0.4,5.08c-0.03,0.42,0.04,0.79,0.22,1.17c0.81,1.75,1.59,3.51,2.39,5.27
		C85.45,82.79,85.53,82.94,85.6,83.1z M113.81,116.66c-0.05,0.01-0.1,0.02-0.15,0.03c0,0.1,0,0.2,0,0.29
		c0.11,2.13,0.22,4.25,0.33,6.38c0.15,2.99,0.31,5.98,0.46,8.96c0.13,2.56,0.25,5.12,0.37,7.67c0.04,0.91,0.1,1.82,0.14,2.73
		c0,0.09,0.02,0.18,0.03,0.27c0.13-0.31,0.2-0.63,0.23-0.95c0.11-1.36,0.21-2.73,0.32-4.09c0.17-2.33,0.34-4.65,0.52-6.98
		c0.06-0.78,0.12-1.57,0.19-2.35c0.13-1.69,0.26-3.39,0.4-5.08c0.04-0.42-0.05-0.79-0.22-1.17c-0.8-1.75-1.59-3.51-2.38-5.26
		C113.96,116.97,113.88,116.82,113.81,116.66z M71.56,92.55c1.03,0.06,1.03,0.06,1.29-0.87c0.01-0.02,0.01-0.05,0.02-0.07
		c1.76-6.32,3.53-12.65,5.29-18.97c0.24-0.85,0.48-1.71,0.7-2.57c0.11-0.41,0.05-0.54-0.36-0.9c-2.59,7.46-5.16,14.91-7.74,22.36
		C71.05,91.89,71.31,92.23,71.56,92.55z M120.83,130.61c0.05-0.07,0.09-0.1,0.1-0.15c2.46-7.09,4.92-14.18,7.38-21.27
		c0.1-0.29,0.19-0.58,0.28-0.87c0.01-0.02,0.01-0.05,0-0.08c0-0.02-0.01-0.05-0.03-0.12c-0.23-0.3-0.45-0.67-0.8-0.97
		c-0.31,0.02-0.6,0.04-0.93,0.07c-0.1,0.33-0.2,0.61-0.28,0.9c-1.11,3.98-2.22,7.96-3.33,11.94c-0.87,3.1-1.73,6.2-2.6,9.3
		C120.5,129.79,120.39,130.21,120.83,130.61z M73.69,94.81c0.46,0.59,0.88,1.13,1.29,1.67c1.58,2.04,3.16,4.08,4.75,6.12
		c0.1,0.12,0.15,0.34,0.39,0.28c0.02-0.05,0.05-0.09,0.05-0.14c0.1-1.21,0.19-2.42,0.3-3.63c0.03-0.33-0.07-0.58-0.25-0.84
		c-1.18-1.71-2.35-3.42-3.52-5.14c-0.1-0.14-0.22-0.28-0.31-0.4c-0.8-0.02-1.81,0.14-2.27,0.37C73.98,93.65,73.84,94.21,73.69,94.81
		z M115.58,144.53c0.03,0.01,0.06,0.01,0.09,0.02c0.07-0.23,0.16-0.47,0.22-0.7c0.71-2.77,1.41-5.55,2.11-8.32
		c0.48-1.89,0.95-3.78,1.43-5.67c0.07-0.28,0.12-0.52-0.01-0.81c-0.69-1.5-1.36-3-2.04-4.5c-0.05-0.11-0.13-0.15-0.26-0.08
		C116.61,131.14,116.09,137.84,115.58,144.53z M82.28,75.44c0.52-6.82,1.04-13.51,1.55-20.21c-0.17,0.21-0.25,0.45-0.31,0.68
		c-0.71,2.77-1.41,5.55-2.11,8.32c-0.48,1.89-0.95,3.78-1.43,5.67c-0.07,0.28-0.12,0.53,0.01,0.81c0.69,1.5,1.36,3,2.04,4.5
		C82.06,75.27,82.13,75.31,82.28,75.44z M120.31,82.75c0.09,0.11,0.14,0.2,0.22,0.27c2.86,2.55,5.73,5.1,8.59,7.64
		c0.02,0.02,0.05,0.02,0.07,0.02c0.02,0,0.04-0.01,0.13-0.03c0.26-0.89,0.5-1.81,0.68-2.72c-0.6-0.58-8.9-7.17-9.46-7.5
		C120.38,81.22,120.45,82.01,120.31,82.75z M106.61,99.54c0.01-0.98-0.19-1.91-0.34-2.84c-0.15-0.95-0.31-1.9-0.46-2.85
		c-0.15-0.95-0.31-1.9-0.46-2.85c-0.15-0.95-0.3-1.9-0.47-2.85c-0.17-0.94-0.25-1.89-0.5-2.82c-0.83,0.21-3.17,1.1-3.61,1.38
		c1.88,4.16,3.77,8.34,5.65,12.51C106.48,99.34,106.55,99.44,106.61,99.54z M92.78,100.19c-0.04,0.1-0.08,0.14-0.08,0.18
		c0.72,4.5,1.45,9,2.18,13.5c0.03,0.17,0.09,0.34,0.13,0.5c0.52-0.08,3.01-0.99,3.61-1.32c-1.87-4.17-3.77-8.34-5.65-12.51
		C92.94,100.42,92.86,100.32,92.78,100.19z M79.11,116.94c-2.89-2.57-5.7-5.09-8.52-7.6c-0.09-0.08-0.19-0.16-0.29-0.24
		c-0.02-0.01-0.05-0.02-0.07-0.02c-0.02,0-0.05,0-0.14,0.02c-0.23,0.89-0.49,1.81-0.68,2.75c0.2,0.17,0.36,0.32,0.54,0.46
		c1.09,0.87,2.18,1.74,3.27,2.6c1.7,1.36,3.41,2.72,5.12,4.07c0.15,0.12,0.28,0.3,0.56,0.24C79.02,118.47,78.97,117.71,79.11,116.94
		z M125.72,104.95c-0.42-0.55-0.81-1.05-1.19-1.55c-1.62-2.09-3.23-4.17-4.85-6.25c-0.1-0.12-0.15-0.34-0.42-0.26
		c-0.02,0.17-0.03,0.34-0.05,0.52c-0.07,0.91-0.12,1.82-0.22,2.73c-0.04,0.38,0.03,0.68,0.25,0.99c1.27,1.83,2.53,3.68,3.79,5.52
		c0.1,0.14,0.23,0.26,0.35,0.4c0.63-0.17,1.28-0.09,1.9-0.34C125.42,106.13,125.57,105.56,125.72,104.95z M81.08,99.6
		c-0.08,0.15-0.11,0.19-0.12,0.23c-0.1,1.19-0.19,2.37-0.29,3.56c-0.02,0.27,0.04,0.49,0.21,0.7c1.96,2.52,3.92,5.04,5.88,7.57
		c0.04,0.05,0.12,0.07,0.24,0.14c0.01-0.14,0.03-0.23,0.03-0.32c-0.05-0.99-0.11-1.97-0.14-2.96c-0.01-0.42-0.16-0.77-0.4-1.12
		c-1.67-2.42-3.33-4.85-4.99-7.27C81.38,99.97,81.25,99.81,81.08,99.6z M118.32,99.72c0.05-0.01,0.1-0.01,0.14-0.02
		c0.1-1.16,0.19-2.32,0.29-3.47c0.02-0.22-0.09-0.39-0.21-0.55c-0.48-0.62-0.96-1.24-1.45-1.86c-1.48-1.9-2.95-3.81-4.43-5.71
		c-0.11-0.15-0.19-0.36-0.47-0.37c0,0.17-0.01,0.32,0,0.47c0.04,0.73,0.1,1.47,0.11,2.2c0,0.45,0.15,0.82,0.41,1.19
		c1.76,2.54,3.5,5.1,5.25,7.65C118.07,99.4,118.2,99.56,118.32,99.72z M103.58,80.12c-0.89-0.02-4.21,0.62-5.25,0.99
		c0.01,0.09,0.01,0.19,0.04,0.28c0.36,0.97,1.88,4.19,2.19,4.64c0.6-0.21,1.22-0.42,1.83-0.66c0.63-0.25,1.29-0.42,1.92-0.79
		C104.06,83.09,103.82,81.63,103.58,80.12z M95.93,119.65c0.06,0.01,0.14,0.03,0.21,0.02c1.57-0.3,3.13-0.61,4.69-0.92
		c0.09-0.02,0.17-0.09,0.24-0.14c-0.2-0.7-1.87-4.36-2.2-4.84c-0.77,0.14-3.22,1.07-3.76,1.44c0.16,1,0.32,2.02,0.48,3.04
		c0.07,0.42,0.15,0.85,0.23,1.27C95.84,119.57,95.89,119.6,95.93,119.65z M81.56,121.45c0.07,0.09,0.1,0.17,0.15,0.21
		c5.18,4.12,10.35,8.24,15.53,12.36c0.03,0.03,0.1,0.01,0.17,0.02c0.05-0.48-0.03-0.9-0.46-1.2c-0.1-0.07-0.19-0.17-0.28-0.25
		c-3.94-3.51-7.87-7.02-11.81-10.53c-0.19-0.17-0.37-0.35-0.57-0.5c-0.12-0.09-0.26-0.17-0.4-0.19c-0.53-0.07-1.06-0.11-1.59-0.17
		C82.04,121.18,81.79,121.19,81.56,121.45z M117.87,78.37c-0.13-0.32-0.36-0.44-0.55-0.59c-3.19-2.55-6.38-5.09-9.58-7.63
		c-1.73-1.37-3.45-2.75-5.18-4.12c-0.16-0.13-0.3-0.33-0.57-0.32c-0.08,0.56,0.14,0.93,0.54,1.28c2.44,2.14,4.85,4.31,7.28,6.47
		c1.61,1.43,3.22,2.87,4.82,4.31c0.25,0.23,0.51,0.38,0.87,0.41c0.66,0.05,1.31,0.15,1.96,0.22
		C117.58,78.41,117.69,78.38,117.87,78.37z M127.68,104.41c0.13-0.12,0.25-0.21,0.35-0.32c1.24-1.35,2.35-2.79,3.29-4.37
		c0.43-0.72,0.81-1.46,1.05-2.27c0.19-0.63,0.43-1.24,0.64-1.87c0.06-0.16,0.09-0.34,0.12-0.48c-0.54-0.6-1.8-1.72-2.32-2.04
		c-0.05,0.11-0.12,0.22-0.16,0.34C129.51,97.22,127.74,103.72,127.68,104.41z M113.56,114.23c1-0.36,3.3-1.57,3.96-2.08
		c0.07-1.07,0.15-2.18,0.21-3.29c0-0.06-0.06-0.13-0.1-0.22c-1.45,0.24-2.88,0.54-4.34,0.9c0.01,1.33,0.14,2.61,0.17,3.9
		C113.47,113.68,113.52,113.93,113.56,114.23z M68.2,106.39c0.06-0.14,0.09-0.18,0.11-0.23c0.91-3.24,1.81-6.48,2.72-9.71
		c0.02-0.07-0.01-0.16-0.02-0.29c-0.12,0.09-0.19,0.12-0.23,0.17c-1.24,1.42-2.32,2.94-3.2,4.6c-0.08,0.16-0.16,0.32-0.22,0.48
		c-0.32,0.9-0.64,1.81-0.96,2.72c-0.06,0.19-0.1,0.38-0.15,0.58C66.91,105.27,67.48,105.87,68.2,106.39z M67.03,114.8
		c-0.23,0.55-5.24,18.33-5.51,19.55c-0.01,0.03,0.04,0.07,0.09,0.16c0.25-0.22,0.48-0.45,0.74-0.64c0.45-0.31,0.64-0.74,0.77-1.26
		c1.4-5.6,2.82-11.2,4.24-16.79c0.06-0.24,0.1-0.49,0.15-0.75C67.32,114.96,67.17,114.88,67.03,114.8z M81.7,91.13
		c0.76-0.14,1.44-0.25,2.1-0.4c0.68-0.16,1.39-0.23,2.08-0.5c-0.03-1.55-0.1-3.06-0.23-4.61c-0.51,0.09-0.91,0.38-1.33,0.58
		c-0.41,0.19-0.82,0.4-1.21,0.64c-0.41,0.24-0.88,0.39-1.22,0.78C81.86,88.74,81.64,89.87,81.7,91.13z M137.98,65.15
		c-0.43,0.27-0.66,0.51-0.9,0.72c-0.58,0.52-0.58,0.52-0.77,1.25c-1.42,5.6-2.83,11.21-4.25,16.81c-0.06,0.24-0.1,0.49-0.15,0.75
		c0.17,0.1,0.32,0.19,0.52,0.31C134.29,78.4,136.11,71.86,137.98,65.15z M101.73,64.45c0.05,0.12,0.07,0.21,0.11,0.26
		c0.26,0.28,16.3,13.01,16.73,13.27c0.3-0.17,0.62-0.35,0.96-0.54c-0.07-0.1-0.09-0.18-0.15-0.22c-5.81-4.26-11.62-8.52-17.43-12.77
		C101.92,64.42,101.86,64.44,101.73,64.45z M79.87,122.38c0.12,0.11,0.2,0.2,0.3,0.27c5.77,4.23,11.54,8.46,17.31,12.68
		c0.02,0.02,0.09-0.02,0.13-0.03c0.01-0.02,0.02-0.04,0.03-0.06c0-0.02,0-0.05-0.01-0.07c-0.02-0.05-0.05-0.09-0.08-0.13
		c-0.03-0.04-0.07-0.08-0.11-0.11c-5.48-4.36-10.96-8.71-16.44-13.07c-0.02-0.01-0.05-0.02-0.07-0.03c-0.02-0.01-0.05-0.01-0.1-0.02
		C80.52,121.94,80.18,122.1,79.87,122.38z M92.57,120.09c-0.45-0.59-0.81-1.08-1.19-1.55c-0.38-0.47-0.68-1-1.14-1.37
		c-1.28,0.45-5.49,2.48-6.11,2.94c0.03,0.03,0.06,0.1,0.1,0.1c0.76,0.05,1.52,0.12,2.27,0.12
		C88.48,120.35,90.46,120.37,92.57,120.09z M106.86,79.69c0.77,1.03,1.5,1.96,2.22,2.87c0.7-0.14,4.92-2.08,6.17-2.83
		c0.03-0.02,0.02-0.09,0.03-0.13C114.16,79.31,108.77,79.36,106.86,79.69z M117.39,113.8c-0.13,0.01-0.21-0.01-0.27,0.02
		c-1.06,0.54-2.12,1.09-3.17,1.63c0.02,0.11,0.03,0.19,0.06,0.25c0.84,1.87,1.69,3.75,2.54,5.62c0.03,0.07,0.12,0.12,0.25,0.26
		C116.99,118.92,117.19,116.37,117.39,113.8z M68.78,114.28c0.25,0.19,0.45,0.35,0.65,0.5c0.88,0.64,1.77,1.27,2.63,1.94
		c0.77,0.6,1.61,1.05,2.51,1.4c0.71,0.27,1.43,0.52,2.14,0.76c0.18,0.06,0.37,0.13,0.58,0.1c-0.03-0.07-0.04-0.13-0.07-0.16
		c-2.57-2.05-5.15-4.1-7.73-6.15c-0.06-0.04-0.13-0.06-0.25-0.11C69.01,113.1,68.92,113.67,68.78,114.28z M82.71,78.28
		c-0.32,2.4-0.45,4.79-0.65,7.19c-0.01,0.07,0.03,0.13,0.05,0.2c0.54-0.17,2.85-1.36,3.27-1.68C84.53,82.08,83.67,80.17,82.71,78.28
		z M86.61,85.1c0.7,1.54,1.35,2.99,2.01,4.44c0.61,0,1.12-0.18,1.68-0.38c-0.29-1.75-0.54-3.47-0.87-5.24
		C88.46,84.24,87.58,84.65,86.61,85.1z M112.79,114.64c-0.69-1.55-1.34-3-2.02-4.45c-0.6,0.05-1.13,0.14-1.65,0.45
		c0.28,1.72,0.56,3.41,0.85,5.2C110.95,115.48,111.85,115.11,112.79,114.64z M92.05,115.66c-0.28-0.54-3.66-5.53-4.17-6.17
		c-0.02-0.03-0.09-0.02-0.18-0.03c0,0.25-0.01,0.49,0,0.73c0.04,0.78,0.1,1.57,0.12,2.35c0.01,0.38,0.14,0.67,0.37,0.96
		c0.65,0.81,1.27,1.64,1.91,2.46c0.11,0.13,0.23,0.25,0.36,0.38C90.99,116.12,91.5,115.9,92.05,115.66z M80.49,97.55
		c0.06-0.13,0.11-0.2,0.11-0.26c0.13-1.69,0.25-3.38,0.36-5.07c0-0.07-0.04-0.14-0.08-0.26c-0.63,0.05-1.24,0.19-1.86,0.31
		c-0.63,0.12-1.29,0.11-1.9,0.37C77.43,93.24,79.95,96.93,80.49,97.55z M122.28,107.15c-0.03-0.12-0.03-0.2-0.07-0.26
		c-1.03-1.51-2.06-3.01-3.09-4.51c-0.04-0.06-0.11-0.09-0.22-0.17c-0.04,0.2-0.1,0.37-0.11,0.53c-0.05,0.53-0.08,1.06-0.12,1.59
		c-0.07,1.01-0.15,2.02-0.22,3.03c-0.01,0.14,0.04,0.28,0.06,0.46C119.78,107.56,121.03,107.43,122.28,107.15z M75.29,92.11
		c0.26,0,0.44,0.02,0.62,0c1.6-0.25,3.2-0.51,4.8-0.77c0.12-0.02,0.22-0.1,0.37-0.17c0.01-1.06,0.25-2.1,0.16-3.26
		c-0.87,0.47-1.63,0.97-2.38,1.47C77,90.61,75.88,91.46,75.29,92.11z M118.18,111.77c0.14-0.05,0.22-0.06,0.28-0.09
		c1.9-1.13,3.72-2.37,5.44-3.76c0.07-0.05,0.1-0.15,0.17-0.25c-0.85-0.04-4.89,0.6-5.65,0.88
		C118.27,109.14,118.13,111.06,118.18,111.77z M108.96,83.39c-0.5,0.22-0.95,0.35-1.35,0.62c0.04,0.11,0.06,0.19,0.09,0.25
		c1.24,1.82,2.48,3.63,3.73,5.44c0.05,0.07,0.15,0.1,0.28,0.18c-0.04-0.96-0.1-1.84-0.12-2.72c-0.01-0.35-0.13-0.63-0.34-0.89
		c-0.67-0.85-1.33-1.72-2-2.57C109.18,83.61,109.09,83.52,108.96,83.39z M69.77,107.82c0.08-0.23,0.16-0.39,0.2-0.55
		c0.99-3.92,1.98-7.85,2.97-11.78c0.03-0.12,0.08-0.24,0.09-0.37c0.03-0.28-0.09-0.47-0.38-0.55c-0.31,0.8-3.44,12.07-3.52,12.7
		C69.32,107.44,69.52,107.61,69.77,107.82z M126.76,105.19c0.05-0.13,0.1-0.24,0.13-0.35c1.16-4.09,2.3-8.19,3.43-12.28
		c-0.21-0.24-0.39-0.45-0.71-0.58c-0.07,0.24-0.14,0.45-0.2,0.66c-0.95,3.76-1.91,7.51-2.86,11.27c-0.06,0.22-0.11,0.44-0.16,0.66
		C126.33,104.86,126.45,105.06,126.76,105.19z M130.64,85.5c-0.14-0.12-0.21-0.19-0.3-0.25c-1.25-0.91-2.49-1.83-3.74-2.74
		c-0.2-0.15-0.42-0.29-0.65-0.39c-0.72-0.31-1.45-0.6-2.18-0.89c-0.11-0.04-0.23-0.05-0.41-0.09c0.08,0.12,0.1,0.2,0.16,0.24
		c2.18,1.74,4.36,3.47,6.54,5.21c0.06,0.04,0.14,0.05,0.26,0.1C130.43,86.29,130.53,85.91,130.64,85.5z M131.81,89.31
		c-0.3,1.07-0.59,2-0.81,2.95c0.06,0.08,0.09,0.16,0.14,0.2c0.62,0.56,1.25,1.12,1.88,1.67c0.08,0.07,0.2,0.09,0.32,0.14
		c0.22-1.14,0.17-2.22,0.03-3.3c-0.03-0.25-0.09-0.5-0.31-0.67C132.68,90,132.3,89.7,131.81,89.31z M94.87,119.79
		c-0.35-0.71-2.06-3.18-2.47-3.58c-0.5,0.2-1.02,0.39-1.5,0.66c0.28,0.54,1.7,2.4,2.38,3.14C93.8,120.01,94.34,119.97,94.87,119.79z
		 M66.07,105.5c-0.21,1.29-0.22,2.2-0.04,3.28c0.04,0.22,0.07,0.46,0.26,0.61c0.27,0.22,0.55,0.44,0.83,0.66
		c0.31-0.62,0.82-2.46,0.84-3.05c-0.55-0.48-1.12-0.99-1.69-1.48C66.25,105.5,66.18,105.51,66.07,105.5z M104.74,79.94
		c0.32,0.48,0.59,0.87,0.86,1.26c0.26,0.37,0.5,0.76,0.77,1.12c0.28,0.38,0.47,0.83,0.87,1.13c0.23-0.1,0.44-0.18,0.65-0.27
		c0.22-0.1,0.49-0.13,0.64-0.4c-0.8-1.02-1.57-2.04-2.36-3.03C105.7,79.76,105.27,79.73,104.74,79.94z M109.07,109.89
		c0.47-0.1,0.91-0.16,1.31-0.36c-0.15-0.66-1.72-4.11-2.1-4.63c-0.02,0.08-0.06,0.15-0.05,0.21c0.23,1.47,0.47,2.95,0.71,4.42
		C108.96,109.65,109.02,109.76,109.07,109.89z M91.21,94.81c-0.08-0.55-0.16-1.09-0.25-1.64c-0.09-0.57-0.16-1.15-0.28-1.72
		c-0.12-0.53-0.08-1.1-0.36-1.62c-0.45,0.13-0.91,0.17-1.3,0.39C89.19,90.87,90.74,94.3,91.21,94.81z M119.8,82.24
		c0.02-0.73,0.2-1.37,0.11-2.01c-0.91-0.31-2.27-0.51-2.83-0.41c0.01,0.05,0.01,0.11,0.04,0.13c0.79,0.71,1.58,1.42,2.37,2.13
		C119.55,82.14,119.63,82.16,119.8,82.24z M79.45,119.47c0.41,0.29,0.86,0.27,1.27,0.33c0.53,0.08,1.07,0.27,1.66,0.17
		c-0.05-0.1-0.07-0.18-0.12-0.22c-0.79-0.71-1.58-1.41-2.38-2.11c-0.06-0.05-0.16-0.06-0.28-0.09
		C79.55,118.22,79.5,118.85,79.45,119.47z M101.34,65.79c0-0.45-0.05-0.8-0.42-1.09c-1.91-1.5-3.8-3.02-5.71-4.53
		c-0.09-0.07-0.17-0.2-0.32-0.13c0.01,0.04,0.01,0.1,0.03,0.12c2.05,1.84,4.11,3.68,6.17,5.52
		C101.14,65.73,101.22,65.74,101.34,65.79z M104.3,80.98c0.15,0.94,0.29,1.86,0.44,2.78c0.02,0.15,0.06,0.3,0.1,0.44
		c0.01,0.04,0.06,0.08,0.12,0.16c0.46-0.13,0.91-0.29,1.37-0.57c-0.08-0.15-0.13-0.27-0.2-0.37c-0.54-0.79-1.09-1.58-1.64-2.37
		C104.47,81.02,104.4,81.02,104.3,80.98z M111.38,85.39c0.14-0.66,0.05-2.31-0.16-2.95c-0.89,0.28-1.25,0.46-1.58,0.78
		C110.19,84.08,110.95,85.02,111.38,85.39z M93.05,115.95c0.32,0.55,0.65,1.02,0.99,1.48c0.33,0.45,0.55,0.98,1.08,1.39
		c-0.17-1.1-0.33-2.09-0.49-3.08c-0.02-0.12-0.1-0.22-0.16-0.37C93.99,115.56,93.55,115.74,93.05,115.95z M88.18,117.31
		c0.57-0.18,1.11-0.42,1.65-0.76c-0.22-0.29-0.42-0.55-0.61-0.81c-0.18-0.24-0.36-0.49-0.56-0.71c-0.2-0.23-0.33-0.55-0.66-0.7
		C87.91,115.25,87.99,116.61,88.18,117.31z M65.93,112.6c0.01-0.18,0.03-0.23,0.01-0.27c-0.49-1.01-0.84-2.05-1.04-3.15
		c-0.01-0.05-0.1-0.09-0.15-0.13c-0.38,0.74-0.67,1.63-0.7,2.18C64.64,111.66,65.25,112.1,65.93,112.6z M69.64,108.57
		c-0.18-0.28-0.4-0.47-0.7-0.62c-0.28,0.46-0.34,0.97-0.47,1.44c-0.13,0.48-0.36,0.94-0.32,1.46c0.24,0.17,0.41,0.43,0.78,0.51
		C69.17,110.41,69.4,109.49,69.64,108.57z M130.54,88.31c-0.34,0.99-0.52,1.95-0.78,2.93c0.25,0.17,0.39,0.45,0.76,0.54
		c0.3-0.95,0.57-1.89,0.8-2.87C131.06,88.72,130.83,88.54,130.54,88.31z M129.3,106.33c0.32-0.9,0.61-1.73,0.89-2.56
		c0.02-0.07,0.04-0.15,0.05-0.22c0-0.02-0.01-0.05-0.02-0.06c-0.01-0.01-0.04-0.01-0.07-0.02c-0.79,0.87-1.58,1.74-2.36,2.61
		c0.18,0.36,0.2,0.38,0.41,0.37C128.54,106.41,128.89,106.37,129.3,106.33z M111.4,109.98c0.01,0.12-0.01,0.2,0.02,0.26
		c0.42,0.94,0.85,1.89,1.27,2.83c0.01,0.03,0.08,0.03,0.12,0.05c0.02-0.02,0.05-0.03,0.05-0.05c-0.04-1.01-0.07-2.01-0.12-3.02
		c-0.01-0.11-0.08-0.22-0.13-0.35C112.19,109.79,111.8,109.88,111.4,109.98z M88,89.77c-0.01-0.13,0-0.24-0.04-0.32
		c-0.41-0.92-0.84-1.84-1.26-2.76c-0.01-0.03-0.08-0.03-0.21-0.06c0.14,1.1,0.03,2.19,0.22,3.26c0.01,0.04,0.06,0.07,0.12,0.13
		c0.1-0.01,0.23-0.01,0.35-0.04C87.45,89.92,87.71,89.84,88,89.77z M133.51,87.17c0.26,0.94,0.63,1.77,0.83,2.66
		c0.05,0.24,0.2,0.4,0.49,0.45c0.26-0.55,0.46-1.1,0.58-1.74C134.77,88.08,134.14,87.63,133.51,87.17z M71.46,93.37
		c-0.34-0.1-0.66-0.02-0.99,0c-0.26,0.01-0.41,0.15-0.49,0.39c-0.17,0.53-0.36,1.05-0.54,1.57c-0.06,0.18-0.15,0.36-0.15,0.67
		c0.69-0.76,1.31-1.44,1.93-2.13c0.1-0.11,0.18-0.24,0.26-0.36C71.49,93.51,71.48,93.47,71.46,93.37z M68.24,113.7
		c0.33-0.54,0.36-1.09,0.49-1.61c-0.25-0.24-0.46-0.48-0.83-0.6c-0.12,0.42-0.24,0.83-0.36,1.24
		C67.76,113.05,67.98,113.35,68.24,113.7z M94.16,121.1c0.4,0.71,0.83,1.21,1.28,1.71c0.02,0.02,0.09-0.01,0.16-0.01
		c-0.03-0.6-0.1-1.18-0.32-1.8C94.94,121.04,94.62,121.06,94.16,121.1z M105.04,78.38c-0.54-0.9-0.86-1.28-1.24-1.47
		c0,0.55,0.12,1.05,0.26,1.56C104.4,78.52,104.68,78.43,105.04,78.38z M130.79,87.15c0.28,0.25,0.49,0.51,0.86,0.58
		c0.08-0.23,0.14-0.45,0.21-0.64c-0.36-0.66-0.36-0.66-0.79-0.95C130.98,86.46,130.89,86.77,130.79,87.15z M79.02,120.79
		c-0.02,0.3-0.04,0.58-0.04,0.85c0,0.16,0.17,0.28,0.32,0.21c0.34-0.15,0.68-0.29,0.95-0.59C79.92,120.93,79.61,120.65,79.02,120.79
		z M119.14,78.48c0.37,0.33,0.77,0.36,1.2,0.37c0.11-0.26,0.11-0.5,0.09-0.75c-0.01-0.15-0.19-0.27-0.32-0.21
		C119.77,78.04,119.44,78.19,119.14,78.48z M76.89,120.14c0.61,0.61,0.99,0.87,1.46,1.05c0.03-0.04,0.07-0.07,0.08-0.12
		c0.08-0.46,0.05-0.51-0.38-0.63C77.71,120.35,77.38,120.26,76.89,120.14z M99.36,62.57c-0.03,0.04-0.06,0.08-0.1,0.12
		c0.53,0.42,1.07,0.84,1.6,1.25c0.03,0.02,0.09,0,0.13,0c0.01-0.05,0.04-0.12,0.02-0.14C100.52,63.32,99.95,62.93,99.36,62.57z
		 M121.99,79.31c-0.2-0.38-0.53-0.59-0.87-0.79c-0.21,0.38-0.19,0.51,0.08,0.6C121.46,79.19,121.73,79.25,121.99,79.31z
		 M66.82,111.28c0.22-0.61,0.22-0.61-0.34-0.9C66.49,110.7,66.61,110.95,66.82,111.28z M132.62,88.56c-0.1-0.32-0.12-0.54-0.35-0.64
		C132.16,88.25,132.16,88.25,132.62,88.56z M128.45,107.08c0.2,0.17,0.21,0.38,0.4,0.32c0.16-0.05,0.17-0.2,0.05-0.35
		C128.81,107.05,128.72,107.06,128.45,107.08z M70.81,92.66c-0.02-0.2-0.07-0.34-0.26-0.31c-0.05,0.01-0.12,0.15-0.11,0.22
		C70.48,92.8,70.64,92.71,70.81,92.66z M94.52,59.81c0.03-0.03,0.07-0.06,0.1-0.09c-0.11-0.09-0.22-0.17-0.33-0.26
		c-0.02,0.02-0.04,0.05-0.06,0.07C94.33,59.63,94.43,59.72,94.52,59.81z M98.79,62.13c0.03,0.15,0.07,0.32,0.27,0.21
		C98.96,62.26,98.88,62.19,98.79,62.13z M122.02,122c0,0.02-0.01,0.05,0,0.07c0,0,0.03,0.01,0.04,0.01c0-0.02,0.01-0.05,0-0.07
		C122.06,122,122.03,122,122.02,122z M126.17,105.65c-0.03,0.08-0.05,0.14-0.07,0.19c0,0.02,0.02,0.04,0.03,0.07
		c0.05-0.05,0.1-0.09,0.14-0.14C126.28,105.77,126.23,105.72,126.17,105.65z M73.21,94.06c0.03-0.02,0.09-0.04,0.1-0.07
		c0.01-0.04-0.01-0.09-0.02-0.13c-0.05,0.03-0.1,0.06-0.13,0.11C73.14,93.97,73.19,94.03,73.21,94.06z M77.4,77.74
		c-0.01-0.02-0.01-0.04-0.02-0.06c-0.01,0.02-0.03,0.03-0.03,0.05c0,0.02,0.01,0.04,0.02,0.06C77.38,77.77,77.39,77.76,77.4,77.74z
		 M98.15,61.7l0,0.05l0.06-0.02L98.15,61.7z M118.39,137.6c-0.01,0.03-0.01,0.07-0.02,0.1c0.01-0.02,0.03-0.03,0.03-0.05
		C118.41,137.64,118.4,137.62,118.39,137.6z M101.02,137.9c0.02,0.01,0.04,0.01,0.06,0.02c-0.01-0.02-0.03-0.05-0.04-0.07
		C101.03,137.87,101.03,137.89,101.02,137.9z"/>
</g>
</svg>
